<svg width="100%" height="100%" viewBox="0 0 345 79" fill="none" xmlns="http://www.w3.org/2000/svg">
<path d="M10.444 0.76V10H9.38V4.19L9.506 1.754H9.492L6.454 10H5.502L2.464 1.754H2.45L2.576 4.19V10H1.512V0.76H3.234L5.264 6.374L5.964 8.684H5.992L6.706 6.388L8.722 0.76H10.444ZM20.8252 10H19.6352L18.6552 7.438H14.4692L13.4892 10H12.3132L15.9112 0.76H17.2412L20.8252 10ZM14.8752 6.388H18.2492L16.5552 1.838L14.8752 6.388ZM25.562 0.62C26.374 0.62 27.074 0.788 27.662 1.124C28.25 1.45067 28.74 1.936 29.132 2.58L28.194 3.308C27.8487 2.71067 27.4567 2.29067 27.018 2.048C26.5887 1.796 26.066 1.67 25.45 1.67C24.9554 1.67 24.5447 1.74 24.218 1.88C23.9007 2.02 23.6674 2.20667 23.518 2.44C23.3687 2.664 23.294 2.92067 23.294 3.21C23.294 3.53667 23.3967 3.826 23.602 4.078C23.8074 4.32067 24.218 4.512 24.834 4.652L26.836 5.1C27.7227 5.296 28.3387 5.59467 28.684 5.996C29.0387 6.388 29.216 6.878 29.216 7.466C29.216 7.98867 29.0667 8.45533 28.768 8.866C28.4787 9.26733 28.068 9.58 27.536 9.804C27.004 10.028 26.3787 10.14 25.66 10.14C24.988 10.14 24.3954 10.0513 23.882 9.874C23.378 9.68733 22.944 9.44 22.58 9.132C22.216 8.824 21.9174 8.47867 21.684 8.096L22.664 7.298C22.8414 7.65267 23.07 7.96533 23.35 8.236C23.63 8.50667 23.966 8.71667 24.358 8.866C24.7594 9.01533 25.2167 9.09 25.73 9.09C26.206 9.09 26.6167 9.034 26.962 8.922C27.3167 8.80067 27.5874 8.628 27.774 8.404C27.9607 8.17067 28.054 7.89067 28.054 7.564C28.054 7.26533 27.956 6.99933 27.76 6.766C27.564 6.52333 27.1954 6.34133 26.654 6.22L24.484 5.73C23.9147 5.59933 23.4527 5.422 23.098 5.198C22.7527 4.96467 22.5007 4.694 22.342 4.386C22.1927 4.06867 22.118 3.728 22.118 3.364C22.118 2.86933 22.2534 2.41667 22.524 2.006C22.804 1.586 23.2007 1.25 23.714 0.998C24.2367 0.746 24.8527 0.62 25.562 0.62ZM34.5308 0.62C35.3428 0.62 36.0428 0.788 36.6308 1.124C37.2188 1.45067 37.7088 1.936 38.1008 2.58L37.1628 3.308C36.8174 2.71067 36.4254 2.29067 35.9868 2.048C35.5574 1.796 35.0348 1.67 34.4188 1.67C33.9241 1.67 33.5134 1.74 33.1868 1.88C32.8694 2.02 32.6361 2.20667 32.4868 2.44C32.3374 2.664 32.2628 2.92067 32.2628 3.21C32.2628 3.53667 32.3654 3.826 32.5708 4.078C32.7761 4.32067 33.1868 4.512 33.8028 4.652L35.8048 5.1C36.6914 5.296 37.3074 5.59467 37.6528 5.996C38.0074 6.388 38.1848 6.878 38.1848 7.466C38.1848 7.98867 38.0354 8.45533 37.7368 8.866C37.4474 9.26733 37.0368 9.58 36.5048 9.804C35.9728 10.028 35.3474 10.14 34.6288 10.14C33.9568 10.14 33.3641 10.0513 32.8508 9.874C32.3468 9.68733 31.9128 9.44 31.5488 9.132C31.1848 8.824 30.8861 8.47867 30.6528 8.096L31.6328 7.298C31.8101 7.65267 32.0388 7.96533 32.3188 8.236C32.5988 8.50667 32.9348 8.71667 33.3268 8.866C33.7281 9.01533 34.1854 9.09 34.6988 9.09C35.1748 9.09 35.5854 9.034 35.9308 8.922C36.2854 8.80067 36.5561 8.628 36.7428 8.404C36.9294 8.17067 37.0228 7.89067 37.0228 7.564C37.0228 7.26533 36.9248 6.99933 36.7288 6.766C36.5328 6.52333 36.1641 6.34133 35.6228 6.22L33.4528 5.73C32.8834 5.59933 32.4214 5.422 32.0668 5.198C31.7214 4.96467 31.4694 4.694 31.3108 4.386C31.1614 4.06867 31.0868 3.728 31.0868 3.364C31.0868 2.86933 31.2221 2.41667 31.4928 2.006C31.7728 1.586 32.1694 1.25 32.6828 0.998C33.2054 0.746 33.8214 0.62 34.5308 0.62ZM47.7725 10H46.5825L45.6025 7.438H41.4165L40.4365 10H39.2605L42.8585 0.76H44.1885L47.7725 10ZM41.8225 6.388H45.1965L43.5025 1.838L41.8225 6.388ZM68.3646 7.634C68.1686 8.15667 67.8886 8.60933 67.5246 8.992C67.1606 9.36533 66.7313 9.65 66.2366 9.846C65.7513 10.042 65.2193 10.14 64.6406 10.14C63.7633 10.14 63.0026 9.94867 62.3586 9.566C61.724 9.174 61.2293 8.62333 60.8746 7.914C60.5293 7.20467 60.3566 6.36 60.3566 5.38C60.3566 4.4 60.5293 3.55533 60.8746 2.846C61.2293 2.13667 61.724 1.59067 62.3586 1.208C63.0026 0.816 63.754 0.62 64.6126 0.62C65.21 0.62 65.742 0.704 66.2086 0.872C66.6753 1.03067 67.072 1.27333 67.3986 1.6C67.7346 1.91733 68.0006 2.30933 68.1966 2.776L67.0906 3.294C66.8853 2.762 66.5866 2.36067 66.1946 2.09C65.812 1.81 65.3126 1.67 64.6966 1.67C64.0713 1.67 63.5206 1.81933 63.0446 2.118C62.5686 2.40733 62.1953 2.82733 61.9246 3.378C61.6633 3.92867 61.5326 4.596 61.5326 5.38C61.5326 6.15467 61.6586 6.822 61.9106 7.382C62.1626 7.93267 62.522 8.35733 62.9886 8.656C63.4553 8.94533 64.006 9.09 64.6406 9.09C65.2566 9.09 65.7933 8.936 66.2506 8.628C66.708 8.31067 67.0393 7.83933 67.2446 7.214L68.3646 7.634ZM74.2383 0.62C75.1156 0.62 75.8716 0.816 76.5063 1.208C77.1503 1.59067 77.6449 2.13667 77.9903 2.846C78.3449 3.55533 78.5223 4.4 78.5223 5.38C78.5223 6.36 78.3449 7.20467 77.9903 7.914C77.6449 8.62333 77.1503 9.174 76.5063 9.566C75.8716 9.94867 75.1156 10.14 74.2383 10.14C73.3609 10.14 72.6003 9.94867 71.9563 9.566C71.3216 9.174 70.8269 8.62333 70.4723 7.914C70.1269 7.20467 69.9543 6.36 69.9543 5.38C69.9543 4.4 70.1269 3.55533 70.4723 2.846C70.8269 2.13667 71.3216 1.59067 71.9563 1.208C72.6003 0.816 73.3609 0.62 74.2383 0.62ZM74.2383 1.67C73.6036 1.67 73.0529 1.81933 72.5863 2.118C72.1196 2.40733 71.7603 2.832 71.5083 3.392C71.2563 3.94267 71.1303 4.60533 71.1303 5.38C71.1303 6.15467 71.2563 6.822 71.5083 7.382C71.7603 7.93267 72.1196 8.35733 72.5863 8.656C73.0529 8.94533 73.6036 9.09 74.2383 9.09C74.8823 9.09 75.4329 8.94533 75.8903 8.656C76.3569 8.35733 76.7163 7.93267 76.9683 7.382C77.2203 6.822 77.3463 6.15467 77.3463 5.38C77.3463 4.60533 77.2203 3.94267 76.9683 3.392C76.7163 2.832 76.3569 2.40733 75.8903 2.118C75.4329 1.81933 74.8823 1.67 74.2383 1.67ZM88.2389 0.76V10H86.8529L82.9889 3.812L82.0089 2.076H81.9949L82.0509 3.476V10H80.9869V0.76H82.3729L86.2229 6.92L87.2169 8.698H87.2309L87.1749 7.284V0.76H88.2389ZM97.7362 1.81H92.3882V4.792H96.5602V5.842H92.3882V10H91.2682V0.76H97.7362V1.81ZM106.883 0.76V6.556C106.883 7.74133 106.57 8.63733 105.945 9.244C105.32 9.84133 104.424 10.14 103.257 10.14C102.1 10.14 101.204 9.84133 100.569 9.244C99.9438 8.63733 99.6311 7.74133 99.6311 6.556V0.76H100.751V6.276C100.751 7.23733 100.952 7.94667 101.353 8.404C101.764 8.86133 102.398 9.09 103.257 9.09C104.116 9.09 104.746 8.86133 105.147 8.404C105.558 7.94667 105.763 7.23733 105.763 6.276V0.76H106.883ZM112.693 0.62C113.505 0.62 114.205 0.788 114.793 1.124C115.381 1.45067 115.871 1.936 116.263 2.58L115.325 3.308C114.98 2.71067 114.588 2.29067 114.149 2.048C113.72 1.796 113.197 1.67 112.581 1.67C112.087 1.67 111.676 1.74 111.349 1.88C111.032 2.02 110.799 2.20667 110.649 2.44C110.5 2.664 110.425 2.92067 110.425 3.21C110.425 3.53667 110.528 3.826 110.733 4.078C110.939 4.32067 111.349 4.512 111.965 4.652L113.967 5.1C114.854 5.296 115.47 5.59467 115.815 5.996C116.17 6.388 116.347 6.878 116.347 7.466C116.347 7.98867 116.198 8.45533 115.899 8.866C115.61 9.26733 115.199 9.58 114.667 9.804C114.135 10.028 113.51 10.14 112.791 10.14C112.119 10.14 111.527 10.0513 111.013 9.874C110.509 9.68733 110.075 9.44 109.711 9.132C109.347 8.824 109.049 8.47867 108.815 8.096L109.795 7.298C109.973 7.65267 110.201 7.96533 110.481 8.236C110.761 8.50667 111.097 8.71667 111.489 8.866C111.891 9.01533 112.348 9.09 112.861 9.09C113.337 9.09 113.748 9.034 114.093 8.922C114.448 8.80067 114.719 8.628 114.905 8.404C115.092 8.17067 115.185 7.89067 115.185 7.564C115.185 7.26533 115.087 6.99933 114.891 6.766C114.695 6.52333 114.327 6.34133 113.785 6.22L111.615 5.73C111.046 5.59933 110.584 5.422 110.229 5.198C109.884 4.96467 109.632 4.694 109.473 4.386C109.324 4.06867 109.249 3.728 109.249 3.364C109.249 2.86933 109.385 2.41667 109.655 2.006C109.935 1.586 110.332 1.25 110.845 0.998C111.368 0.746 111.984 0.62 112.693 0.62ZM125.935 10H124.745L123.765 7.438H119.579L118.599 10H117.423L121.021 0.76H122.351L125.935 10ZM119.985 6.388H123.359L121.665 1.838L119.985 6.388ZM140.199 0.76V10H139.079V0.76H140.199ZM146.19 0.62C147.002 0.62 147.702 0.788 148.29 1.124C148.878 1.45067 149.368 1.936 149.76 2.58L148.822 3.308C148.476 2.71067 148.084 2.29067 147.646 2.048C147.216 1.796 146.694 1.67 146.078 1.67C145.583 1.67 145.172 1.74 144.846 1.88C144.528 2.02 144.295 2.20667 144.146 2.44C143.996 2.664 143.922 2.92067 143.922 3.21C143.922 3.53667 144.024 3.826 144.23 4.078C144.435 4.32067 144.846 4.512 145.462 4.652L147.464 5.1C148.35 5.296 148.966 5.59467 149.312 5.996C149.666 6.388 149.844 6.878 149.844 7.466C149.844 7.98867 149.694 8.45533 149.396 8.866C149.106 9.26733 148.696 9.58 148.164 9.804C147.632 10.028 147.006 10.14 146.288 10.14C145.616 10.14 145.023 10.0513 144.51 9.874C144.006 9.68733 143.572 9.44 143.208 9.132C142.844 8.824 142.545 8.47867 142.312 8.096L143.292 7.298C143.469 7.65267 143.698 7.96533 143.978 8.236C144.258 8.50667 144.594 8.71667 144.986 8.866C145.387 9.01533 145.844 9.09 146.358 9.09C146.834 9.09 147.244 9.034 147.59 8.922C147.944 8.80067 148.215 8.628 148.402 8.404C148.588 8.17067 148.682 7.89067 148.682 7.564C148.682 7.26533 148.584 6.99933 148.388 6.766C148.192 6.52333 147.823 6.34133 147.282 6.22L145.112 5.73C144.542 5.59933 144.08 5.422 143.726 5.198C143.38 4.96467 143.128 4.694 142.97 4.386C142.82 4.06867 142.746 3.728 142.746 3.364C142.746 2.86933 142.881 2.41667 143.152 2.006C143.432 1.586 143.828 1.25 144.342 0.998C144.864 0.746 145.48 0.62 146.19 0.62ZM170.82 10H169.63L168.65 7.438H164.464L163.484 10H162.308L165.906 0.76H167.236L170.82 10ZM164.87 6.388H168.244L166.55 1.838L164.87 6.388ZM185.084 8.95H190.376V10H183.964V0.76H185.084V8.95ZM195.728 0.62C196.605 0.62 197.361 0.816 197.996 1.208C198.64 1.59067 199.134 2.13667 199.48 2.846C199.834 3.55533 200.012 4.4 200.012 5.38C200.012 6.36 199.834 7.20467 199.48 7.914C199.134 8.62333 198.64 9.174 197.996 9.566C197.361 9.94867 196.605 10.14 195.728 10.14C194.85 10.14 194.09 9.94867 193.446 9.566C192.811 9.174 192.316 8.62333 191.962 7.914C191.616 7.20467 191.444 6.36 191.444 5.38C191.444 4.4 191.616 3.55533 191.962 2.846C192.316 2.13667 192.811 1.59067 193.446 1.208C194.09 0.816 194.85 0.62 195.728 0.62ZM195.728 1.67C195.093 1.67 194.542 1.81933 194.076 2.118C193.609 2.40733 193.25 2.832 192.998 3.392C192.746 3.94267 192.62 4.60533 192.62 5.38C192.62 6.15467 192.746 6.822 192.998 7.382C193.25 7.93267 193.609 8.35733 194.076 8.656C194.542 8.94533 195.093 9.09 195.728 9.09C196.372 9.09 196.922 8.94533 197.38 8.656C197.846 8.35733 198.206 7.93267 198.458 7.382C198.71 6.822 198.836 6.15467 198.836 5.38C198.836 4.60533 198.71 3.94267 198.458 3.392C198.206 2.832 197.846 2.40733 197.38 2.118C196.922 1.81933 196.372 1.67 195.728 1.67ZM205.444 0.62C206.256 0.62 206.956 0.788 207.544 1.124C208.132 1.45067 208.622 1.936 209.014 2.58L208.076 3.308C207.731 2.71067 207.339 2.29067 206.9 2.048C206.471 1.796 205.948 1.67 205.332 1.67C204.838 1.67 204.427 1.74 204.1 1.88C203.783 2.02 203.55 2.20667 203.4 2.44C203.251 2.664 203.176 2.92067 203.176 3.21C203.176 3.53667 203.279 3.826 203.484 4.078C203.69 4.32067 204.1 4.512 204.716 4.652L206.718 5.1C207.605 5.296 208.221 5.59467 208.566 5.996C208.921 6.388 209.098 6.878 209.098 7.466C209.098 7.98867 208.949 8.45533 208.65 8.866C208.361 9.26733 207.95 9.58 207.418 9.804C206.886 10.028 206.261 10.14 205.542 10.14C204.87 10.14 204.278 10.0513 203.764 9.874C203.26 9.68733 202.826 9.44 202.462 9.132C202.098 8.824 201.8 8.47867 201.566 8.096L202.546 7.298C202.724 7.65267 202.952 7.96533 203.232 8.236C203.512 8.50667 203.848 8.71667 204.24 8.866C204.642 9.01533 205.099 9.09 205.612 9.09C206.088 9.09 206.499 9.034 206.844 8.922C207.199 8.80067 207.47 8.628 207.656 8.404C207.843 8.17067 207.936 7.89067 207.936 7.564C207.936 7.26533 207.838 6.99933 207.642 6.766C207.446 6.52333 207.078 6.34133 206.536 6.22L204.366 5.73C203.797 5.59933 203.335 5.422 202.98 5.198C202.635 4.96467 202.383 4.694 202.224 4.386C202.075 4.06867 202 3.728 202 3.364C202 2.86933 202.136 2.41667 202.406 2.006C202.686 1.586 203.083 1.25 203.596 0.998C204.119 0.746 204.735 0.62 205.444 0.62ZM230.075 10H228.885L227.905 7.438H223.719L222.739 10H221.563L225.161 0.76H226.491L230.075 10ZM224.125 6.388H227.499L225.805 1.838L224.125 6.388ZM239.205 0.76V10H237.819L233.955 3.812L232.975 2.076H232.961L233.017 3.476V10H231.953V0.76H233.339L237.189 6.92L238.183 8.698H238.197L238.141 7.284V0.76H239.205ZM245.958 10.14C245.081 10.14 244.32 9.94867 243.676 9.566C243.042 9.174 242.547 8.62333 242.192 7.914C241.847 7.20467 241.674 6.36 241.674 5.38C241.674 4.4 241.856 3.55533 242.22 2.846C242.594 2.13667 243.112 1.59067 243.774 1.208C244.437 0.816 245.198 0.62 246.056 0.62C246.971 0.62 247.713 0.792666 248.282 1.138C248.861 1.48333 249.328 2.01533 249.682 2.734L248.66 3.294C248.455 2.762 248.128 2.36067 247.68 2.09C247.242 1.81 246.7 1.67 246.056 1.67C245.431 1.67 244.876 1.81933 244.39 2.118C243.914 2.40733 243.536 2.832 243.256 3.392C242.986 3.94267 242.85 4.60533 242.85 5.38C242.85 6.15467 242.967 6.822 243.2 7.382C243.443 7.93267 243.798 8.35733 244.264 8.656C244.74 8.94533 245.319 9.09 246 9.09C246.383 9.09 246.738 9.04333 247.064 8.95C247.4 8.84733 247.69 8.698 247.932 8.502C248.184 8.306 248.38 8.05867 248.52 7.76C248.66 7.46133 248.73 7.11133 248.73 6.71V6.388H245.79V5.338H249.752V10H248.87L248.814 8.278L249.052 8.32C248.81 8.89867 248.427 9.34667 247.904 9.664C247.382 9.98133 246.733 10.14 245.958 10.14ZM252.365 10V0.76H258.847V1.81H253.485V4.792H257.657V5.842H253.485V8.95H259.057V10H252.365ZM262.413 8.95H267.705V10H261.293V0.76H262.413V8.95ZM269.66 10V0.76H276.142V1.81H270.78V4.792H274.952V5.842H270.78V8.95H276.352V10H269.66ZM281.556 0.62C282.368 0.62 283.068 0.788 283.656 1.124C284.244 1.45067 284.734 1.936 285.126 2.58L284.188 3.308C283.843 2.71067 283.451 2.29067 283.012 2.048C282.583 1.796 282.06 1.67 281.444 1.67C280.949 1.67 280.539 1.74 280.212 1.88C279.895 2.02 279.661 2.20667 279.512 2.44C279.363 2.664 279.288 2.92067 279.288 3.21C279.288 3.53667 279.391 3.826 279.596 4.078C279.801 4.32067 280.212 4.512 280.828 4.652L282.83 5.1C283.717 5.296 284.333 5.59467 284.678 5.996C285.033 6.388 285.21 6.878 285.21 7.466C285.21 7.98867 285.061 8.45533 284.762 8.866C284.473 9.26733 284.062 9.58 283.53 9.804C282.998 10.028 282.373 10.14 281.654 10.14C280.982 10.14 280.389 10.0513 279.876 9.874C279.372 9.68733 278.938 9.44 278.574 9.132C278.21 8.824 277.911 8.47867 277.678 8.096L278.658 7.298C278.835 7.65267 279.064 7.96533 279.344 8.236C279.624 8.50667 279.96 8.71667 280.352 8.866C280.753 9.01533 281.211 9.09 281.724 9.09C282.2 9.09 282.611 9.034 282.956 8.922C283.311 8.80067 283.581 8.628 283.768 8.404C283.955 8.17067 284.048 7.89067 284.048 7.564C284.048 7.26533 283.95 6.99933 283.754 6.766C283.558 6.52333 283.189 6.34133 282.648 6.22L280.478 5.73C279.909 5.59933 279.447 5.422 279.092 5.198C278.747 4.96467 278.495 4.694 278.336 4.386C278.187 4.06867 278.112 3.728 278.112 3.364C278.112 2.86933 278.247 2.41667 278.518 2.006C278.798 1.586 279.195 1.25 279.708 0.998C280.231 0.746 280.847 0.62 281.556 0.62ZM299.383 10V0.76H302.673C303.765 0.76 304.563 0.988666 305.067 1.446C305.571 1.90333 305.823 2.524 305.823 3.308C305.823 3.77467 305.688 4.19933 305.417 4.582C305.146 4.95533 304.764 5.19333 304.269 5.296V5.31C304.82 5.41267 305.254 5.66467 305.571 6.066C305.898 6.458 306.061 6.906 306.061 7.41C306.061 8.194 305.767 8.824 305.179 9.3C304.591 9.76667 303.751 10 302.659 10H299.383ZM300.503 8.95H302.925C303.588 8.95 304.078 8.81467 304.395 8.544C304.722 8.27333 304.885 7.89533 304.885 7.41C304.885 6.91533 304.722 6.53733 304.395 6.276C304.078 6.00533 303.588 5.87 302.925 5.87H300.503V8.95ZM300.503 4.82H302.687C303.994 4.82 304.647 4.316 304.647 3.308C304.647 2.30933 303.994 1.81 302.687 1.81H300.503V4.82ZM315.757 10H314.567L313.587 7.438H309.401L308.421 10H307.245L310.843 0.76H312.173L315.757 10ZM309.807 6.388H313.181L311.487 1.838L309.807 6.388ZM320.494 0.62C321.306 0.62 322.006 0.788 322.594 1.124C323.182 1.45067 323.672 1.936 324.064 2.58L323.126 3.308C322.78 2.71067 322.388 2.29067 321.95 2.048C321.52 1.796 320.998 1.67 320.382 1.67C319.887 1.67 319.476 1.74 319.15 1.88C318.832 2.02 318.599 2.20667 318.45 2.44C318.3 2.664 318.226 2.92067 318.226 3.21C318.226 3.53667 318.328 3.826 318.534 4.078C318.739 4.32067 319.15 4.512 319.766 4.652L321.768 5.1C322.654 5.296 323.27 5.59467 323.616 5.996C323.97 6.388 324.148 6.878 324.148 7.466C324.148 7.98867 323.998 8.45533 323.7 8.866C323.41 9.26733 323 9.58 322.468 9.804C321.936 10.028 321.31 10.14 320.592 10.14C319.92 10.14 319.327 10.0513 318.814 9.874C318.31 9.68733 317.876 9.44 317.512 9.132C317.148 8.824 316.849 8.47867 316.616 8.096L317.596 7.298C317.773 7.65267 318.002 7.96533 318.282 8.236C318.562 8.50667 318.898 8.71667 319.29 8.866C319.691 9.01533 320.148 9.09 320.662 9.09C321.138 9.09 321.548 9.034 321.894 8.922C322.248 8.80067 322.519 8.628 322.706 8.404C322.892 8.17067 322.986 7.89067 322.986 7.564C322.986 7.26533 322.888 6.99933 322.692 6.766C322.496 6.52333 322.127 6.34133 321.586 6.22L319.416 5.73C318.846 5.59933 318.384 5.422 318.03 5.198C317.684 4.96467 317.432 4.694 317.274 4.386C317.124 4.06867 317.05 3.728 317.05 3.364C317.05 2.86933 317.185 2.41667 317.456 2.006C317.736 1.586 318.132 1.25 318.646 0.998C319.168 0.746 319.784 0.62 320.494 0.62ZM326.494 10V0.76H332.976V1.81H327.614V4.792H331.786V5.842H327.614V8.95H333.186V10H326.494ZM338.404 0.76C339.851 0.76 340.985 1.16133 341.806 1.964C342.637 2.75733 343.052 3.896 343.052 5.38C343.052 6.864 342.637 8.00733 341.806 8.81C340.985 9.60333 339.851 10 338.404 10H335.422V0.76H338.404ZM338.516 8.95C339.571 8.95 340.392 8.63733 340.98 8.012C341.577 7.37733 341.876 6.5 341.876 5.38C341.876 4.26 341.577 3.38733 340.98 2.762C340.392 2.12733 339.571 1.81 338.516 1.81H336.542V8.95H338.516ZM8.96 24.634C8.764 25.1567 8.484 25.6093 8.12 25.992C7.756 26.3653 7.32667 26.65 6.832 26.846C6.34667 27.042 5.81467 27.14 5.236 27.14C4.35867 27.14 3.598 26.9487 2.954 26.566C2.31933 26.174 1.82467 25.6233 1.47 24.914C1.12467 24.2047 0.952 23.36 0.952 22.38C0.952 21.4 1.12467 20.5553 1.47 19.846C1.82467 19.1367 2.31933 18.5907 2.954 18.208C3.598 17.816 4.34933 17.62 5.208 17.62C5.80533 17.62 6.33733 17.704 6.804 17.872C7.27067 18.0307 7.66733 18.2733 7.994 18.6C8.33 18.9173 8.596 19.3093 8.792 19.776L7.686 20.294C7.48067 19.762 7.182 19.3607 6.79 19.09C6.40733 18.81 5.908 18.67 5.292 18.67C4.66667 18.67 4.116 18.8193 3.64 19.118C3.164 19.4073 2.79067 19.8273 2.52 20.378C2.25867 20.9287 2.128 21.596 2.128 22.38C2.128 23.1547 2.254 23.822 2.506 24.382C2.758 24.9327 3.11733 25.3573 3.584 25.656C4.05067 25.9453 4.60133 26.09 5.236 26.09C5.852 26.09 6.38867 25.936 6.846 25.628C7.30333 25.3107 7.63467 24.8393 7.84 24.214L8.96 24.634ZM14.6097 17.76C15.5523 17.76 16.3083 18.0027 16.8777 18.488C17.447 18.9733 17.7317 19.6313 17.7317 20.462C17.7317 21.2927 17.4423 21.9413 16.8637 22.408C16.2943 22.8653 15.5383 23.094 14.5957 23.094L14.4977 23.164H12.2297V27H11.1097V17.76H14.6097ZM14.5957 22.114C15.2583 22.114 15.7483 21.9787 16.0657 21.708C16.3923 21.428 16.5557 21.0127 16.5557 20.462C16.5557 19.9113 16.3923 19.5007 16.0657 19.23C15.7483 18.95 15.2583 18.81 14.5957 18.81H12.2297V22.114H14.5957ZM15.2397 22.338L18.2917 27H16.9617L14.3017 22.954L15.2397 22.338ZM20.4202 27V17.76H26.9022V18.81H21.5402V21.792H25.7122V22.842H21.5402V25.95H27.1122V27H20.4202ZM36.7119 27H35.5219L34.5419 24.438H30.3559L29.3759 27H28.1999L31.7979 17.76H33.1279L36.7119 27ZM30.7619 23.388H34.1359L32.4419 18.838L30.7619 23.388ZM43.8283 17.76V18.81H40.6083V27H39.4883V18.81H36.2683V17.76H43.8283ZM46.9015 17.76V27H45.7815V17.76H46.9015ZM57.0921 17.76L53.5921 27H52.3181L48.8041 17.76H50.0081L52.3601 24.144L52.9481 25.978L53.5361 24.158L55.8881 17.76H57.0921ZM59.0022 27V17.76H65.4842V18.81H60.1222V21.792H64.2942V22.842H60.1222V25.95H65.6942V27H59.0022ZM76.259 25.95H81.551V27H75.139V17.76H76.259V25.95ZM90.8701 27H89.6801L88.7001 24.438H84.5141L83.5341 27H82.3581L85.9561 17.76H87.2861L90.8701 27ZM84.9201 23.388H88.2941L86.6001 18.838L84.9201 23.388ZM92.7483 27V17.76H96.0383C97.1303 17.76 97.9283 17.9887 98.4323 18.446C98.9363 18.9033 99.1883 19.524 99.1883 20.308C99.1883 20.7747 99.053 21.1993 98.7823 21.582C98.5117 21.9553 98.129 22.1933 97.6343 22.296V22.31C98.185 22.4127 98.619 22.6647 98.9363 23.066C99.263 23.458 99.4263 23.906 99.4263 24.41C99.4263 25.194 99.1323 25.824 98.5443 26.3C97.9563 26.7667 97.1163 27 96.0243 27H92.7483ZM93.8683 25.95H96.2903C96.953 25.95 97.443 25.8147 97.7603 25.544C98.087 25.2733 98.2503 24.8953 98.2503 24.41C98.2503 23.9153 98.087 23.5373 97.7603 23.276C97.443 23.0053 96.953 22.87 96.2903 22.87H93.8683V25.95ZM93.8683 21.82H96.0523C97.359 21.82 98.0123 21.316 98.0123 20.308C98.0123 19.3093 97.359 18.81 96.0523 18.81H93.8683V21.82ZM105.619 17.62C106.496 17.62 107.252 17.816 107.887 18.208C108.531 18.5907 109.025 19.1367 109.371 19.846C109.725 20.5553 109.903 21.4 109.903 22.38C109.903 23.36 109.725 24.2047 109.371 24.914C109.025 25.6233 108.531 26.174 107.887 26.566C107.252 26.9487 106.496 27.14 105.619 27.14C104.741 27.14 103.981 26.9487 103.337 26.566C102.702 26.174 102.207 25.6233 101.853 24.914C101.507 24.2047 101.335 23.36 101.335 22.38C101.335 21.4 101.507 20.5553 101.853 19.846C102.207 19.1367 102.702 18.5907 103.337 18.208C103.981 17.816 104.741 17.62 105.619 17.62ZM105.619 18.67C104.984 18.67 104.433 18.8193 103.967 19.118C103.5 19.4073 103.141 19.832 102.889 20.392C102.637 20.9427 102.511 21.6053 102.511 22.38C102.511 23.1547 102.637 23.822 102.889 24.382C103.141 24.9327 103.5 25.3573 103.967 25.656C104.433 25.9453 104.984 26.09 105.619 26.09C106.263 26.09 106.813 25.9453 107.271 25.656C107.737 25.3573 108.097 24.9327 108.349 24.382C108.601 23.822 108.727 23.1547 108.727 22.38C108.727 21.6053 108.601 20.9427 108.349 20.392C108.097 19.832 107.737 19.4073 107.271 19.118C106.813 18.8193 106.263 18.67 105.619 18.67ZM115.867 17.76C116.81 17.76 117.566 18.0027 118.135 18.488C118.705 18.9733 118.989 19.6313 118.989 20.462C118.989 21.2927 118.7 21.9413 118.121 22.408C117.552 22.8653 116.796 23.094 115.853 23.094L115.755 23.164H113.487V27H112.367V17.76H115.867ZM115.853 22.114C116.516 22.114 117.006 21.9787 117.323 21.708C117.65 21.428 117.813 21.0127 117.813 20.462C117.813 19.9113 117.65 19.5007 117.323 19.23C117.006 18.95 116.516 18.81 115.853 18.81H113.487V22.114H115.853ZM116.497 22.338L119.549 27H118.219L115.559 22.954L116.497 22.338ZM129.042 27H127.852L126.872 24.438H122.686L121.706 27H120.53L124.128 17.76H125.458L129.042 27ZM123.092 23.388H126.466L124.772 18.838L123.092 23.388ZM136.158 17.76V18.81H132.938V27H131.818V18.81H128.598V17.76H136.158ZM141.521 17.62C142.398 17.62 143.154 17.816 143.789 18.208C144.433 18.5907 144.928 19.1367 145.273 19.846C145.628 20.5553 145.805 21.4 145.805 22.38C145.805 23.36 145.628 24.2047 145.273 24.914C144.928 25.6233 144.433 26.174 143.789 26.566C143.154 26.9487 142.398 27.14 141.521 27.14C140.644 27.14 139.883 26.9487 139.239 26.566C138.604 26.174 138.11 25.6233 137.755 24.914C137.41 24.2047 137.237 23.36 137.237 22.38C137.237 21.4 137.41 20.5553 137.755 19.846C138.11 19.1367 138.604 18.5907 139.239 18.208C139.883 17.816 140.644 17.62 141.521 17.62ZM141.521 18.67C140.886 18.67 140.336 18.8193 139.869 19.118C139.402 19.4073 139.043 19.832 138.791 20.392C138.539 20.9427 138.413 21.6053 138.413 22.38C138.413 23.1547 138.539 23.822 138.791 24.382C139.043 24.9327 139.402 25.3573 139.869 25.656C140.336 25.9453 140.886 26.09 141.521 26.09C142.165 26.09 142.716 25.9453 143.173 25.656C143.64 25.3573 143.999 24.9327 144.251 24.382C144.503 23.822 144.629 23.1547 144.629 22.38C144.629 21.6053 144.503 20.9427 144.251 20.392C143.999 19.832 143.64 19.4073 143.173 19.118C142.716 18.8193 142.165 18.67 141.521 18.67ZM151.77 17.76C152.712 17.76 153.468 18.0027 154.038 18.488C154.607 18.9733 154.892 19.6313 154.892 20.462C154.892 21.2927 154.602 21.9413 154.024 22.408C153.454 22.8653 152.698 23.094 151.756 23.094L151.658 23.164H149.39V27H148.27V17.76H151.77ZM151.756 22.114C152.418 22.114 152.908 21.9787 153.226 21.708C153.552 21.428 153.716 21.0127 153.716 20.462C153.716 19.9113 153.552 19.5007 153.226 19.23C152.908 18.95 152.418 18.81 151.756 18.81H149.39V22.114H151.756ZM152.4 22.338L155.452 27H154.122L151.462 22.954L152.4 22.338ZM163.622 17.76L160.318 23.388V27H159.198V23.388L155.894 17.76H157.224L159.016 20.924L159.758 22.24L160.5 20.924L162.292 17.76H163.622ZM171.899 27V17.76H178.381V18.81H173.019V21.792H177.191V22.842H173.019V25.95H178.591V27H171.899ZM187.28 27H185.992L183.486 23.192L180.966 27H179.664L182.898 22.296L179.944 17.76H181.26L183.598 21.358L185.964 17.76H187.182L184.186 22.24L187.28 27ZM192.497 17.76C193.122 17.76 193.663 17.8767 194.121 18.11C194.587 18.334 194.951 18.656 195.213 19.076C195.474 19.496 195.605 19.9953 195.605 20.574C195.605 21.1527 195.474 21.652 195.213 22.072C194.951 22.492 194.587 22.8187 194.121 23.052C193.663 23.276 193.122 23.388 192.497 23.388H190.355V27H189.235V17.76H192.497ZM192.329 22.338C193.057 22.338 193.589 22.1887 193.925 21.89C194.261 21.582 194.429 21.1433 194.429 20.574C194.429 19.9953 194.261 19.5567 193.925 19.258C193.589 18.9593 193.057 18.81 192.329 18.81H190.355V22.338H192.329ZM198.9 25.95H204.192V27H197.78V17.76H198.9V25.95ZM209.543 17.62C210.42 17.62 211.176 17.816 211.811 18.208C212.455 18.5907 212.949 19.1367 213.295 19.846C213.649 20.5553 213.827 21.4 213.827 22.38C213.827 23.36 213.649 24.2047 213.295 24.914C212.949 25.6233 212.455 26.174 211.811 26.566C211.176 26.9487 210.42 27.14 209.543 27.14C208.665 27.14 207.905 26.9487 207.261 26.566C206.626 26.174 206.131 25.6233 205.777 24.914C205.431 24.2047 205.259 23.36 205.259 22.38C205.259 21.4 205.431 20.5553 205.777 19.846C206.131 19.1367 206.626 18.5907 207.261 18.208C207.905 17.816 208.665 17.62 209.543 17.62ZM209.543 18.67C208.908 18.67 208.357 18.8193 207.891 19.118C207.424 19.4073 207.065 19.832 206.813 20.392C206.561 20.9427 206.435 21.6053 206.435 22.38C206.435 23.1547 206.561 23.822 206.813 24.382C207.065 24.9327 207.424 25.3573 207.891 25.656C208.357 25.9453 208.908 26.09 209.543 26.09C210.187 26.09 210.737 25.9453 211.195 25.656C211.661 25.3573 212.021 24.9327 212.273 24.382C212.525 23.822 212.651 23.1547 212.651 22.38C212.651 21.6053 212.525 20.9427 212.273 20.392C212.021 19.832 211.661 19.4073 211.195 19.118C210.737 18.8193 210.187 18.67 209.543 18.67ZM219.791 17.76C220.734 17.76 221.49 18.0027 222.059 18.488C222.629 18.9733 222.913 19.6313 222.913 20.462C222.913 21.2927 222.624 21.9413 222.045 22.408C221.476 22.8653 220.72 23.094 219.777 23.094L219.679 23.164H217.411V27H216.291V17.76H219.791ZM219.777 22.114C220.44 22.114 220.93 21.9787 221.247 21.708C221.574 21.428 221.737 21.0127 221.737 20.462C221.737 19.9113 221.574 19.5007 221.247 19.23C220.93 18.95 220.44 18.81 219.777 18.81H217.411V22.114H219.777ZM220.421 22.338L223.473 27H222.143L219.483 22.954L220.421 22.338ZM226.722 17.76V27H225.602V17.76H226.722ZM236.996 17.76V27H235.61L231.746 20.812L230.766 19.076H230.752L230.808 20.476V27H229.744V17.76H231.13L234.98 23.92L235.974 25.698H235.988L235.932 24.284V17.76H236.996ZM243.75 27.14C242.872 27.14 242.112 26.9487 241.468 26.566C240.833 26.174 240.338 25.6233 239.984 24.914C239.638 24.2047 239.466 23.36 239.466 22.38C239.466 21.4 239.648 20.5553 240.012 19.846C240.385 19.1367 240.903 18.5907 241.566 18.208C242.228 17.816 242.989 17.62 243.848 17.62C244.762 17.62 245.504 17.7927 246.074 18.138C246.652 18.4833 247.119 19.0153 247.474 19.734L246.452 20.294C246.246 19.762 245.92 19.3607 245.472 19.09C245.033 18.81 244.492 18.67 243.848 18.67C243.222 18.67 242.667 18.8193 242.182 19.118C241.706 19.4073 241.328 19.832 241.048 20.392C240.777 20.9427 240.642 21.6053 240.642 22.38C240.642 23.1547 240.758 23.822 240.992 24.382C241.234 24.9327 241.589 25.3573 242.056 25.656C242.532 25.9453 243.11 26.09 243.792 26.09C244.174 26.09 244.529 26.0433 244.856 25.95C245.192 25.8473 245.481 25.698 245.724 25.502C245.976 25.306 246.172 25.0587 246.312 24.76C246.452 24.4613 246.522 24.1113 246.522 23.71V23.388H243.582V22.338H247.544V27H246.662L246.606 25.278L246.844 25.32C246.601 25.8987 246.218 26.3467 245.696 26.664C245.173 26.9813 244.524 27.14 243.75 27.14ZM263.479 17.76V18.81H260.259V27H259.139V18.81H255.919V17.76H263.479ZM272.684 17.76V27H271.564V17.76H272.684ZM266.552 17.76V27H265.432V17.76H266.552ZM272.082 21.792V22.842H266.02V21.792H272.082ZM275.713 27V17.76H282.195V18.81H276.833V21.792H281.005V22.842H276.833V25.95H282.405V27H275.713ZM294.818 17.62C295.63 17.62 296.33 17.788 296.918 18.124C297.506 18.4507 297.996 18.936 298.388 19.58L297.45 20.308C297.105 19.7107 296.713 19.2907 296.274 19.048C295.845 18.796 295.322 18.67 294.706 18.67C294.211 18.67 293.801 18.74 293.474 18.88C293.157 19.02 292.923 19.2067 292.774 19.44C292.625 19.664 292.55 19.9207 292.55 20.21C292.55 20.5367 292.653 20.826 292.858 21.078C293.063 21.3207 293.474 21.512 294.09 21.652L296.092 22.1C296.979 22.296 297.595 22.5947 297.94 22.996C298.295 23.388 298.472 23.878 298.472 24.466C298.472 24.9887 298.323 25.4553 298.024 25.866C297.735 26.2673 297.324 26.58 296.792 26.804C296.26 27.028 295.635 27.14 294.916 27.14C294.244 27.14 293.651 27.0513 293.138 26.874C292.634 26.6873 292.2 26.44 291.836 26.132C291.472 25.824 291.173 25.4787 290.94 25.096L291.92 24.298C292.097 24.6527 292.326 24.9653 292.606 25.236C292.886 25.5067 293.222 25.7167 293.614 25.866C294.015 26.0153 294.473 26.09 294.986 26.09C295.462 26.09 295.873 26.034 296.218 25.922C296.573 25.8007 296.843 25.628 297.03 25.404C297.217 25.1707 297.31 24.8907 297.31 24.564C297.31 24.2653 297.212 23.9993 297.016 23.766C296.82 23.5233 296.451 23.3413 295.91 23.22L293.74 22.73C293.171 22.5993 292.709 22.422 292.354 22.198C292.009 21.9647 291.757 21.694 291.598 21.386C291.449 21.0687 291.374 20.728 291.374 20.364C291.374 19.8693 291.509 19.4167 291.78 19.006C292.06 18.586 292.457 18.25 292.97 17.998C293.493 17.746 294.109 17.62 294.818 17.62ZM307.889 17.76V23.556C307.889 24.7413 307.576 25.6373 306.951 26.244C306.325 26.8413 305.429 27.14 304.263 27.14C303.105 27.14 302.209 26.8413 301.575 26.244C300.949 25.6373 300.637 24.7413 300.637 23.556V17.76H301.757V23.276C301.757 24.2373 301.957 24.9467 302.359 25.404C302.769 25.8613 303.404 26.09 304.263 26.09C305.121 26.09 305.751 25.8613 306.153 25.404C306.563 24.9467 306.769 24.2373 306.769 23.276V17.76H307.889ZM310.731 27V17.76H314.021C315.113 17.76 315.911 17.9887 316.415 18.446C316.919 18.9033 317.171 19.524 317.171 20.308C317.171 20.7747 317.035 21.1993 316.765 21.582C316.494 21.9553 316.111 22.1933 315.617 22.296V22.31C316.167 22.4127 316.601 22.6647 316.919 23.066C317.245 23.458 317.409 23.906 317.409 24.41C317.409 25.194 317.115 25.824 316.527 26.3C315.939 26.7667 315.099 27 314.007 27H310.731ZM311.851 25.95H314.273C314.935 25.95 315.425 25.8147 315.743 25.544C316.069 25.2733 316.233 24.8953 316.233 24.41C316.233 23.9153 316.069 23.5373 315.743 23.276C315.425 23.0053 314.935 22.87 314.273 22.87H311.851V25.95ZM311.851 21.82H314.035C315.341 21.82 315.995 21.316 315.995 20.308C315.995 19.3093 315.341 18.81 314.035 18.81H311.851V21.82ZM326.264 17.76V18.81H323.044V27H321.924V18.81H318.704V17.76H326.264ZM329.337 25.95H334.629V27H328.217V17.76H329.337V25.95ZM336.584 27V17.76H343.066V18.81H337.704V21.792H341.876V22.842H337.704V25.95H343.276V27H336.584ZM8.876 44H7.686L6.706 41.438H2.52L1.54 44H0.364L3.962 34.76H5.292L8.876 44ZM2.926 40.388H6.3L4.606 35.838L2.926 40.388ZM14.2542 34.76C15.1969 34.76 15.9529 35.0027 16.5222 35.488C17.0915 35.9733 17.3762 36.6313 17.3762 37.462C17.3762 38.2927 17.0869 38.9413 16.5082 39.408C15.9389 39.8653 15.1829 40.094 14.2402 40.094L14.1422 40.164H11.8742V44H10.7542V34.76H14.2542ZM14.2402 39.114C14.9029 39.114 15.3929 38.9787 15.7102 38.708C16.0369 38.428 16.2002 38.0127 16.2002 37.462C16.2002 36.9113 16.0369 36.5007 15.7102 36.23C15.3929 35.95 14.9029 35.81 14.2402 35.81H11.8742V39.114H14.2402ZM14.8842 39.338L17.9362 44H16.6062L13.9462 39.954L14.8842 39.338ZM26.2873 34.76V35.81H23.0673V44H21.9473V35.81H18.7273V34.76H26.2873ZM46.6691 34.62C47.5464 34.62 48.3024 34.816 48.9371 35.208C49.5811 35.5907 50.0758 36.1367 50.4211 36.846C50.7758 37.5553 50.9531 38.4 50.9531 39.38C50.9531 40.36 50.7758 41.2047 50.4211 41.914C50.0758 42.6233 49.5811 43.174 48.9371 43.566C48.3024 43.9487 47.5464 44.14 46.6691 44.14C45.7918 44.14 45.0311 43.9487 44.3871 43.566C43.7524 43.174 43.2578 42.6233 42.9031 41.914C42.5578 41.2047 42.3851 40.36 42.3851 39.38C42.3851 38.4 42.5578 37.5553 42.9031 36.846C43.2578 36.1367 43.7524 35.5907 44.3871 35.208C45.0311 34.816 45.7918 34.62 46.6691 34.62ZM46.6691 35.67C46.0344 35.67 45.4838 35.8193 45.0171 36.118C44.5504 36.4073 44.1911 36.832 43.9391 37.392C43.6871 37.9427 43.5611 38.6053 43.5611 39.38C43.5611 40.1547 43.6871 40.822 43.9391 41.382C44.1911 41.9327 44.5504 42.3573 45.0171 42.656C45.4838 42.9453 46.0344 43.09 46.6691 43.09C47.3131 43.09 47.8638 42.9453 48.3211 42.656C48.7878 42.3573 49.1471 41.9327 49.3991 41.382C49.6511 40.822 49.7771 40.1547 49.7771 39.38C49.7771 38.6053 49.6511 37.9427 49.3991 37.392C49.1471 36.832 48.7878 36.4073 48.3211 36.118C47.8638 35.8193 47.3131 35.67 46.6691 35.67ZM59.8858 35.81H54.5378V38.792H58.7098V39.842H54.5378V44H53.4178V34.76H59.8858V35.81ZM82.8351 34.76V35.81H79.6151V44H78.4951V35.81H75.2751V34.76H82.8351ZM88.2884 34.76C89.231 34.76 89.987 35.0027 90.5564 35.488C91.1257 35.9733 91.4104 36.6313 91.4104 37.462C91.4104 38.2927 91.121 38.9413 90.5424 39.408C89.973 39.8653 89.217 40.094 88.2744 40.094L88.1764 40.164H85.9084V44H84.7884V34.76H88.2884ZM88.2744 39.114C88.937 39.114 89.427 38.9787 89.7444 38.708C90.071 38.428 90.2344 38.0127 90.2344 37.462C90.2344 36.9113 90.071 36.5007 89.7444 36.23C89.427 35.95 88.937 35.81 88.2744 35.81H85.9084V39.114H88.2744ZM88.9184 39.338L91.9704 44H90.6404L87.9804 39.954L88.9184 39.338ZM101.463 44H100.273L99.2929 41.438H95.1069L94.1269 44H92.9509L96.5489 34.76H97.8789L101.463 44ZM95.5129 40.388H98.8869L97.1929 35.838L95.5129 40.388ZM110.593 34.76V44H109.207L105.343 37.812L104.363 36.076H104.349L104.405 37.476V44H103.341V34.76H104.727L108.577 40.92L109.571 42.698H109.585L109.529 41.284V34.76H110.593ZM116.59 34.62C117.402 34.62 118.102 34.788 118.69 35.124C119.278 35.4507 119.768 35.936 120.16 36.58L119.222 37.308C118.877 36.7107 118.485 36.2907 118.046 36.048C117.617 35.796 117.094 35.67 116.478 35.67C115.984 35.67 115.573 35.74 115.246 35.88C114.929 36.02 114.696 36.2067 114.546 36.44C114.397 36.664 114.322 36.9207 114.322 37.21C114.322 37.5367 114.425 37.826 114.63 38.078C114.836 38.3207 115.246 38.512 115.862 38.652L117.864 39.1C118.751 39.296 119.367 39.5947 119.712 39.996C120.067 40.388 120.244 40.878 120.244 41.466C120.244 41.9887 120.095 42.4553 119.796 42.866C119.507 43.2673 119.096 43.58 118.564 43.804C118.032 44.028 117.407 44.14 116.688 44.14C116.016 44.14 115.424 44.0513 114.91 43.874C114.406 43.6873 113.972 43.44 113.608 43.132C113.244 42.824 112.946 42.4787 112.712 42.096L113.692 41.298C113.87 41.6527 114.098 41.9653 114.378 42.236C114.658 42.5067 114.994 42.7167 115.386 42.866C115.788 43.0153 116.245 43.09 116.758 43.09C117.234 43.09 117.645 43.034 117.99 42.922C118.345 42.8007 118.616 42.628 118.802 42.404C118.989 42.1707 119.082 41.8907 119.082 41.564C119.082 41.2653 118.984 40.9993 118.788 40.766C118.592 40.5233 118.224 40.3413 117.682 40.22L115.512 39.73C114.943 39.5993 114.481 39.422 114.126 39.198C113.781 38.9647 113.529 38.694 113.37 38.386C113.221 38.0687 113.146 37.728 113.146 37.364C113.146 36.8693 113.282 36.4167 113.552 36.006C113.832 35.586 114.229 35.25 114.742 34.998C115.265 34.746 115.881 34.62 116.59 34.62ZM129.059 35.81H123.711V38.792H127.883V39.842H123.711V44H122.591V34.76H129.059V35.81ZM134.696 34.62C135.573 34.62 136.329 34.816 136.964 35.208C137.608 35.5907 138.103 36.1367 138.448 36.846C138.803 37.5553 138.98 38.4 138.98 39.38C138.98 40.36 138.803 41.2047 138.448 41.914C138.103 42.6233 137.608 43.174 136.964 43.566C136.329 43.9487 135.573 44.14 134.696 44.14C133.819 44.14 133.058 43.9487 132.414 43.566C131.779 43.174 131.285 42.6233 130.93 41.914C130.585 41.2047 130.412 40.36 130.412 39.38C130.412 38.4 130.585 37.5553 130.93 36.846C131.285 36.1367 131.779 35.5907 132.414 35.208C133.058 34.816 133.819 34.62 134.696 34.62ZM134.696 35.67C134.061 35.67 133.511 35.8193 133.044 36.118C132.577 36.4073 132.218 36.832 131.966 37.392C131.714 37.9427 131.588 38.6053 131.588 39.38C131.588 40.1547 131.714 40.822 131.966 41.382C132.218 41.9327 132.577 42.3573 133.044 42.656C133.511 42.9453 134.061 43.09 134.696 43.09C135.34 43.09 135.891 42.9453 136.348 42.656C136.815 42.3573 137.174 41.9327 137.426 41.382C137.678 40.822 137.804 40.1547 137.804 39.38C137.804 38.6053 137.678 37.9427 137.426 37.392C137.174 36.832 136.815 36.4073 136.348 36.118C135.891 35.8193 135.34 35.67 134.696 35.67ZM144.945 34.76C145.887 34.76 146.643 35.0027 147.213 35.488C147.782 35.9733 148.067 36.6313 148.067 37.462C148.067 38.2927 147.777 38.9413 147.199 39.408C146.629 39.8653 145.873 40.094 144.931 40.094L144.833 40.164H142.565V44H141.445V34.76H144.945ZM144.931 39.114C145.593 39.114 146.083 38.9787 146.401 38.708C146.727 38.428 146.891 38.0127 146.891 37.462C146.891 36.9113 146.727 36.5007 146.401 36.23C146.083 35.95 145.593 35.81 144.931 35.81H142.565V39.114H144.931ZM145.575 39.338L148.627 44H147.297L144.637 39.954L145.575 39.338ZM159.687 34.76V44H158.623V38.19L158.749 35.754H158.735L155.697 44H154.745L151.707 35.754H151.693L151.819 38.19V44H150.755V34.76H152.477L154.507 40.374L155.207 42.684H155.235L155.949 40.388L157.965 34.76H159.687ZM170.068 44H168.878L167.898 41.438H163.712L162.732 44H161.556L165.154 34.76H166.484L170.068 44ZM164.118 40.388H167.492L165.798 35.838L164.118 40.388ZM177.185 34.76V35.81H173.965V44H172.845V35.81H169.625V34.76H177.185ZM180.258 34.76V44H179.138V34.76H180.258ZM187.005 34.62C187.882 34.62 188.638 34.816 189.273 35.208C189.917 35.5907 190.411 36.1367 190.757 36.846C191.111 37.5553 191.289 38.4 191.289 39.38C191.289 40.36 191.111 41.2047 190.757 41.914C190.411 42.6233 189.917 43.174 189.273 43.566C188.638 43.9487 187.882 44.14 187.005 44.14C186.127 44.14 185.367 43.9487 184.723 43.566C184.088 43.174 183.593 42.6233 183.239 41.914C182.893 41.2047 182.721 40.36 182.721 39.38C182.721 38.4 182.893 37.5553 183.239 36.846C183.593 36.1367 184.088 35.5907 184.723 35.208C185.367 34.816 186.127 34.62 187.005 34.62ZM187.005 35.67C186.37 35.67 185.819 35.8193 185.353 36.118C184.886 36.4073 184.527 36.832 184.275 37.392C184.023 37.9427 183.897 38.6053 183.897 39.38C183.897 40.1547 184.023 40.822 184.275 41.382C184.527 41.9327 184.886 42.3573 185.353 42.656C185.819 42.9453 186.37 43.09 187.005 43.09C187.649 43.09 188.199 42.9453 188.657 42.656C189.123 42.3573 189.483 41.9327 189.735 41.382C189.987 40.822 190.113 40.1547 190.113 39.38C190.113 38.6053 189.987 37.9427 189.735 37.392C189.483 36.832 189.123 36.4073 188.657 36.118C188.199 35.8193 187.649 35.67 187.005 35.67ZM201.005 34.76V44H199.619L195.755 37.812L194.775 36.076H194.761L194.817 37.476V44H193.753V34.76H195.139L198.989 40.92L199.983 42.698H199.997L199.941 41.284V34.76H201.005ZM204.384 42.32C204.655 42.32 204.874 42.404 205.042 42.572C205.21 42.74 205.294 42.9593 205.294 43.23C205.294 43.5007 205.21 43.72 205.042 43.888C204.874 44.056 204.655 44.14 204.384 44.14C204.114 44.14 203.894 44.056 203.726 43.888C203.558 43.72 203.474 43.5007 203.474 43.23C203.474 42.9593 203.558 42.74 203.726 42.572C203.894 42.404 204.114 42.32 204.384 42.32ZM230.093 34.76V44H228.973V34.76H230.093ZM223.961 34.76V44H222.841V34.76H223.961ZM229.491 38.792V39.842H223.429V38.792H229.491ZM233.122 44V34.76H239.604V35.81H234.242V38.792H238.414V39.842H234.242V42.95H239.814V44H233.122ZM245.55 34.76C246.492 34.76 247.248 35.0027 247.818 35.488C248.387 35.9733 248.672 36.6313 248.672 37.462C248.672 38.2927 248.382 38.9413 247.804 39.408C247.234 39.8653 246.478 40.094 245.536 40.094L245.438 40.164H243.17V44H242.05V34.76H245.55ZM245.536 39.114C246.198 39.114 246.688 38.9787 247.006 38.708C247.332 38.428 247.496 38.0127 247.496 37.462C247.496 36.9113 247.332 36.5007 247.006 36.23C246.688 35.95 246.198 35.81 245.536 35.81H243.17V39.114H245.536ZM246.18 39.338L249.232 44H247.902L245.242 39.954L246.18 39.338ZM251.36 44V34.76H257.842V35.81H252.48V38.792H256.652V39.842H252.48V42.95H258.052V44H251.36ZM260.638 42.32C260.862 42.32 261.049 42.3807 261.198 42.502C261.357 42.614 261.478 42.7727 261.562 42.978C261.646 43.174 261.688 43.4073 261.688 43.678C261.688 43.986 261.632 44.2893 261.52 44.588C261.417 44.8867 261.254 45.162 261.03 45.414C260.806 45.666 260.517 45.876 260.162 46.044L259.574 45.498C259.826 45.414 260.045 45.2973 260.232 45.148C260.428 44.9987 260.587 44.8307 260.708 44.644C260.829 44.4573 260.909 44.266 260.946 44.07L260.89 44.042C260.853 44.07 260.806 44.0933 260.75 44.112C260.694 44.1307 260.61 44.14 260.498 44.14C260.386 44.14 260.269 44.1073 260.148 44.042C260.036 43.9767 259.938 43.8833 259.854 43.762C259.77 43.6313 259.728 43.4633 259.728 43.258C259.728 43.09 259.77 42.936 259.854 42.796C259.938 42.6467 260.045 42.53 260.176 42.446C260.316 42.362 260.47 42.32 260.638 42.32ZM286.542 41.634C286.346 42.1567 286.066 42.6093 285.702 42.992C285.338 43.3653 284.909 43.65 284.414 43.846C283.929 44.042 283.397 44.14 282.818 44.14C281.941 44.14 281.18 43.9487 280.536 43.566C279.901 43.174 279.407 42.6233 279.052 41.914C278.707 41.2047 278.534 40.36 278.534 39.38C278.534 38.4 278.707 37.5553 279.052 36.846C279.407 36.1367 279.901 35.5907 280.536 35.208C281.18 34.816 281.931 34.62 282.79 34.62C283.387 34.62 283.919 34.704 284.386 34.872C284.853 35.0307 285.249 35.2733 285.576 35.6C285.912 35.9173 286.178 36.3093 286.374 36.776L285.268 37.294C285.063 36.762 284.764 36.3607 284.372 36.09C283.989 35.81 283.49 35.67 282.874 35.67C282.249 35.67 281.698 35.8193 281.222 36.118C280.746 36.4073 280.373 36.8273 280.102 37.378C279.841 37.9287 279.71 38.596 279.71 39.38C279.71 40.1547 279.836 40.822 280.088 41.382C280.34 41.9327 280.699 42.3573 281.166 42.656C281.633 42.9453 282.183 43.09 282.818 43.09C283.434 43.09 283.971 42.936 284.428 42.628C284.885 42.3107 285.217 41.8393 285.422 41.214L286.542 41.634ZM292.192 34.76C293.134 34.76 293.89 35.0027 294.46 35.488C295.029 35.9733 295.314 36.6313 295.314 37.462C295.314 38.2927 295.024 38.9413 294.446 39.408C293.876 39.8653 293.12 40.094 292.178 40.094L292.08 40.164H289.812V44H288.692V34.76H292.192ZM292.178 39.114C292.84 39.114 293.33 38.9787 293.648 38.708C293.974 38.428 294.138 38.0127 294.138 37.462C294.138 36.9113 293.974 36.5007 293.648 36.23C293.33 35.95 292.84 35.81 292.178 35.81H289.812V39.114H292.178ZM292.822 39.338L295.874 44H294.544L291.884 39.954L292.822 39.338ZM298.002 44V34.76H304.484V35.81H299.122V38.792H303.294V39.842H299.122V42.95H304.694V44H298.002ZM314.294 44H313.104L312.124 41.438H307.938L306.958 44H305.782L309.38 34.76H310.71L314.294 44ZM308.344 40.388H311.718L310.024 35.838L308.344 40.388ZM321.41 34.76V35.81H318.19V44H317.07V35.81H313.85V34.76H321.41ZM324.484 34.76V44H323.364V34.76H324.484ZM334.674 34.76L331.174 44H329.9L326.386 34.76H327.59L329.942 41.144L330.53 42.978L331.118 41.158L333.47 34.76H334.674ZM336.584 44V34.76H343.066V35.81H337.704V38.792H341.876V39.842H337.704V42.95H343.276V44H336.584ZM8.96 58.634C8.764 59.1567 8.484 59.6093 8.12 59.992C7.756 60.3653 7.32667 60.65 6.832 60.846C6.34667 61.042 5.81467 61.14 5.236 61.14C4.35867 61.14 3.598 60.9487 2.954 60.566C2.31933 60.174 1.82467 59.6233 1.47 58.914C1.12467 58.2047 0.952 57.36 0.952 56.38C0.952 55.4 1.12467 54.5553 1.47 53.846C1.82467 53.1367 2.31933 52.5907 2.954 52.208C3.598 51.816 4.34933 51.62 5.208 51.62C5.80533 51.62 6.33733 51.704 6.804 51.872C7.27067 52.0307 7.66733 52.2733 7.994 52.6C8.33 52.9173 8.596 53.3093 8.792 53.776L7.686 54.294C7.48067 53.762 7.182 53.3607 6.79 53.09C6.40733 52.81 5.908 52.67 5.292 52.67C4.66667 52.67 4.116 52.8193 3.64 53.118C3.164 53.4073 2.79067 53.8273 2.52 54.378C2.25867 54.9287 2.128 55.596 2.128 56.38C2.128 57.1547 2.254 57.822 2.506 58.382C2.758 58.9327 3.11733 59.3573 3.584 59.656C4.05067 59.9453 4.60133 60.09 5.236 60.09C5.852 60.09 6.38867 59.936 6.846 59.628C7.30333 59.3107 7.63467 58.8393 7.84 58.214L8.96 58.634ZM18.3617 51.76V61H17.2417V51.76H18.3617ZM12.2297 51.76V61H11.1097V51.76H12.2297ZM17.7597 55.792V56.842H11.6977V55.792H17.7597ZM28.7549 61H27.5649L26.5849 58.438H22.3989L21.4189 61H20.2429L23.8409 51.76H25.1709L28.7549 61ZM22.8049 57.388H26.1789L24.4849 52.838L22.8049 57.388ZM34.0426 51.62C34.92 51.62 35.676 51.816 36.3106 52.208C36.9546 52.5907 37.4493 53.1367 37.7946 53.846C38.1493 54.5553 38.3266 55.4 38.3266 56.38C38.3266 57.36 38.1493 58.2047 37.7946 58.914C37.4493 59.6233 36.9546 60.174 36.3106 60.566C35.676 60.9487 34.92 61.14 34.0426 61.14C33.1653 61.14 32.4046 60.9487 31.7606 60.566C31.126 60.174 30.6313 59.6233 30.2766 58.914C29.9313 58.2047 29.7586 57.36 29.7586 56.38C29.7586 55.4 29.9313 54.5553 30.2766 53.846C30.6313 53.1367 31.126 52.5907 31.7606 52.208C32.4046 51.816 33.1653 51.62 34.0426 51.62ZM34.0426 52.67C33.408 52.67 32.8573 52.8193 32.3906 53.118C31.924 53.4073 31.5646 53.832 31.3126 54.392C31.0606 54.9427 30.9346 55.6053 30.9346 56.38C30.9346 57.1547 31.0606 57.822 31.3126 58.382C31.5646 58.9327 31.924 59.3573 32.3906 59.656C32.8573 59.9453 33.408 60.09 34.0426 60.09C34.6866 60.09 35.2373 59.9453 35.6946 59.656C36.1613 59.3573 36.5206 58.9327 36.7726 58.382C37.0246 57.822 37.1506 57.1547 37.1506 56.38C37.1506 55.6053 37.0246 54.9427 36.7726 54.392C36.5206 53.832 36.1613 53.4073 35.6946 53.118C35.2373 52.8193 34.6866 52.67 34.0426 52.67ZM43.7593 51.62C44.5713 51.62 45.2713 51.788 45.8593 52.124C46.4473 52.4507 46.9373 52.936 47.3293 53.58L46.3913 54.308C46.046 53.7107 45.654 53.2907 45.2153 53.048C44.786 52.796 44.2633 52.67 43.6473 52.67C43.1526 52.67 42.742 52.74 42.4153 52.88C42.098 53.02 41.8646 53.2067 41.7153 53.44C41.566 53.664 41.4913 53.9207 41.4913 54.21C41.4913 54.5367 41.594 54.826 41.7993 55.078C42.0046 55.3207 42.4153 55.512 43.0313 55.652L45.0333 56.1C45.92 56.296 46.536 56.5947 46.8813 56.996C47.236 57.388 47.4133 57.878 47.4133 58.466C47.4133 58.9887 47.264 59.4553 46.9653 59.866C46.676 60.2673 46.2653 60.58 45.7333 60.804C45.2013 61.028 44.576 61.14 43.8573 61.14C43.1853 61.14 42.5926 61.0513 42.0793 60.874C41.5753 60.6873 41.1413 60.44 40.7773 60.132C40.4133 59.824 40.1146 59.4787 39.8813 59.096L40.8613 58.298C41.0386 58.6527 41.2673 58.9653 41.5473 59.236C41.8273 59.5067 42.1633 59.7167 42.5553 59.866C42.9566 60.0153 43.414 60.09 43.9273 60.09C44.4033 60.09 44.814 60.034 45.1593 59.922C45.514 59.8007 45.7846 59.628 45.9713 59.404C46.158 59.1707 46.2513 58.8907 46.2513 58.564C46.2513 58.2653 46.1533 57.9993 45.9573 57.766C45.7613 57.5233 45.3926 57.3413 44.8513 57.22L42.6813 56.73C42.112 56.5993 41.65 56.422 41.2953 56.198C40.95 55.9647 40.698 55.694 40.5393 55.386C40.39 55.0687 40.3153 54.728 40.3153 54.364C40.3153 53.8693 40.4506 53.4167 40.7213 53.006C41.0013 52.586 41.398 52.25 41.9113 51.998C42.434 51.746 43.05 51.62 43.7593 51.62ZM60.0461 51.76V61H58.9261V51.76H60.0461ZM66.0366 51.62C66.8486 51.62 67.5486 51.788 68.1366 52.124C68.7246 52.4507 69.2146 52.936 69.6066 53.58L68.6686 54.308C68.3233 53.7107 67.9313 53.2907 67.4926 53.048C67.0633 52.796 66.5406 52.67 65.9246 52.67C65.43 52.67 65.0193 52.74 64.6926 52.88C64.3753 53.02 64.142 53.2067 63.9926 53.44C63.8433 53.664 63.7686 53.9207 63.7686 54.21C63.7686 54.5367 63.8713 54.826 64.0766 55.078C64.282 55.3207 64.6926 55.512 65.3086 55.652L67.3106 56.1C68.1973 56.296 68.8133 56.5947 69.1586 56.996C69.5133 57.388 69.6906 57.878 69.6906 58.466C69.6906 58.9887 69.5413 59.4553 69.2426 59.866C68.9533 60.2673 68.5426 60.58 68.0106 60.804C67.4786 61.028 66.8533 61.14 66.1346 61.14C65.4626 61.14 64.87 61.0513 64.3566 60.874C63.8526 60.6873 63.4186 60.44 63.0546 60.132C62.6906 59.824 62.392 59.4787 62.1586 59.096L63.1386 58.298C63.316 58.6527 63.5446 58.9653 63.8246 59.236C64.1046 59.5067 64.4406 59.7167 64.8326 59.866C65.234 60.0153 65.6913 60.09 66.2046 60.09C66.6806 60.09 67.0913 60.034 67.4366 59.922C67.7913 59.8007 68.062 59.628 68.2486 59.404C68.4353 59.1707 68.5286 58.8907 68.5286 58.564C68.5286 58.2653 68.4306 57.9993 68.2346 57.766C68.0386 57.5233 67.67 57.3413 67.1286 57.22L64.9586 56.73C64.3893 56.5993 63.9273 56.422 63.5726 56.198C63.2273 55.9647 62.9753 55.694 62.8166 55.386C62.6673 55.0687 62.5926 54.728 62.5926 54.364C62.5926 53.8693 62.728 53.4167 62.9986 53.006C63.2786 52.586 63.6753 52.25 64.1886 51.998C64.7113 51.746 65.3273 51.62 66.0366 51.62ZM79.2894 51.76V61H77.9034L74.0394 54.812L73.0594 53.076H73.0454L73.1014 54.476V61H72.0374V51.76H73.4234L77.2734 57.92L78.2674 59.698H78.2814L78.2254 58.284V51.76H79.2894ZM82.6406 51.2C82.8646 51.2 83.0513 51.2607 83.2006 51.382C83.3593 51.494 83.4806 51.6527 83.5646 51.858C83.6486 52.054 83.6906 52.2873 83.6906 52.558C83.6906 52.866 83.6346 53.1693 83.5226 53.468C83.42 53.7667 83.2566 54.042 83.0326 54.294C82.8086 54.546 82.5193 54.756 82.1646 54.924L81.5766 54.378C81.8286 54.294 82.048 54.1773 82.2346 54.028C82.4306 53.8787 82.5893 53.7107 82.7106 53.524C82.832 53.3373 82.9113 53.146 82.9486 52.95L82.8926 52.922C82.8553 52.95 82.8086 52.9733 82.7526 52.992C82.6966 53.0107 82.6126 53.02 82.5006 53.02C82.3886 53.02 82.272 52.9873 82.1506 52.922C82.0386 52.8567 81.9406 52.7633 81.8566 52.642C81.7726 52.5113 81.7306 52.3433 81.7306 52.138C81.7306 51.97 81.7726 51.816 81.8566 51.676C81.9406 51.5267 82.048 51.41 82.1786 51.326C82.3186 51.242 82.4726 51.2 82.6406 51.2ZM92.383 51.76V52.81H89.163V61H88.043V52.81H84.823V51.76H92.383ZM106.087 51.62C106.899 51.62 107.599 51.788 108.187 52.124C108.775 52.4507 109.265 52.936 109.657 53.58L108.719 54.308C108.374 53.7107 107.982 53.2907 107.543 53.048C107.114 52.796 106.591 52.67 105.975 52.67C105.481 52.67 105.07 52.74 104.743 52.88C104.426 53.02 104.193 53.2067 104.043 53.44C103.894 53.664 103.819 53.9207 103.819 54.21C103.819 54.5367 103.922 54.826 104.127 55.078C104.333 55.3207 104.743 55.512 105.359 55.652L107.361 56.1C108.248 56.296 108.864 56.5947 109.209 56.996C109.564 57.388 109.741 57.878 109.741 58.466C109.741 58.9887 109.592 59.4553 109.293 59.866C109.004 60.2673 108.593 60.58 108.061 60.804C107.529 61.028 106.904 61.14 106.185 61.14C105.513 61.14 104.921 61.0513 104.407 60.874C103.903 60.6873 103.469 60.44 103.105 60.132C102.741 59.824 102.443 59.4787 102.209 59.096L103.189 58.298C103.367 58.6527 103.595 58.9653 103.875 59.236C104.155 59.5067 104.491 59.7167 104.883 59.866C105.285 60.0153 105.742 60.09 106.255 60.09C106.731 60.09 107.142 60.034 107.487 59.922C107.842 59.8007 108.113 59.628 108.299 59.404C108.486 59.1707 108.579 58.8907 108.579 58.564C108.579 58.2653 108.481 57.9993 108.285 57.766C108.089 57.5233 107.721 57.3413 107.179 57.22L105.009 56.73C104.44 56.5993 103.978 56.422 103.623 56.198C103.278 55.9647 103.026 55.694 102.867 55.386C102.718 55.0687 102.643 54.728 102.643 54.364C102.643 53.8693 102.779 53.4167 103.049 53.006C103.329 52.586 103.726 52.25 104.239 51.998C104.762 51.746 105.378 51.62 106.087 51.62ZM115.812 51.62C116.69 51.62 117.446 51.816 118.08 52.208C118.724 52.5907 119.219 53.1367 119.564 53.846C119.919 54.5553 120.096 55.4 120.096 56.38C120.096 57.36 119.919 58.2047 119.564 58.914C119.219 59.6233 118.724 60.174 118.08 60.566C117.446 60.9487 116.69 61.14 115.812 61.14C114.935 61.14 114.174 60.9487 113.53 60.566C112.896 60.174 112.401 59.6233 112.046 58.914C111.701 58.2047 111.528 57.36 111.528 56.38C111.528 55.4 111.701 54.5553 112.046 53.846C112.401 53.1367 112.896 52.5907 113.53 52.208C114.174 51.816 114.935 51.62 115.812 51.62ZM115.812 52.67C115.178 52.67 114.627 52.8193 114.16 53.118C113.694 53.4073 113.334 53.832 113.082 54.392C112.83 54.9427 112.704 55.6053 112.704 56.38C112.704 57.1547 112.83 57.822 113.082 58.382C113.334 58.9327 113.694 59.3573 114.16 59.656C114.627 59.9453 115.178 60.09 115.812 60.09C116.456 60.09 117.007 59.9453 117.464 59.656C117.931 59.3573 118.29 58.9327 118.542 58.382C118.794 57.822 118.92 57.1547 118.92 56.38C118.92 55.6053 118.794 54.9427 118.542 54.392C118.29 53.832 117.931 53.4073 117.464 53.118C117.007 52.8193 116.456 52.67 115.812 52.67ZM131.493 51.76V61H130.429V55.19L130.555 52.754H130.541L127.503 61H126.551L123.513 52.754H123.499L123.625 55.19V61H122.561V51.76H124.283L126.313 57.374L127.013 59.684H127.041L127.755 57.388L129.771 51.76H131.493ZM134.51 61V51.76H140.992V52.81H135.63V55.792H139.802V56.842H135.63V59.95H141.202V61H134.51ZM149.934 51.76V52.81H146.714V61H145.594V52.81H142.374V51.76H149.934ZM159.139 51.76V61H158.019V51.76H159.139ZM153.007 51.76V61H151.887V51.76H153.007ZM158.537 55.792V56.842H152.475V55.792H158.537ZM163.288 51.76V61H162.168V51.76H163.288ZM173.563 51.76V61H172.177L168.313 54.812L167.333 53.076H167.319L167.375 54.476V61H166.311V51.76H167.697L171.547 57.92L172.541 59.698H172.555L172.499 58.284V51.76H173.563ZM180.316 61.14C179.439 61.14 178.678 60.9487 178.034 60.566C177.399 60.174 176.905 59.6233 176.55 58.914C176.205 58.2047 176.032 57.36 176.032 56.38C176.032 55.4 176.214 54.5553 176.578 53.846C176.951 53.1367 177.469 52.5907 178.132 52.208C178.795 51.816 179.555 51.62 180.414 51.62C181.329 51.62 182.071 51.7927 182.64 52.138C183.219 52.4833 183.685 53.0153 184.04 53.734L183.018 54.294C182.813 53.762 182.486 53.3607 182.038 53.09C181.599 52.81 181.058 52.67 180.414 52.67C179.789 52.67 179.233 52.8193 178.748 53.118C178.272 53.4073 177.894 53.832 177.614 54.392C177.343 54.9427 177.208 55.6053 177.208 56.38C177.208 57.1547 177.325 57.822 177.558 58.382C177.801 58.9327 178.155 59.3573 178.622 59.656C179.098 59.9453 179.677 60.09 180.358 60.09C180.741 60.09 181.095 60.0433 181.422 59.95C181.758 59.8473 182.047 59.698 182.29 59.502C182.542 59.306 182.738 59.0587 182.878 58.76C183.018 58.4613 183.088 58.1113 183.088 57.71V57.388H180.148V56.338H184.11V61H183.228L183.172 59.278L183.41 59.32C183.167 59.8987 182.785 60.3467 182.262 60.664C181.739 60.9813 181.091 61.14 180.316 61.14ZM202.002 51.76V52.81H198.782V61H197.662V52.81H194.442V51.76H202.002ZM207.365 51.62C208.242 51.62 208.998 51.816 209.633 52.208C210.277 52.5907 210.772 53.1367 211.117 53.846C211.472 54.5553 211.649 55.4 211.649 56.38C211.649 57.36 211.472 58.2047 211.117 58.914C210.772 59.6233 210.277 60.174 209.633 60.566C208.998 60.9487 208.242 61.14 207.365 61.14C206.488 61.14 205.727 60.9487 205.083 60.566C204.448 60.174 203.954 59.6233 203.599 58.914C203.254 58.2047 203.081 57.36 203.081 56.38C203.081 55.4 203.254 54.5553 203.599 53.846C203.954 53.1367 204.448 52.5907 205.083 52.208C205.727 51.816 206.488 51.62 207.365 51.62ZM207.365 52.67C206.73 52.67 206.18 52.8193 205.713 53.118C205.246 53.4073 204.887 53.832 204.635 54.392C204.383 54.9427 204.257 55.6053 204.257 56.38C204.257 57.1547 204.383 57.822 204.635 58.382C204.887 58.9327 205.246 59.3573 205.713 59.656C206.18 59.9453 206.73 60.09 207.365 60.09C208.009 60.09 208.56 59.9453 209.017 59.656C209.484 59.3573 209.843 58.9327 210.095 58.382C210.347 57.822 210.473 57.1547 210.473 56.38C210.473 55.6053 210.347 54.9427 210.095 54.392C209.843 53.832 209.484 53.4073 209.017 53.118C208.56 52.8193 208.009 52.67 207.365 52.67ZM230.728 58.634C230.532 59.1567 230.252 59.6093 229.888 59.992C229.524 60.3653 229.094 60.65 228.6 60.846C228.114 61.042 227.582 61.14 227.004 61.14C226.126 61.14 225.366 60.9487 224.722 60.566C224.087 60.174 223.592 59.6233 223.238 58.914C222.892 58.2047 222.72 57.36 222.72 56.38C222.72 55.4 222.892 54.5553 223.238 53.846C223.592 53.1367 224.087 52.5907 224.722 52.208C225.366 51.816 226.117 51.62 226.976 51.62C227.573 51.62 228.105 51.704 228.572 51.872C229.038 52.0307 229.435 52.2733 229.762 52.6C230.098 52.9173 230.364 53.3093 230.56 53.776L229.454 54.294C229.248 53.762 228.95 53.3607 228.558 53.09C228.175 52.81 227.676 52.67 227.06 52.67C226.434 52.67 225.884 52.8193 225.408 53.118C224.932 53.4073 224.558 53.8273 224.288 54.378C224.026 54.9287 223.896 55.596 223.896 56.38C223.896 57.1547 224.022 57.822 224.274 58.382C224.526 58.9327 224.885 59.3573 225.352 59.656C225.818 59.9453 226.369 60.09 227.004 60.09C227.62 60.09 228.156 59.936 228.614 59.628C229.071 59.3107 229.402 58.8393 229.608 58.214L230.728 58.634ZM236.601 51.62C237.479 51.62 238.235 51.816 238.869 52.208C239.513 52.5907 240.008 53.1367 240.353 53.846C240.708 54.5553 240.885 55.4 240.885 56.38C240.885 57.36 240.708 58.2047 240.353 58.914C240.008 59.6233 239.513 60.174 238.869 60.566C238.235 60.9487 237.479 61.14 236.601 61.14C235.724 61.14 234.963 60.9487 234.319 60.566C233.685 60.174 233.19 59.6233 232.835 58.914C232.49 58.2047 232.317 57.36 232.317 56.38C232.317 55.4 232.49 54.5553 232.835 53.846C233.19 53.1367 233.685 52.5907 234.319 52.208C234.963 51.816 235.724 51.62 236.601 51.62ZM236.601 52.67C235.967 52.67 235.416 52.8193 234.949 53.118C234.483 53.4073 234.123 53.832 233.871 54.392C233.619 54.9427 233.493 55.6053 233.493 56.38C233.493 57.1547 233.619 57.822 233.871 58.382C234.123 58.9327 234.483 59.3573 234.949 59.656C235.416 59.9453 235.967 60.09 236.601 60.09C237.245 60.09 237.796 59.9453 238.253 59.656C238.72 59.3573 239.079 58.9327 239.331 58.382C239.583 57.822 239.709 57.1547 239.709 56.38C239.709 55.6053 239.583 54.9427 239.331 54.392C239.079 53.832 238.72 53.4073 238.253 53.118C237.796 52.8193 237.245 52.67 236.601 52.67ZM250.602 51.76V61H249.216L245.352 54.812L244.372 53.076H244.358L244.414 54.476V61H243.35V51.76H244.736L248.586 57.92L249.58 59.698H249.594L249.538 58.284V51.76H250.602ZM260.127 51.76V52.81H256.907V61H255.787V52.81H252.567V51.76H260.127ZM265.58 51.76C266.523 51.76 267.279 52.0027 267.848 52.488C268.418 52.9733 268.702 53.6313 268.702 54.462C268.702 55.2927 268.413 55.9413 267.834 56.408C267.265 56.8653 266.509 57.094 265.566 57.094L265.468 57.164H263.2V61H262.08V51.76H265.58ZM265.566 56.114C266.229 56.114 266.719 55.9787 267.036 55.708C267.363 55.428 267.526 55.0127 267.526 54.462C267.526 53.9113 267.363 53.5007 267.036 53.23C266.719 52.95 266.229 52.81 265.566 52.81H263.2V56.114H265.566ZM266.21 56.338L269.262 61H267.932L265.272 56.954L266.21 56.338ZM275.033 51.62C275.91 51.62 276.666 51.816 277.301 52.208C277.945 52.5907 278.44 53.1367 278.785 53.846C279.14 54.5553 279.317 55.4 279.317 56.38C279.317 57.36 279.14 58.2047 278.785 58.914C278.44 59.6233 277.945 60.174 277.301 60.566C276.666 60.9487 275.91 61.14 275.033 61.14C274.156 61.14 273.395 60.9487 272.751 60.566C272.116 60.174 271.622 59.6233 271.267 58.914C270.922 58.2047 270.749 57.36 270.749 56.38C270.749 55.4 270.922 54.5553 271.267 53.846C271.622 53.1367 272.116 52.5907 272.751 52.208C273.395 51.816 274.156 51.62 275.033 51.62ZM275.033 52.67C274.398 52.67 273.848 52.8193 273.381 53.118C272.914 53.4073 272.555 53.832 272.303 54.392C272.051 54.9427 271.925 55.6053 271.925 56.38C271.925 57.1547 272.051 57.822 272.303 58.382C272.555 58.9327 272.914 59.3573 273.381 59.656C273.848 59.9453 274.398 60.09 275.033 60.09C275.677 60.09 276.228 59.9453 276.685 59.656C277.152 59.3573 277.511 58.9327 277.763 58.382C278.015 57.822 278.141 57.1547 278.141 56.38C278.141 55.6053 278.015 54.9427 277.763 54.392C277.511 53.832 277.152 53.4073 276.685 53.118C276.228 52.8193 275.677 52.67 275.033 52.67ZM282.902 59.95H288.194V61H281.782V51.76H282.902V59.95ZM300.441 56.814V57.864H288.541V56.814H300.441ZM304.216 51.76V61H303.096V51.76H304.216ZM313.735 51.76V52.81H310.515V61H309.395V52.81H306.175V51.76H313.735ZM316.01 51.2C316.234 51.2 316.42 51.2607 316.57 51.382C316.728 51.494 316.85 51.6527 316.934 51.858C317.018 52.054 317.06 52.2873 317.06 52.558C317.06 52.866 317.004 53.1693 316.892 53.468C316.789 53.7667 316.626 54.042 316.402 54.294C316.178 54.546 315.888 54.756 315.534 54.924L314.946 54.378C315.198 54.294 315.417 54.1773 315.604 54.028C315.8 53.8787 315.958 53.7107 316.08 53.524C316.201 53.3373 316.28 53.146 316.318 52.95L316.262 52.922C316.224 52.95 316.178 52.9733 316.122 52.992C316.066 53.0107 315.982 53.02 315.87 53.02C315.758 53.02 315.641 52.9873 315.52 52.922C315.408 52.8567 315.31 52.7633 315.226 52.642C315.142 52.5113 315.1 52.3433 315.1 52.138C315.1 51.97 315.142 51.816 315.226 51.676C315.31 51.5267 315.417 51.41 315.548 51.326C315.688 51.242 315.842 51.2 316.01 51.2ZM322.224 51.62C323.036 51.62 323.736 51.788 324.324 52.124C324.912 52.4507 325.402 52.936 325.794 53.58L324.856 54.308C324.511 53.7107 324.119 53.2907 323.68 53.048C323.251 52.796 322.728 52.67 322.112 52.67C321.617 52.67 321.207 52.74 320.88 52.88C320.563 53.02 320.329 53.2067 320.18 53.44C320.031 53.664 319.956 53.9207 319.956 54.21C319.956 54.5367 320.059 54.826 320.264 55.078C320.469 55.3207 320.88 55.512 321.496 55.652L323.498 56.1C324.385 56.296 325.001 56.5947 325.346 56.996C325.701 57.388 325.878 57.878 325.878 58.466C325.878 58.9887 325.729 59.4553 325.43 59.866C325.141 60.2673 324.73 60.58 324.198 60.804C323.666 61.028 323.041 61.14 322.322 61.14C321.65 61.14 321.057 61.0513 320.544 60.874C320.04 60.6873 319.606 60.44 319.242 60.132C318.878 59.824 318.579 59.4787 318.346 59.096L319.326 58.298C319.503 58.6527 319.732 58.9653 320.012 59.236C320.292 59.5067 320.628 59.7167 321.02 59.866C321.421 60.0153 321.879 60.09 322.392 60.09C322.868 60.09 323.279 60.034 323.624 59.922C323.979 59.8007 324.249 59.628 324.436 59.404C324.623 59.1707 324.716 58.8907 324.716 58.564C324.716 58.2653 324.618 57.9993 324.422 57.766C324.226 57.5233 323.857 57.3413 323.316 57.22L321.146 56.73C320.577 56.5993 320.115 56.422 319.76 56.198C319.415 55.9647 319.163 55.694 319.004 55.386C318.855 55.0687 318.78 54.728 318.78 54.364C318.78 53.8693 318.915 53.4167 319.186 53.006C319.466 52.586 319.863 52.25 320.376 51.998C320.899 51.746 321.515 51.62 322.224 51.62ZM344.194 61H343.004L342.024 58.438H337.838L336.858 61H335.682L339.28 51.76H340.61L344.194 61ZM338.244 57.388H341.618L339.924 52.838L338.244 57.388ZM8.96 75.634C8.764 76.1567 8.484 76.6093 8.12 76.992C7.756 77.3653 7.32667 77.65 6.832 77.846C6.34667 78.042 5.81467 78.14 5.236 78.14C4.35867 78.14 3.598 77.9487 2.954 77.566C2.31933 77.174 1.82467 76.6233 1.47 75.914C1.12467 75.2047 0.952 74.36 0.952 73.38C0.952 72.4 1.12467 71.5553 1.47 70.846C1.82467 70.1367 2.31933 69.5907 2.954 69.208C3.598 68.816 4.34933 68.62 5.208 68.62C5.80533 68.62 6.33733 68.704 6.804 68.872C7.27067 69.0307 7.66733 69.2733 7.994 69.6C8.33 69.9173 8.596 70.3093 8.792 70.776L7.686 71.294C7.48067 70.762 7.182 70.3607 6.79 70.09C6.40733 69.81 5.908 69.67 5.292 69.67C4.66667 69.67 4.116 69.8193 3.64 70.118C3.164 70.4073 2.79067 70.8273 2.52 71.378C2.25867 71.9287 2.128 72.596 2.128 73.38C2.128 74.1547 2.254 74.822 2.506 75.382C2.758 75.9327 3.11733 76.3573 3.584 76.656C4.05067 76.9453 4.60133 77.09 5.236 77.09C5.852 77.09 6.38867 76.936 6.846 76.628C7.30333 76.3107 7.63467 75.8393 7.84 75.214L8.96 75.634ZM18.4737 78H17.2837L16.3037 75.438H12.1177L11.1377 78H9.96166L13.5597 68.76H14.8897L18.4737 78ZM12.5237 74.388H15.8977L14.2037 69.838L12.5237 74.388ZM25.59 68.76V69.81H22.37V78H21.25V69.81H18.03V68.76H25.59ZM33.6494 78H32.4594L31.4794 75.438H27.2934L26.3134 78H25.1374L28.7354 68.76H30.0654L33.6494 78ZM27.6994 74.388H31.0734L29.3794 69.838L27.6994 74.388ZM36.6476 76.95H41.9396V78H35.5276V68.76H36.6476V76.95ZM48.6375 68.76L45.3335 74.388V78H44.2135V74.388L40.9095 68.76H42.2395L44.0315 71.924L44.7735 73.24L45.5155 71.924L47.3075 68.76H48.6375ZM53.0015 68.62C53.8135 68.62 54.5135 68.788 55.1015 69.124C55.6895 69.4507 56.1795 69.936 56.5715 70.58L55.6335 71.308C55.2882 70.7107 54.8962 70.2907 54.4575 70.048C54.0282 69.796 53.5055 69.67 52.8895 69.67C52.3948 69.67 51.9842 69.74 51.6575 69.88C51.3402 70.02 51.1068 70.2067 50.9575 70.44C50.8082 70.664 50.7335 70.9207 50.7335 71.21C50.7335 71.5367 50.8362 71.826 51.0415 72.078C51.2468 72.3207 51.6575 72.512 52.2735 72.652L54.2755 73.1C55.1622 73.296 55.7782 73.5947 56.1235 73.996C56.4782 74.388 56.6555 74.878 56.6555 75.466C56.6555 75.9887 56.5062 76.4553 56.2075 76.866C55.9182 77.2673 55.5075 77.58 54.9755 77.804C54.4435 78.028 53.8182 78.14 53.0995 78.14C52.4275 78.14 51.8348 78.0513 51.3215 77.874C50.8175 77.6873 50.3835 77.44 50.0195 77.132C49.6555 76.824 49.3568 76.4787 49.1235 76.096L50.1035 75.298C50.2808 75.6527 50.5095 75.9653 50.7895 76.236C51.0695 76.5067 51.4055 76.7167 51.7975 76.866C52.1988 77.0153 52.6562 77.09 53.1695 77.09C53.6455 77.09 54.0562 77.034 54.4015 76.922C54.7562 76.8007 55.0268 76.628 55.2135 76.404C55.4002 76.1707 55.4935 75.8907 55.4935 75.564C55.4935 75.2653 55.3955 74.9993 55.1995 74.766C55.0035 74.5233 54.6348 74.3413 54.0935 74.22L51.9235 73.73C51.3542 73.5993 50.8922 73.422 50.5375 73.198C50.1922 72.9647 49.9402 72.694 49.7815 72.386C49.6322 72.0687 49.5575 71.728 49.5575 71.364C49.5575 70.8693 49.6928 70.4167 49.9635 70.006C50.2435 69.586 50.6402 69.25 51.1535 68.998C51.6762 68.746 52.2922 68.62 53.0015 68.62ZM65.0744 68.76V69.81H61.8544V78H60.7344V69.81H57.5144V68.76H65.0744ZM77.8843 69.81H72.5363V72.792H76.7083V73.842H72.5363V78H71.4163V68.76H77.8843V69.81ZM83.5212 68.62C84.3985 68.62 85.1545 68.816 85.7892 69.208C86.4332 69.5907 86.9278 70.1367 87.2732 70.846C87.6278 71.5553 87.8052 72.4 87.8052 73.38C87.8052 74.36 87.6278 75.2047 87.2732 75.914C86.9278 76.6233 86.4332 77.174 85.7892 77.566C85.1545 77.9487 84.3985 78.14 83.5212 78.14C82.6438 78.14 81.8832 77.9487 81.2392 77.566C80.6045 77.174 80.1098 76.6233 79.7552 75.914C79.4098 75.2047 79.2372 74.36 79.2372 73.38C79.2372 72.4 79.4098 71.5553 79.7552 70.846C80.1098 70.1367 80.6045 69.5907 81.2392 69.208C81.8832 68.816 82.6438 68.62 83.5212 68.62ZM83.5212 69.67C82.8865 69.67 82.3358 69.8193 81.8692 70.118C81.4025 70.4073 81.0432 70.832 80.7912 71.392C80.5392 71.9427 80.4132 72.6053 80.4132 73.38C80.4132 74.1547 80.5392 74.822 80.7912 75.382C81.0432 75.9327 81.4025 76.3573 81.8692 76.656C82.3358 76.9453 82.8865 77.09 83.5212 77.09C84.1652 77.09 84.7158 76.9453 85.1732 76.656C85.6398 76.3573 85.9992 75.9327 86.2512 75.382C86.5032 74.822 86.6292 74.1547 86.6292 73.38C86.6292 72.6053 86.5032 71.9427 86.2512 71.392C85.9992 70.832 85.6398 70.4073 85.1732 70.118C84.7158 69.8193 84.1652 69.67 83.5212 69.67ZM93.7698 68.76C94.7125 68.76 95.4685 69.0027 96.0378 69.488C96.6071 69.9733 96.8918 70.6313 96.8918 71.462C96.8918 72.2927 96.6025 72.9413 96.0238 73.408C95.4545 73.8653 94.6985 74.094 93.7558 74.094L93.6578 74.164H91.3898V78H90.2698V68.76H93.7698ZM93.7558 73.114C94.4185 73.114 94.9085 72.9787 95.2258 72.708C95.5525 72.428 95.7158 72.0127 95.7158 71.462C95.7158 70.9113 95.5525 70.5007 95.2258 70.23C94.9085 69.95 94.4185 69.81 93.7558 69.81H91.3898V73.114H93.7558ZM94.3998 73.338L97.4518 78H96.1218L93.4618 73.954L94.3998 73.338ZM107.334 68.76C108.781 68.76 109.915 69.1613 110.736 69.964C111.567 70.7573 111.982 71.896 111.982 73.38C111.982 74.864 111.567 76.0073 110.736 76.81C109.915 77.6033 108.781 78 107.334 78H104.352V68.76H107.334ZM107.446 76.95C108.501 76.95 109.322 76.6373 109.91 76.012C110.507 75.3773 110.806 74.5 110.806 73.38C110.806 72.26 110.507 71.3873 109.91 70.762C109.322 70.1273 108.501 69.81 107.446 69.81H105.472V76.95H107.446ZM115.562 68.76V78H114.442V68.76H115.562ZM121.552 68.62C122.364 68.62 123.064 68.788 123.652 69.124C124.24 69.4507 124.73 69.936 125.122 70.58L124.184 71.308C123.839 70.7107 123.447 70.2907 123.008 70.048C122.579 69.796 122.056 69.67 121.44 69.67C120.946 69.67 120.535 69.74 120.208 69.88C119.891 70.02 119.658 70.2067 119.508 70.44C119.359 70.664 119.284 70.9207 119.284 71.21C119.284 71.5367 119.387 71.826 119.592 72.078C119.798 72.3207 120.208 72.512 120.824 72.652L122.826 73.1C123.713 73.296 124.329 73.5947 124.674 73.996C125.029 74.388 125.206 74.878 125.206 75.466C125.206 75.9887 125.057 76.4553 124.758 76.866C124.469 77.2673 124.058 77.58 123.526 77.804C122.994 78.028 122.369 78.14 121.65 78.14C120.978 78.14 120.386 78.0513 119.872 77.874C119.368 77.6873 118.934 77.44 118.57 77.132C118.206 76.824 117.908 76.4787 117.674 76.096L118.654 75.298C118.832 75.6527 119.06 75.9653 119.34 76.236C119.62 76.5067 119.956 76.7167 120.348 76.866C120.75 77.0153 121.207 77.09 121.72 77.09C122.196 77.09 122.607 77.034 122.952 76.922C123.307 76.8007 123.578 76.628 123.764 76.404C123.951 76.1707 124.044 75.8907 124.044 75.564C124.044 75.2653 123.946 74.9993 123.75 74.766C123.554 74.5233 123.186 74.3413 122.644 74.22L120.474 73.73C119.905 73.5993 119.443 73.422 119.088 73.198C118.743 72.9647 118.491 72.694 118.332 72.386C118.183 72.0687 118.108 71.728 118.108 71.364C118.108 70.8693 118.244 70.4167 118.514 70.006C118.794 69.586 119.191 69.25 119.704 68.998C120.227 68.746 120.843 68.62 121.552 68.62ZM135.001 75.634C134.805 76.1567 134.525 76.6093 134.161 76.992C133.797 77.3653 133.368 77.65 132.873 77.846C132.388 78.042 131.856 78.14 131.277 78.14C130.4 78.14 129.639 77.9487 128.995 77.566C128.36 77.174 127.866 76.6233 127.511 75.914C127.166 75.2047 126.993 74.36 126.993 73.38C126.993 72.4 127.166 71.5553 127.511 70.846C127.866 70.1367 128.36 69.5907 128.995 69.208C129.639 68.816 130.39 68.62 131.249 68.62C131.846 68.62 132.378 68.704 132.845 68.872C133.312 69.0307 133.708 69.2733 134.035 69.6C134.371 69.9173 134.637 70.3093 134.833 70.776L133.727 71.294C133.522 70.762 133.223 70.3607 132.831 70.09C132.448 69.81 131.949 69.67 131.333 69.67C130.708 69.67 130.157 69.8193 129.681 70.118C129.205 70.4073 128.832 70.8273 128.561 71.378C128.3 71.9287 128.169 72.596 128.169 73.38C128.169 74.1547 128.295 74.822 128.547 75.382C128.799 75.9327 129.158 76.3573 129.625 76.656C130.092 76.9453 130.642 77.09 131.277 77.09C131.893 77.09 132.43 76.936 132.887 76.628C133.344 76.3107 133.676 75.8393 133.881 75.214L135.001 75.634ZM140.875 68.62C141.752 68.62 142.508 68.816 143.143 69.208C143.787 69.5907 144.281 70.1367 144.627 70.846C144.981 71.5553 145.159 72.4 145.159 73.38C145.159 74.36 144.981 75.2047 144.627 75.914C144.281 76.6233 143.787 77.174 143.143 77.566C142.508 77.9487 141.752 78.14 140.875 78.14C139.997 78.14 139.237 77.9487 138.593 77.566C137.958 77.174 137.463 76.6233 137.109 75.914C136.763 75.2047 136.591 74.36 136.591 73.38C136.591 72.4 136.763 71.5553 137.109 70.846C137.463 70.1367 137.958 69.5907 138.593 69.208C139.237 68.816 139.997 68.62 140.875 68.62ZM140.875 69.67C140.24 69.67 139.689 69.8193 139.223 70.118C138.756 70.4073 138.397 70.832 138.145 71.392C137.893 71.9427 137.767 72.6053 137.767 73.38C137.767 74.1547 137.893 74.822 138.145 75.382C138.397 75.9327 138.756 76.3573 139.223 76.656C139.689 76.9453 140.24 77.09 140.875 77.09C141.519 77.09 142.069 76.9453 142.527 76.656C142.993 76.3573 143.353 75.9327 143.605 75.382C143.857 74.822 143.983 74.1547 143.983 73.38C143.983 72.6053 143.857 71.9427 143.605 71.392C143.353 70.832 142.993 70.4073 142.527 70.118C142.069 69.8193 141.519 69.67 140.875 69.67ZM154.573 68.76L151.073 78H149.799L146.285 68.76H147.489L149.841 75.144L150.429 76.978L151.017 75.158L153.369 68.76H154.573ZM156.483 78V68.76H162.965V69.81H157.603V72.792H161.775V73.842H157.603V76.95H163.175V78H156.483ZM168.91 68.76C169.853 68.76 170.609 69.0027 171.178 69.488C171.748 69.9733 172.032 70.6313 172.032 71.462C172.032 72.2927 171.743 72.9413 171.164 73.408C170.595 73.8653 169.839 74.094 168.896 74.094L168.798 74.164H166.53V78H165.41V68.76H168.91ZM168.896 73.114C169.559 73.114 170.049 72.9787 170.366 72.708C170.693 72.428 170.856 72.0127 170.856 71.462C170.856 70.9113 170.693 70.5007 170.366 70.23C170.049 69.95 169.559 69.81 168.896 69.81H166.53V73.114H168.896ZM169.54 73.338L172.592 78H171.262L168.602 73.954L169.54 73.338ZM180.763 68.76L177.459 74.388V78H176.339V74.388L173.035 68.76H174.365L176.157 71.924L176.899 73.24L177.641 71.924L179.433 68.76H180.763ZM180.882 76.32C181.152 76.32 181.372 76.404 181.54 76.572C181.708 76.74 181.792 76.9593 181.792 77.23C181.792 77.5007 181.708 77.72 181.54 77.888C181.372 78.056 181.152 78.14 180.882 78.14C180.611 78.14 180.392 78.056 180.224 77.888C180.056 77.72 179.972 77.5007 179.972 77.23C179.972 76.9593 180.056 76.74 180.224 76.572C180.392 76.404 180.611 76.32 180.882 76.32Z" fill="#E6E4D6"/>
</svg>
