<svg width="100%" height="100%" viewBox="0 0 1629 31" fill="none" xmlns="http://www.w3.org/2000/svg">
<path d="M11.936 0.44V11H10.72V4.36L10.864 1.576H10.848L7.376 11H6.288L2.816 1.576H2.8L2.944 4.36V11H1.728V0.44H3.696L6.016 6.856L6.816 9.496H6.848L7.664 6.872L9.968 0.44H11.936ZM23.8003 11H22.4403L21.3203 8.072H16.5363L15.4163 11H14.0723L18.1843 0.44H19.7043L23.8003 11ZM17.0003 6.872H20.8563L18.9203 1.672L17.0003 6.872ZM29.2138 0.28C30.1418 0.28 30.9418 0.472 31.6138 0.856C32.2858 1.22933 32.8458 1.784 33.2938 2.52L32.2218 3.352C31.8271 2.66933 31.3791 2.18933 30.8778 1.912C30.3871 1.624 29.7898 1.48 29.0858 1.48C28.5204 1.48 28.0511 1.56 27.6778 1.72C27.3151 1.88 27.0484 2.09333 26.8778 2.36C26.7071 2.616 26.6218 2.90933 26.6218 3.24C26.6218 3.61333 26.7391 3.944 26.9738 4.232C27.2084 4.50933 27.6778 4.728 28.3818 4.888L30.6698 5.4C31.6831 5.624 32.3871 5.96533 32.7818 6.424C33.1871 6.872 33.3898 7.432 33.3898 8.104C33.3898 8.70133 33.2191 9.23467 32.8778 9.704C32.5471 10.1627 32.0778 10.52 31.4698 10.776C30.8618 11.032 30.1471 11.16 29.3258 11.16C28.5578 11.16 27.8804 11.0587 27.2938 10.856C26.7178 10.6427 26.2218 10.36 25.8058 10.008C25.3898 9.656 25.0484 9.26133 24.7818 8.824L25.9018 7.912C26.1044 8.31733 26.3657 8.67467 26.6858 8.984C27.0058 9.29333 27.3898 9.53333 27.8378 9.704C28.2964 9.87467 28.8191 9.96 29.4058 9.96C29.9498 9.96 30.4191 9.896 30.8138 9.768C31.2191 9.62933 31.5284 9.432 31.7418 9.176C31.9551 8.90933 32.0618 8.58933 32.0618 8.216C32.0618 7.87467 31.9498 7.57067 31.7258 7.304C31.5018 7.02667 31.0804 6.81867 30.4618 6.68L27.9818 6.12C27.3311 5.97067 26.8031 5.768 26.3978 5.512C26.0031 5.24533 25.7151 4.936 25.5338 4.584C25.3631 4.22133 25.2778 3.832 25.2778 3.416C25.2778 2.85067 25.4324 2.33333 25.7418 1.864C26.0618 1.384 26.5151 0.999999 27.1018 0.712C27.6991 0.424 28.4031 0.28 29.2138 0.28ZM39.4638 0.28C40.3918 0.28 41.1918 0.472 41.8638 0.856C42.5358 1.22933 43.0958 1.784 43.5438 2.52L42.4718 3.352C42.0771 2.66933 41.6291 2.18933 41.1278 1.912C40.6371 1.624 40.0398 1.48 39.3358 1.48C38.7704 1.48 38.3011 1.56 37.9278 1.72C37.5651 1.88 37.2984 2.09333 37.1278 2.36C36.9571 2.616 36.8718 2.90933 36.8718 3.24C36.8718 3.61333 36.9891 3.944 37.2238 4.232C37.4584 4.50933 37.9278 4.728 38.6318 4.888L40.9198 5.4C41.9331 5.624 42.6371 5.96533 43.0318 6.424C43.4371 6.872 43.6398 7.432 43.6398 8.104C43.6398 8.70133 43.4691 9.23467 43.1278 9.704C42.7971 10.1627 42.3278 10.52 41.7198 10.776C41.1118 11.032 40.3971 11.16 39.5758 11.16C38.8078 11.16 38.1304 11.0587 37.5438 10.856C36.9678 10.6427 36.4718 10.36 36.0558 10.008C35.6398 9.656 35.2984 9.26133 35.0318 8.824L36.1518 7.912C36.3544 8.31733 36.6157 8.67467 36.9358 8.984C37.2558 9.29333 37.6398 9.53333 38.0878 9.704C38.5464 9.87467 39.0691 9.96 39.6558 9.96C40.1998 9.96 40.6691 9.896 41.0638 9.768C41.4691 9.62933 41.7784 9.432 41.9918 9.176C42.2051 8.90933 42.3118 8.58933 42.3118 8.216C42.3118 7.87467 42.1998 7.57067 41.9758 7.304C41.7518 7.02667 41.3304 6.81867 40.7118 6.68L38.2318 6.12C37.5811 5.97067 37.0531 5.768 36.6478 5.512C36.2531 5.24533 35.9651 4.936 35.7838 4.584C35.6131 4.22133 35.5278 3.832 35.5278 3.416C35.5278 2.85067 35.6824 2.33333 35.9918 1.864C36.3118 1.384 36.7651 0.999999 37.3518 0.712C37.9491 0.424 38.6531 0.28 39.4638 0.28ZM54.5971 11H53.2371L52.1171 8.072H47.3331L46.2131 11H44.8691L48.9811 0.44H50.5011L54.5971 11ZM47.7971 6.872H51.6531L49.7171 1.672L47.7971 6.872ZM134.253 8.296C134.029 8.89333 133.709 9.41067 133.293 9.848C132.877 10.2747 132.387 10.6 131.821 10.824C131.267 11.048 130.659 11.16 129.997 11.16C128.995 11.16 128.125 10.9413 127.389 10.504C126.664 10.056 126.099 9.42667 125.693 8.616C125.299 7.80533 125.101 6.84 125.101 5.72C125.101 4.6 125.299 3.63467 125.693 2.824C126.099 2.01333 126.664 1.38933 127.389 0.952C128.125 0.504 128.984 0.28 129.965 0.28C130.648 0.28 131.256 0.376 131.789 0.568C132.323 0.749333 132.776 1.02667 133.149 1.4C133.533 1.76267 133.837 2.21067 134.061 2.744L132.797 3.336C132.563 2.728 132.221 2.26933 131.773 1.96C131.336 1.64 130.765 1.48 130.061 1.48C129.347 1.48 128.717 1.65067 128.173 1.992C127.629 2.32267 127.203 2.80267 126.893 3.432C126.595 4.06133 126.445 4.824 126.445 5.72C126.445 6.60533 126.589 7.368 126.877 8.008C127.165 8.63733 127.576 9.12267 128.109 9.464C128.643 9.79467 129.272 9.96 129.997 9.96C130.701 9.96 131.315 9.784 131.837 9.432C132.36 9.06933 132.739 8.53067 132.973 7.816L134.253 8.296ZM140.966 0.28C141.969 0.28 142.833 0.504 143.558 0.952C144.294 1.38933 144.859 2.01333 145.254 2.824C145.659 3.63467 145.862 4.6 145.862 5.72C145.862 6.84 145.659 7.80533 145.254 8.616C144.859 9.42667 144.294 10.056 143.558 10.504C142.833 10.9413 141.969 11.16 140.966 11.16C139.963 11.16 139.094 10.9413 138.358 10.504C137.633 10.056 137.067 9.42667 136.662 8.616C136.267 7.80533 136.07 6.84 136.07 5.72C136.07 4.6 136.267 3.63467 136.662 2.824C137.067 2.01333 137.633 1.38933 138.358 0.952C139.094 0.504 139.963 0.28 140.966 0.28ZM140.966 1.48C140.241 1.48 139.611 1.65067 139.078 1.992C138.545 2.32267 138.134 2.808 137.846 3.448C137.558 4.07733 137.414 4.83467 137.414 5.72C137.414 6.60533 137.558 7.368 137.846 8.008C138.134 8.63733 138.545 9.12267 139.078 9.464C139.611 9.79467 140.241 9.96 140.966 9.96C141.702 9.96 142.331 9.79467 142.854 9.464C143.387 9.12267 143.798 8.63733 144.086 8.008C144.374 7.368 144.518 6.60533 144.518 5.72C144.518 4.83467 144.374 4.07733 144.086 3.448C143.798 2.808 143.387 2.32267 142.854 1.992C142.331 1.65067 141.702 1.48 140.966 1.48ZM156.967 0.44V11H155.383L150.967 3.928L149.847 1.944H149.831L149.895 3.544V11H148.679V0.44H150.263L154.663 7.48L155.799 9.512H155.815L155.751 7.896V0.44H156.967ZM167.821 1.64H161.709V5.048H166.477V6.248H161.709V11H160.429V0.44H167.821V1.64ZM178.275 0.44V7.064C178.275 8.41867 177.917 9.44267 177.203 10.136C176.488 10.8187 175.464 11.16 174.131 11.16C172.808 11.16 171.784 10.8187 171.059 10.136C170.344 9.44267 169.987 8.41867 169.987 7.064V0.44H171.267V6.744C171.267 7.84267 171.496 8.65333 171.955 9.176C172.424 9.69867 173.149 9.96 174.131 9.96C175.112 9.96 175.832 9.69867 176.291 9.176C176.76 8.65333 176.995 7.84267 176.995 6.744V0.44H178.275ZM184.915 0.28C185.843 0.28 186.643 0.472 187.315 0.856C187.987 1.22933 188.547 1.784 188.995 2.52L187.923 3.352C187.528 2.66933 187.08 2.18933 186.579 1.912C186.088 1.624 185.491 1.48 184.787 1.48C184.221 1.48 183.752 1.56 183.379 1.72C183.016 1.88 182.749 2.09333 182.579 2.36C182.408 2.616 182.323 2.90933 182.323 3.24C182.323 3.61333 182.44 3.944 182.675 4.232C182.909 4.50933 183.379 4.728 184.083 4.888L186.371 5.4C187.384 5.624 188.088 5.96533 188.483 6.424C188.888 6.872 189.091 7.432 189.091 8.104C189.091 8.70133 188.92 9.23467 188.579 9.704C188.248 10.1627 187.779 10.52 187.171 10.776C186.563 11.032 185.848 11.16 185.027 11.16C184.259 11.16 183.581 11.0587 182.995 10.856C182.419 10.6427 181.923 10.36 181.507 10.008C181.091 9.656 180.749 9.26133 180.483 8.824L181.603 7.912C181.805 8.31733 182.067 8.67467 182.387 8.984C182.707 9.29333 183.091 9.53333 183.539 9.704C183.997 9.87467 184.52 9.96 185.107 9.96C185.651 9.96 186.12 9.896 186.515 9.768C186.92 9.62933 187.229 9.432 187.443 9.176C187.656 8.90933 187.763 8.58933 187.763 8.216C187.763 7.87467 187.651 7.57067 187.427 7.304C187.203 7.02667 186.781 6.81867 186.163 6.68L183.683 6.12C183.032 5.97067 182.504 5.768 182.099 5.512C181.704 5.24533 181.416 4.936 181.235 4.584C181.064 4.22133 180.979 3.832 180.979 3.416C180.979 2.85067 181.133 2.33333 181.443 1.864C181.763 1.384 182.216 0.999999 182.803 0.712C183.4 0.424 184.104 0.28 184.915 0.28ZM200.048 11H198.688L197.568 8.072H192.784L191.664 11H190.32L194.432 0.44H195.952L200.048 11ZM193.248 6.872H197.104L195.168 1.672L193.248 6.872ZM272.472 0.44V11H271.192V0.44H272.472ZM279.319 0.28C280.247 0.28 281.047 0.472 281.719 0.856C282.391 1.22933 282.951 1.784 283.399 2.52L282.327 3.352C281.932 2.66933 281.484 2.18933 280.983 1.912C280.492 1.624 279.895 1.48 279.191 1.48C278.625 1.48 278.156 1.56 277.783 1.72C277.42 1.88 277.153 2.09333 276.983 2.36C276.812 2.616 276.727 2.90933 276.727 3.24C276.727 3.61333 276.844 3.944 277.079 4.232C277.313 4.50933 277.783 4.728 278.487 4.888L280.775 5.4C281.788 5.624 282.492 5.96533 282.887 6.424C283.292 6.872 283.495 7.432 283.495 8.104C283.495 8.70133 283.324 9.23467 282.983 9.704C282.652 10.1627 282.183 10.52 281.575 10.776C280.967 11.032 280.252 11.16 279.431 11.16C278.663 11.16 277.985 11.0587 277.399 10.856C276.823 10.6427 276.327 10.36 275.911 10.008C275.495 9.656 275.153 9.26133 274.887 8.824L276.007 7.912C276.209 8.31733 276.471 8.67467 276.791 8.984C277.111 9.29333 277.495 9.53333 277.943 9.704C278.401 9.87467 278.924 9.96 279.511 9.96C280.055 9.96 280.524 9.896 280.919 9.768C281.324 9.62933 281.633 9.432 281.847 9.176C282.06 8.90933 282.167 8.58933 282.167 8.216C282.167 7.87467 282.055 7.57067 281.831 7.304C281.607 7.02667 281.185 6.81867 280.567 6.68L278.087 6.12C277.436 5.97067 276.908 5.768 276.503 5.512C276.108 5.24533 275.82 4.936 275.639 4.584C275.468 4.22133 275.383 3.832 275.383 3.416C275.383 2.85067 275.537 2.33333 275.847 1.864C276.167 1.384 276.62 0.999999 277.207 0.712C277.804 0.424 278.508 0.28 279.319 0.28ZM363.59 11H362.23L361.11 8.072H356.326L355.206 11H353.862L357.974 0.44H359.494L363.59 11ZM356.79 6.872H360.646L358.71 1.672L356.79 6.872ZM436.015 9.8H442.063V11H434.735V0.44H436.015V9.8ZM448.178 0.28C449.181 0.28 450.045 0.504 450.77 0.952C451.506 1.38933 452.072 2.01333 452.466 2.824C452.872 3.63467 453.074 4.6 453.074 5.72C453.074 6.84 452.872 7.80533 452.466 8.616C452.072 9.42667 451.506 10.056 450.77 10.504C450.045 10.9413 449.181 11.16 448.178 11.16C447.176 11.16 446.306 10.9413 445.57 10.504C444.845 10.056 444.28 9.42667 443.874 8.616C443.48 7.80533 443.282 6.84 443.282 5.72C443.282 4.6 443.48 3.63467 443.874 2.824C444.28 2.01333 444.845 1.38933 445.57 0.952C446.306 0.504 447.176 0.28 448.178 0.28ZM448.178 1.48C447.453 1.48 446.824 1.65067 446.29 1.992C445.757 2.32267 445.346 2.808 445.058 3.448C444.77 4.07733 444.626 4.83467 444.626 5.72C444.626 6.60533 444.77 7.368 445.058 8.008C445.346 8.63733 445.757 9.12267 446.29 9.464C446.824 9.79467 447.453 9.96 448.178 9.96C448.914 9.96 449.544 9.79467 450.066 9.464C450.6 9.12267 451.01 8.63733 451.298 8.008C451.586 7.368 451.73 6.60533 451.73 5.72C451.73 4.83467 451.586 4.07733 451.298 3.448C451.01 2.808 450.6 2.32267 450.066 1.992C449.544 1.65067 448.914 1.48 448.178 1.48ZM459.283 0.28C460.211 0.28 461.011 0.472 461.683 0.856C462.355 1.22933 462.915 1.784 463.363 2.52L462.291 3.352C461.896 2.66933 461.448 2.18933 460.947 1.912C460.456 1.624 459.859 1.48 459.155 1.48C458.59 1.48 458.12 1.56 457.747 1.72C457.384 1.88 457.118 2.09333 456.947 2.36C456.776 2.616 456.691 2.90933 456.691 3.24C456.691 3.61333 456.808 3.944 457.043 4.232C457.278 4.50933 457.747 4.728 458.451 4.888L460.739 5.4C461.752 5.624 462.456 5.96533 462.851 6.424C463.256 6.872 463.459 7.432 463.459 8.104C463.459 8.70133 463.288 9.23467 462.947 9.704C462.616 10.1627 462.147 10.52 461.539 10.776C460.931 11.032 460.216 11.16 459.395 11.16C458.627 11.16 457.95 11.0587 457.363 10.856C456.787 10.6427 456.291 10.36 455.875 10.008C455.459 9.656 455.118 9.26133 454.851 8.824L455.971 7.912C456.174 8.31733 456.435 8.67467 456.755 8.984C457.075 9.29333 457.459 9.53333 457.907 9.704C458.366 9.87467 458.888 9.96 459.475 9.96C460.019 9.96 460.488 9.896 460.883 9.768C461.288 9.62933 461.598 9.432 461.811 9.176C462.024 8.90933 462.131 8.58933 462.131 8.216C462.131 7.87467 462.019 7.57067 461.795 7.304C461.571 7.02667 461.15 6.81867 460.531 6.68L458.051 6.12C457.4 5.97067 456.872 5.768 456.467 5.512C456.072 5.24533 455.784 4.936 455.603 4.584C455.432 4.22133 455.347 3.832 455.347 3.416C455.347 2.85067 455.502 2.33333 455.811 1.864C456.131 1.384 456.584 0.999999 457.171 0.712C457.768 0.424 458.472 0.28 459.283 0.28ZM543.555 11H542.195L541.075 8.072H536.291L535.171 11H533.827L537.939 0.44H539.459L543.555 11ZM536.755 6.872H540.611L538.675 1.672L536.755 6.872ZM553.989 0.44V11H552.405L547.989 3.928L546.869 1.944H546.853L546.917 3.544V11H545.701V0.44H547.285L551.685 7.48L552.821 9.512H552.837L552.773 7.896V0.44H553.989ZM561.707 11.16C560.705 11.16 559.835 10.9413 559.099 10.504C558.374 10.056 557.809 9.42667 557.403 8.616C557.009 7.80533 556.811 6.84 556.811 5.72C556.811 4.6 557.019 3.63467 557.435 2.824C557.862 2.01333 558.454 1.38933 559.211 0.952C559.969 0.504 560.838 0.28 561.819 0.28C562.865 0.28 563.713 0.477333 564.363 0.872C565.025 1.26667 565.558 1.87467 565.963 2.696L564.795 3.336C564.561 2.728 564.187 2.26933 563.675 1.96C563.174 1.64 562.555 1.48 561.819 1.48C561.105 1.48 560.47 1.65067 559.915 1.992C559.371 2.32267 558.939 2.808 558.619 3.448C558.31 4.07733 558.155 4.83467 558.155 5.72C558.155 6.60533 558.289 7.368 558.555 8.008C558.833 8.63733 559.238 9.12267 559.771 9.464C560.315 9.79467 560.977 9.96 561.755 9.96C562.193 9.96 562.598 9.90667 562.971 9.8C563.355 9.68267 563.686 9.512 563.963 9.288C564.251 9.064 564.475 8.78133 564.635 8.44C564.795 8.09867 564.875 7.69867 564.875 7.24V6.872H561.515V5.672H566.043V11H565.035L564.971 9.032L565.243 9.08C564.966 9.74133 564.529 10.2533 563.931 10.616C563.334 10.9787 562.593 11.16 561.707 11.16ZM569.029 11V0.44H576.437V1.64H570.309V5.048H575.077V6.248H570.309V9.8H576.677V11H569.029ZM580.512 9.8H586.56V11H579.232V0.44H580.512V9.8ZM588.795 11V0.44H596.203V1.64H590.075V5.048H594.843V6.248H590.075V9.8H596.443V11H588.795ZM602.39 0.28C603.318 0.28 604.118 0.472 604.79 0.856C605.462 1.22933 606.022 1.784 606.47 2.52L605.398 3.352C605.003 2.66933 604.555 2.18933 604.054 1.912C603.563 1.624 602.966 1.48 602.262 1.48C601.697 1.48 601.227 1.56 600.854 1.72C600.491 1.88 600.225 2.09333 600.054 2.36C599.883 2.616 599.798 2.90933 599.798 3.24C599.798 3.61333 599.915 3.944 600.15 4.232C600.385 4.50933 600.854 4.728 601.558 4.888L603.846 5.4C604.859 5.624 605.563 5.96533 605.958 6.424C606.363 6.872 606.566 7.432 606.566 8.104C606.566 8.70133 606.395 9.23467 606.054 9.704C605.723 10.1627 605.254 10.52 604.646 10.776C604.038 11.032 603.323 11.16 602.502 11.16C601.734 11.16 601.057 11.0587 600.47 10.856C599.894 10.6427 599.398 10.36 598.982 10.008C598.566 9.656 598.225 9.26133 597.958 8.824L599.078 7.912C599.281 8.31733 599.542 8.67467 599.862 8.984C600.182 9.29333 600.566 9.53333 601.014 9.704C601.473 9.87467 601.995 9.96 602.582 9.96C603.126 9.96 603.595 9.896 603.99 9.768C604.395 9.62933 604.705 9.432 604.918 9.176C605.131 8.90933 605.238 8.58933 605.238 8.216C605.238 7.87467 605.126 7.57067 604.902 7.304C604.678 7.02667 604.257 6.81867 603.638 6.68L601.158 6.12C600.507 5.97067 599.979 5.768 599.574 5.512C599.179 5.24533 598.891 4.936 598.71 4.584C598.539 4.22133 598.454 3.832 598.454 3.416C598.454 2.85067 598.609 2.33333 598.918 1.864C599.238 1.384 599.691 0.999999 600.278 0.712C600.875 0.424 601.579 0.28 602.39 0.28ZM678.887 11V0.44H682.647C683.895 0.44 684.807 0.701333 685.383 1.224C685.959 1.74667 686.247 2.456 686.247 3.352C686.247 3.88533 686.092 4.37067 685.783 4.808C685.473 5.23467 685.036 5.50667 684.471 5.624V5.64C685.1 5.75733 685.596 6.04533 685.959 6.504C686.332 6.952 686.519 7.464 686.519 8.04C686.519 8.936 686.183 9.656 685.511 10.2C684.839 10.7333 683.879 11 682.631 11H678.887ZM680.167 9.8H682.935C683.692 9.8 684.252 9.64533 684.615 9.336C684.988 9.02667 685.175 8.59467 685.175 8.04C685.175 7.47467 684.988 7.04267 684.615 6.744C684.252 6.43467 683.692 6.28 682.935 6.28H680.167V9.8ZM680.167 5.08H682.663C684.156 5.08 684.903 4.504 684.903 3.352C684.903 2.21067 684.156 1.64 682.663 1.64H680.167V5.08ZM697.599 11H696.239L695.119 8.072H690.335L689.215 11H687.871L691.983 0.44H693.503L697.599 11ZM690.799 6.872H694.655L692.719 1.672L690.799 6.872ZM703.013 0.28C703.941 0.28 704.741 0.472 705.413 0.856C706.085 1.22933 706.645 1.784 707.093 2.52L706.021 3.352C705.626 2.66933 705.178 2.18933 704.677 1.912C704.186 1.624 703.589 1.48 702.885 1.48C702.32 1.48 701.85 1.56 701.477 1.72C701.114 1.88 700.848 2.09333 700.677 2.36C700.506 2.616 700.421 2.90933 700.421 3.24C700.421 3.61333 700.538 3.944 700.773 4.232C701.008 4.50933 701.477 4.728 702.181 4.888L704.469 5.4C705.482 5.624 706.186 5.96533 706.581 6.424C706.986 6.872 707.189 7.432 707.189 8.104C707.189 8.70133 707.018 9.23467 706.677 9.704C706.346 10.1627 705.877 10.52 705.269 10.776C704.661 11.032 703.946 11.16 703.125 11.16C702.357 11.16 701.68 11.0587 701.093 10.856C700.517 10.6427 700.021 10.36 699.605 10.008C699.189 9.656 698.848 9.26133 698.581 8.824L699.701 7.912C699.904 8.31733 700.165 8.67467 700.485 8.984C700.805 9.29333 701.189 9.53333 701.637 9.704C702.096 9.87467 702.618 9.96 703.205 9.96C703.749 9.96 704.218 9.896 704.613 9.768C705.018 9.62933 705.328 9.432 705.541 9.176C705.754 8.90933 705.861 8.58933 705.861 8.216C705.861 7.87467 705.749 7.57067 705.525 7.304C705.301 7.02667 704.88 6.81867 704.261 6.68L701.781 6.12C701.13 5.97067 700.602 5.768 700.197 5.512C699.802 5.24533 699.514 4.936 699.333 4.584C699.162 4.22133 699.077 3.832 699.077 3.416C699.077 2.85067 699.232 2.33333 699.541 1.864C699.861 1.384 700.314 0.999999 700.901 0.712C701.498 0.424 702.202 0.28 703.013 0.28ZM709.871 11V0.44H717.279V1.64H711.151V5.048H715.919V6.248H711.151V9.8H717.519V11H709.871ZM723.482 0.44C725.135 0.44 726.431 0.898666 727.37 1.816C728.319 2.72267 728.794 4.024 728.794 5.72C728.794 7.416 728.319 8.72267 727.37 9.64C726.431 10.5467 725.135 11 723.482 11H720.074V0.44H723.482ZM723.61 9.8C724.815 9.8 725.754 9.44267 726.426 8.728C727.109 8.00267 727.45 7 727.45 5.72C727.45 4.44 727.109 3.44267 726.426 2.728C725.754 2.00267 724.815 1.64 723.61 1.64H721.354V9.8H723.61ZM809.756 8.296C809.532 8.89333 809.212 9.41067 808.796 9.848C808.38 10.2747 807.889 10.6 807.324 10.824C806.769 11.048 806.161 11.16 805.5 11.16C804.497 11.16 803.628 10.9413 802.892 10.504C802.166 10.056 801.601 9.42667 801.196 8.616C800.801 7.80533 800.604 6.84 800.604 5.72C800.604 4.6 800.801 3.63467 801.196 2.824C801.601 2.01333 802.166 1.38933 802.892 0.952C803.628 0.504 804.486 0.28 805.468 0.28C806.15 0.28 806.758 0.376 807.292 0.568C807.825 0.749333 808.278 1.02667 808.652 1.4C809.036 1.76267 809.34 2.21067 809.564 2.744L808.3 3.336C808.065 2.728 807.724 2.26933 807.276 1.96C806.838 1.64 806.268 1.48 805.564 1.48C804.849 1.48 804.22 1.65067 803.676 1.992C803.132 2.32267 802.705 2.80267 802.396 3.432C802.097 4.06133 801.948 4.824 801.948 5.72C801.948 6.60533 802.092 7.368 802.38 8.008C802.668 8.63733 803.078 9.12267 803.612 9.464C804.145 9.79467 804.774 9.96 805.5 9.96C806.204 9.96 806.817 9.784 807.34 9.432C807.862 9.06933 808.241 8.53067 808.476 7.816L809.756 8.296ZM816.212 0.44C817.29 0.44 818.154 0.717333 818.804 1.272C819.455 1.82667 819.78 2.57867 819.78 3.528C819.78 4.47733 819.45 5.21867 818.788 5.752C818.138 6.27467 817.274 6.536 816.196 6.536L816.084 6.616H813.492V11H812.212V0.44H816.212ZM816.196 5.416C816.954 5.416 817.514 5.26133 817.876 4.952C818.25 4.632 818.436 4.15733 818.436 3.528C818.436 2.89867 818.25 2.42933 817.876 2.12C817.514 1.8 816.954 1.64 816.196 1.64H813.492V5.416H816.196ZM816.932 5.672L820.42 11H818.9L815.86 6.376L816.932 5.672ZM822.853 11V0.44H830.261V1.64H824.133V5.048H828.901V6.248H824.133V9.8H830.501V11H822.853ZM841.472 11H840.112L838.992 8.072H834.208L833.088 11H831.744L835.856 0.44H837.376L841.472 11ZM834.672 6.872H838.528L836.592 1.672L834.672 6.872ZM849.605 0.44V1.64H845.925V11H844.645V1.64H840.965V0.44H849.605ZM853.117 0.44V11H851.837V0.44H853.117ZM864.764 0.44L860.764 11H859.308L855.292 0.44H856.668L859.356 7.736L860.028 9.832L860.7 7.752L863.388 0.44H864.764ZM866.947 11V0.44H874.355V1.64H868.227V5.048H872.995V6.248H868.227V9.8H874.595V11H866.947ZM948.068 9.8H954.116V11H946.788V0.44H948.068V9.8ZM964.767 11H963.407L962.287 8.072H957.503L956.383 11H955.039L959.151 0.44H960.671L964.767 11ZM957.967 6.872H961.823L959.887 1.672L957.967 6.872ZM966.913 11V0.44H970.673C971.921 0.44 972.833 0.701333 973.409 1.224C973.985 1.74667 974.273 2.456 974.273 3.352C974.273 3.88533 974.119 4.37067 973.809 4.808C973.5 5.23467 973.063 5.50667 972.497 5.624V5.64C973.127 5.75733 973.623 6.04533 973.985 6.504C974.359 6.952 974.545 7.464 974.545 8.04C974.545 8.936 974.209 9.656 973.537 10.2C972.865 10.7333 971.905 11 970.657 11H966.913ZM968.193 9.8H970.961C971.719 9.8 972.279 9.64533 972.641 9.336C973.015 9.02667 973.201 8.59467 973.201 8.04C973.201 7.47467 973.015 7.04267 972.641 6.744C972.279 6.43467 971.719 6.28 970.961 6.28H968.193V9.8ZM968.193 5.08H970.689C972.183 5.08 972.929 4.504 972.929 3.352C972.929 2.21067 972.183 1.64 970.689 1.64H968.193V5.08ZM981.622 0.28C982.625 0.28 983.489 0.504 984.214 0.952C984.95 1.38933 985.516 2.01333 985.91 2.824C986.316 3.63467 986.518 4.6 986.518 5.72C986.518 6.84 986.316 7.80533 985.91 8.616C985.516 9.42667 984.95 10.056 984.214 10.504C983.489 10.9413 982.625 11.16 981.622 11.16C980.62 11.16 979.75 10.9413 979.014 10.504C978.289 10.056 977.724 9.42667 977.318 8.616C976.924 7.80533 976.726 6.84 976.726 5.72C976.726 4.6 976.924 3.63467 977.318 2.824C977.724 2.01333 978.289 1.38933 979.014 0.952C979.75 0.504 980.62 0.28 981.622 0.28ZM981.622 1.48C980.897 1.48 980.268 1.65067 979.734 1.992C979.201 2.32267 978.79 2.808 978.502 3.448C978.214 4.07733 978.07 4.83467 978.07 5.72C978.07 6.60533 978.214 7.368 978.502 8.008C978.79 8.63733 979.201 9.12267 979.734 9.464C980.268 9.79467 980.897 9.96 981.622 9.96C982.358 9.96 982.988 9.79467 983.51 9.464C984.044 9.12267 984.454 8.63733 984.742 8.008C985.03 7.368 985.174 6.60533 985.174 5.72C985.174 4.83467 985.03 4.07733 984.742 3.448C984.454 2.808 984.044 2.32267 983.51 1.992C982.988 1.65067 982.358 1.48 981.622 1.48ZM993.335 0.44C994.412 0.44 995.276 0.717333 995.927 1.272C996.578 1.82667 996.903 2.57867 996.903 3.528C996.903 4.47733 996.572 5.21867 995.911 5.752C995.26 6.27467 994.396 6.536 993.319 6.536L993.207 6.616H990.615V11H989.335V0.44H993.335ZM993.319 5.416C994.076 5.416 994.636 5.26133 994.999 4.952C995.372 4.632 995.559 4.15733 995.559 3.528C995.559 2.89867 995.372 2.42933 994.999 2.12C994.636 1.8 994.076 1.64 993.319 1.64H990.615V5.416H993.319ZM994.055 5.672L997.543 11H996.023L992.983 6.376L994.055 5.672ZM1008.39 11H1007.03L1005.91 8.072H1001.13L1000.01 11H998.664L1002.78 0.44H1004.3L1008.39 11ZM1001.59 6.872H1005.45L1003.51 1.672L1001.59 6.872ZM1016.52 0.44V1.64H1012.84V11H1011.56V1.64H1007.88V0.44H1016.52ZM1022.65 0.28C1023.66 0.28 1024.52 0.504 1025.25 0.952C1025.98 1.38933 1026.55 2.01333 1026.94 2.824C1027.35 3.63467 1027.55 4.6 1027.55 5.72C1027.55 6.84 1027.35 7.80533 1026.94 8.616C1026.55 9.42667 1025.98 10.056 1025.25 10.504C1024.52 10.9413 1023.66 11.16 1022.65 11.16C1021.65 11.16 1020.78 10.9413 1020.05 10.504C1019.32 10.056 1018.75 9.42667 1018.35 8.616C1017.95 7.80533 1017.76 6.84 1017.76 5.72C1017.76 4.6 1017.95 3.63467 1018.35 2.824C1018.75 2.01333 1019.32 1.38933 1020.05 0.952C1020.78 0.504 1021.65 0.28 1022.65 0.28ZM1022.65 1.48C1021.93 1.48 1021.3 1.65067 1020.77 1.992C1020.23 2.32267 1019.82 2.808 1019.53 3.448C1019.25 4.07733 1019.1 4.83467 1019.1 5.72C1019.1 6.60533 1019.25 7.368 1019.53 8.008C1019.82 8.63733 1020.23 9.12267 1020.77 9.464C1021.3 9.79467 1021.93 9.96 1022.65 9.96C1023.39 9.96 1024.02 9.79467 1024.54 9.464C1025.07 9.12267 1025.49 8.63733 1025.77 8.008C1026.06 7.368 1026.21 6.60533 1026.21 5.72C1026.21 4.83467 1026.06 4.07733 1025.77 3.448C1025.49 2.808 1025.07 2.32267 1024.54 1.992C1024.02 1.65067 1023.39 1.48 1022.65 1.48ZM1034.37 0.44C1035.44 0.44 1036.31 0.717333 1036.96 1.272C1037.61 1.82667 1037.93 2.57867 1037.93 3.528C1037.93 4.47733 1037.6 5.21867 1036.94 5.752C1036.29 6.27467 1035.43 6.536 1034.35 6.536L1034.24 6.616H1031.65V11H1030.37V0.44H1034.37ZM1034.35 5.416C1035.11 5.416 1035.67 5.26133 1036.03 4.952C1036.4 4.632 1036.59 4.15733 1036.59 3.528C1036.59 2.89867 1036.4 2.42933 1036.03 2.12C1035.67 1.8 1035.11 1.64 1034.35 1.64H1031.65V5.416H1034.35ZM1035.09 5.672L1038.57 11H1037.05L1034.01 6.376L1035.09 5.672ZM1047.91 0.44L1044.14 6.872V11H1042.86V6.872L1039.08 0.44H1040.6L1042.65 4.056L1043.5 5.56L1044.34 4.056L1046.39 0.44H1047.91ZM1118.77 11V0.44H1126.18V1.64H1120.05V5.048H1124.82V6.248H1120.05V9.8H1126.42V11H1118.77ZM1136.35 11H1134.88L1132.01 6.648L1129.13 11H1127.65L1131.34 5.624L1127.97 0.44H1129.47L1132.14 4.552L1134.85 0.44H1136.24L1132.81 5.56L1136.35 11ZM1142.31 0.44C1143.03 0.44 1143.64 0.573333 1144.17 0.839999C1144.7 1.096 1145.12 1.464 1145.41 1.944C1145.71 2.424 1145.86 2.99467 1145.86 3.656C1145.86 4.31733 1145.71 4.888 1145.41 5.368C1145.12 5.848 1144.7 6.22133 1144.17 6.488C1143.64 6.744 1143.03 6.872 1142.31 6.872H1139.86V11H1138.58V0.44H1142.31ZM1142.12 5.672C1142.95 5.672 1143.56 5.50133 1143.94 5.16C1144.33 4.808 1144.52 4.30667 1144.52 3.656C1144.52 2.99467 1144.33 2.49333 1143.94 2.152C1143.56 1.81067 1142.95 1.64 1142.12 1.64H1139.86V5.672H1142.12ZM1149.63 9.8H1155.68V11H1148.35V0.44H1149.63V9.8ZM1161.79 0.28C1162.79 0.28 1163.66 0.504 1164.38 0.952C1165.12 1.38933 1165.69 2.01333 1166.08 2.824C1166.49 3.63467 1166.69 4.6 1166.69 5.72C1166.69 6.84 1166.49 7.80533 1166.08 8.616C1165.69 9.42667 1165.12 10.056 1164.38 10.504C1163.66 10.9413 1162.79 11.16 1161.79 11.16C1160.79 11.16 1159.92 10.9413 1159.18 10.504C1158.46 10.056 1157.89 9.42667 1157.49 8.616C1157.09 7.80533 1156.9 6.84 1156.9 5.72C1156.9 4.6 1157.09 3.63467 1157.49 2.824C1157.89 2.01333 1158.46 1.38933 1159.18 0.952C1159.92 0.504 1160.79 0.28 1161.79 0.28ZM1161.79 1.48C1161.07 1.48 1160.44 1.65067 1159.9 1.992C1159.37 2.32267 1158.96 2.808 1158.67 3.448C1158.38 4.07733 1158.24 4.83467 1158.24 5.72C1158.24 6.60533 1158.38 7.368 1158.67 8.008C1158.96 8.63733 1159.37 9.12267 1159.9 9.464C1160.44 9.79467 1161.07 9.96 1161.79 9.96C1162.53 9.96 1163.16 9.79467 1163.68 9.464C1164.21 9.12267 1164.62 8.63733 1164.91 8.008C1165.2 7.368 1165.34 6.60533 1165.34 5.72C1165.34 4.83467 1165.2 4.07733 1164.91 3.448C1164.62 2.808 1164.21 2.32267 1163.68 1.992C1163.16 1.65067 1162.53 1.48 1161.79 1.48ZM1173.5 0.44C1174.58 0.44 1175.45 0.717333 1176.1 1.272C1176.75 1.82667 1177.07 2.57867 1177.07 3.528C1177.07 4.47733 1176.74 5.21867 1176.08 5.752C1175.43 6.27467 1174.57 6.536 1173.49 6.536L1173.38 6.616H1170.78V11H1169.5V0.44H1173.5ZM1173.49 5.416C1174.25 5.416 1174.81 5.26133 1175.17 4.952C1175.54 4.632 1175.73 4.15733 1175.73 3.528C1175.73 2.89867 1175.54 2.42933 1175.17 2.12C1174.81 1.8 1174.25 1.64 1173.49 1.64H1170.78V5.416H1173.49ZM1174.22 5.672L1177.71 11H1176.19L1173.15 6.376L1174.22 5.672ZM1181.43 0.44V11H1180.15V0.44H1181.43ZM1193.17 0.44V11H1191.58L1187.17 3.928L1186.05 1.944H1186.03L1186.1 3.544V11H1184.88V0.44H1186.46L1190.86 7.48L1192 9.512H1192.02L1191.95 7.896V0.44H1193.17ZM1200.89 11.16C1199.88 11.16 1199.01 10.9413 1198.28 10.504C1197.55 10.056 1196.99 9.42667 1196.58 8.616C1196.19 7.80533 1195.99 6.84 1195.99 5.72C1195.99 4.6 1196.2 3.63467 1196.61 2.824C1197.04 2.01333 1197.63 1.38933 1198.39 0.952C1199.15 0.504 1200.02 0.28 1201 0.28C1202.04 0.28 1202.89 0.477333 1203.54 0.872C1204.2 1.26667 1204.74 1.87467 1205.14 2.696L1203.97 3.336C1203.74 2.728 1203.37 2.26933 1202.85 1.96C1202.35 1.64 1201.73 1.48 1201 1.48C1200.28 1.48 1199.65 1.65067 1199.09 1.992C1198.55 2.32267 1198.12 2.808 1197.8 3.448C1197.49 4.07733 1197.33 4.83467 1197.33 5.72C1197.33 6.60533 1197.47 7.368 1197.73 8.008C1198.01 8.63733 1198.42 9.12267 1198.95 9.464C1199.49 9.79467 1200.16 9.96 1200.93 9.96C1201.37 9.96 1201.78 9.90667 1202.15 9.8C1202.53 9.68267 1202.86 9.512 1203.14 9.288C1203.43 9.064 1203.65 8.78133 1203.81 8.44C1203.97 8.09867 1204.05 7.69867 1204.05 7.24V6.872H1200.69V5.672H1205.22V11H1204.21L1204.15 9.032L1204.42 9.08C1204.14 9.74133 1203.71 10.2533 1203.11 10.616C1202.51 10.9787 1201.77 11.16 1200.89 11.16ZM1284.83 0.44V1.64H1281.15V11H1279.87V1.64H1276.19V0.44H1284.83ZM1295.35 0.44V11H1294.07V0.44H1295.35ZM1288.35 0.44V11H1287.07V0.44H1288.35ZM1294.67 5.048V6.248H1287.74V5.048H1294.67ZM1298.82 11V0.44H1306.22V1.64H1300.1V5.048H1304.86V6.248H1300.1V9.8H1306.46V11H1298.82ZM1382.05 0.28C1382.98 0.28 1383.78 0.472 1384.45 0.856C1385.12 1.22933 1385.68 1.784 1386.13 2.52L1385.06 3.352C1384.66 2.66933 1384.21 2.18933 1383.71 1.912C1383.22 1.624 1382.62 1.48 1381.92 1.48C1381.36 1.48 1380.89 1.56 1380.51 1.72C1380.15 1.88 1379.88 2.09333 1379.71 2.36C1379.54 2.616 1379.46 2.90933 1379.46 3.24C1379.46 3.61333 1379.57 3.944 1379.81 4.232C1380.04 4.50933 1380.51 4.728 1381.22 4.888L1383.5 5.4C1384.52 5.624 1385.22 5.96533 1385.62 6.424C1386.02 6.872 1386.22 7.432 1386.22 8.104C1386.22 8.70133 1386.05 9.23467 1385.71 9.704C1385.38 10.1627 1384.91 10.52 1384.3 10.776C1383.7 11.032 1382.98 11.16 1382.16 11.16C1381.39 11.16 1380.72 11.0587 1380.13 10.856C1379.55 10.6427 1379.06 10.36 1378.64 10.008C1378.22 9.656 1377.88 9.26133 1377.62 8.824L1378.74 7.912C1378.94 8.31733 1379.2 8.67467 1379.52 8.984C1379.84 9.29333 1380.22 9.53333 1380.67 9.704C1381.13 9.87467 1381.65 9.96 1382.24 9.96C1382.78 9.96 1383.25 9.896 1383.65 9.768C1384.05 9.62933 1384.36 9.432 1384.58 9.176C1384.79 8.90933 1384.9 8.58933 1384.9 8.216C1384.9 7.87467 1384.78 7.57067 1384.56 7.304C1384.34 7.02667 1383.92 6.81867 1383.3 6.68L1380.82 6.12C1380.17 5.97067 1379.64 5.768 1379.23 5.512C1378.84 5.24533 1378.55 4.936 1378.37 4.584C1378.2 4.22133 1378.11 3.832 1378.11 3.416C1378.11 2.85067 1378.27 2.33333 1378.58 1.864C1378.9 1.384 1379.35 0.999999 1379.94 0.712C1380.53 0.424 1381.24 0.28 1382.05 0.28ZM1396.99 0.44V7.064C1396.99 8.41867 1396.63 9.44267 1395.91 10.136C1395.2 10.8187 1394.18 11.16 1392.84 11.16C1391.52 11.16 1390.5 10.8187 1389.77 10.136C1389.06 9.44267 1388.7 8.41867 1388.7 7.064V0.44H1389.98V6.744C1389.98 7.84267 1390.21 8.65333 1390.67 9.176C1391.14 9.69867 1391.86 9.96 1392.84 9.96C1393.82 9.96 1394.54 9.69867 1395 9.176C1395.47 8.65333 1395.71 7.84267 1395.71 6.744V0.44H1396.99ZM1400.23 11V0.44H1403.99C1405.24 0.44 1406.15 0.701333 1406.73 1.224C1407.31 1.74667 1407.59 2.456 1407.59 3.352C1407.59 3.88533 1407.44 4.37067 1407.13 4.808C1406.82 5.23467 1406.38 5.50667 1405.82 5.624V5.64C1406.45 5.75733 1406.94 6.04533 1407.31 6.504C1407.68 6.952 1407.87 7.464 1407.87 8.04C1407.87 8.936 1407.53 9.656 1406.86 10.2C1406.19 10.7333 1405.23 11 1403.98 11H1400.23ZM1401.51 9.8H1404.28C1405.04 9.8 1405.6 9.64533 1405.96 9.336C1406.34 9.02667 1406.52 8.59467 1406.52 8.04C1406.52 7.47467 1406.34 7.04267 1405.96 6.744C1405.6 6.43467 1405.04 6.28 1404.28 6.28H1401.51V9.8ZM1401.51 5.08H1404.01C1405.5 5.08 1406.25 4.504 1406.25 3.352C1406.25 2.21067 1405.5 1.64 1404.01 1.64H1401.51V5.08ZM1417.99 0.44V1.64H1414.31V11H1413.03V1.64H1409.35V0.44H1417.99ZM1421.5 9.8H1427.55V11H1420.22V0.44H1421.5V9.8ZM1429.78 11V0.44H1437.19V1.64H1431.06V5.048H1435.83V6.248H1431.06V9.8H1437.43V11H1429.78ZM1517.4 11H1516.04L1514.92 8.072H1510.13L1509.01 11H1507.67L1511.78 0.44H1513.3L1517.4 11ZM1510.6 6.872H1514.45L1512.52 1.672L1510.6 6.872ZM1523.55 0.44C1524.62 0.44 1525.49 0.717333 1526.14 1.272C1526.79 1.82667 1527.11 2.57867 1527.11 3.528C1527.11 4.47733 1526.78 5.21867 1526.12 5.752C1525.47 6.27467 1524.61 6.536 1523.53 6.536L1523.42 6.616H1520.83V11H1519.55V0.44H1523.55ZM1523.53 5.416C1524.29 5.416 1524.85 5.26133 1525.21 4.952C1525.58 4.632 1525.77 4.15733 1525.77 3.528C1525.77 2.89867 1525.58 2.42933 1525.21 2.12C1524.85 1.8 1524.29 1.64 1523.53 1.64H1520.83V5.416H1523.53ZM1524.27 5.672L1527.75 11H1526.23L1523.19 6.376L1524.27 5.672ZM1537.3 0.44V1.64H1533.62V11H1532.34V1.64H1528.66V0.44H1537.3ZM1612.99 0.28C1613.99 0.28 1614.85 0.504 1615.58 0.952C1616.31 1.38933 1616.88 2.01333 1617.27 2.824C1617.68 3.63467 1617.88 4.6 1617.88 5.72C1617.88 6.84 1617.68 7.80533 1617.27 8.616C1616.88 9.42667 1616.31 10.056 1615.58 10.504C1614.85 10.9413 1613.99 11.16 1612.99 11.16C1611.98 11.16 1611.11 10.9413 1610.38 10.504C1609.65 10.056 1609.09 9.42667 1608.68 8.616C1608.29 7.80533 1608.09 6.84 1608.09 5.72C1608.09 4.6 1608.29 3.63467 1608.68 2.824C1609.09 2.01333 1609.65 1.38933 1610.38 0.952C1611.11 0.504 1611.98 0.28 1612.99 0.28ZM1612.99 1.48C1612.26 1.48 1611.63 1.65067 1611.1 1.992C1610.56 2.32267 1610.15 2.808 1609.87 3.448C1609.58 4.07733 1609.43 4.83467 1609.43 5.72C1609.43 6.60533 1609.58 7.368 1609.87 8.008C1610.15 8.63733 1610.56 9.12267 1611.1 9.464C1611.63 9.79467 1612.26 9.96 1612.99 9.96C1613.72 9.96 1614.35 9.79467 1614.87 9.464C1615.41 9.12267 1615.82 8.63733 1616.11 8.008C1616.39 7.368 1616.54 6.60533 1616.54 5.72C1616.54 4.83467 1616.39 4.07733 1616.11 3.448C1615.82 2.808 1615.41 2.32267 1614.87 1.992C1614.35 1.65067 1613.72 1.48 1612.99 1.48ZM1628.09 1.64H1621.98V5.048H1626.75V6.248H1621.98V11H1620.7V0.44H1628.09V1.64ZM9.152 17.44V18.64H5.472V28H4.192V18.64H0.512V17.44H9.152ZM15.3843 17.44C16.4616 17.44 17.3256 17.7173 17.9763 18.272C18.6269 18.8267 18.9523 19.5787 18.9523 20.528C18.9523 21.4773 18.6216 22.2187 17.9603 22.752C17.3096 23.2747 16.4456 23.536 15.3683 23.536L15.2563 23.616H12.6643V28H11.3843V17.44H15.3843ZM15.3683 22.416C16.1256 22.416 16.6856 22.2613 17.0483 21.952C17.4216 21.632 17.6083 21.1573 17.6083 20.528C17.6083 19.8987 17.4216 19.4293 17.0483 19.12C16.6856 18.8 16.1256 18.64 15.3683 18.64H12.6643V22.416H15.3683ZM16.1043 22.672L19.5923 28H18.0723L15.0323 23.376L16.1043 22.672ZM30.4409 28H29.0809L27.9609 25.072H23.1769L22.0569 28H20.7129L24.8249 17.44H26.3449L30.4409 28ZM23.6409 23.872H27.4969L25.5609 18.672L23.6409 23.872ZM40.8754 17.44V28H39.2914L34.8754 20.928L33.7554 18.944H33.7394L33.8034 20.544V28H32.5874V17.44H34.1714L38.5714 24.48L39.7074 26.512H39.7234L39.6594 24.896V17.44H40.8754ZM47.7294 17.28C48.6574 17.28 49.4574 17.472 50.1294 17.856C50.8014 18.2293 51.3614 18.784 51.8094 19.52L50.7374 20.352C50.3427 19.6693 49.8947 19.1893 49.3934 18.912C48.9027 18.624 48.3054 18.48 47.6014 18.48C47.036 18.48 46.5667 18.56 46.1934 18.72C45.8307 18.88 45.564 19.0933 45.3934 19.36C45.2227 19.616 45.1374 19.9093 45.1374 20.24C45.1374 20.6133 45.2547 20.944 45.4894 21.232C45.724 21.5093 46.1934 21.728 46.8974 21.888L49.1854 22.4C50.1987 22.624 50.9027 22.9653 51.2974 23.424C51.7027 23.872 51.9054 24.432 51.9054 25.104C51.9054 25.7013 51.7347 26.2347 51.3934 26.704C51.0627 27.1627 50.5934 27.52 49.9854 27.776C49.3774 28.032 48.6627 28.16 47.8414 28.16C47.0734 28.16 46.396 28.0587 45.8094 27.856C45.2334 27.6427 44.7374 27.36 44.3214 27.008C43.9054 26.656 43.564 26.2613 43.2974 25.824L44.4174 24.912C44.62 25.3173 44.8814 25.6747 45.2014 25.984C45.5214 26.2933 45.9054 26.5333 46.3534 26.704C46.812 26.8747 47.3347 26.96 47.9214 26.96C48.4654 26.96 48.9347 26.896 49.3294 26.768C49.7347 26.6293 50.044 26.432 50.2574 26.176C50.4707 25.9093 50.5774 25.5893 50.5774 25.216C50.5774 24.8747 50.4654 24.5707 50.2414 24.304C50.0174 24.0267 49.596 23.8187 48.9774 23.68L46.4974 23.12C45.8467 22.9707 45.3187 22.768 44.9134 22.512C44.5187 22.2453 44.2307 21.936 44.0494 21.584C43.8787 21.2213 43.7934 20.832 43.7934 20.416C43.7934 19.8507 43.948 19.3333 44.2574 18.864C44.5774 18.384 45.0307 18 45.6174 17.712C46.2147 17.424 46.9187 17.28 47.7294 17.28ZM61.9794 18.64H55.8674V22.048H60.6354V23.248H55.8674V28H54.5874V17.44H61.9794V18.64ZM68.4215 17.28C69.4242 17.28 70.2882 17.504 71.0135 17.952C71.7495 18.3893 72.3148 19.0133 72.7095 19.824C73.1148 20.6347 73.3175 21.6 73.3175 22.72C73.3175 23.84 73.1148 24.8053 72.7095 25.616C72.3148 26.4267 71.7495 27.056 71.0135 27.504C70.2882 27.9413 69.4242 28.16 68.4215 28.16C67.4188 28.16 66.5495 27.9413 65.8135 27.504C65.0882 27.056 64.5228 26.4267 64.1175 25.616C63.7228 24.8053 63.5255 23.84 63.5255 22.72C63.5255 21.6 63.7228 20.6347 64.1175 19.824C64.5228 19.0133 65.0882 18.3893 65.8135 17.952C66.5495 17.504 67.4188 17.28 68.4215 17.28ZM68.4215 18.48C67.6962 18.48 67.0668 18.6507 66.5335 18.992C66.0002 19.3227 65.5895 19.808 65.3015 20.448C65.0135 21.0773 64.8695 21.8347 64.8695 22.72C64.8695 23.6053 65.0135 24.368 65.3015 25.008C65.5895 25.6373 66.0002 26.1227 66.5335 26.464C67.0668 26.7947 67.6962 26.96 68.4215 26.96C69.1575 26.96 69.7868 26.7947 70.3095 26.464C70.8428 26.1227 71.2535 25.6373 71.5415 25.008C71.8295 24.368 71.9735 23.6053 71.9735 22.72C71.9735 21.8347 71.8295 21.0773 71.5415 20.448C71.2535 19.808 70.8428 19.3227 70.3095 18.992C69.7868 18.6507 69.1575 18.48 68.4215 18.48ZM80.1343 17.44C81.2116 17.44 82.0756 17.7173 82.7263 18.272C83.3769 18.8267 83.7023 19.5787 83.7023 20.528C83.7023 21.4773 83.3716 22.2187 82.7103 22.752C82.0596 23.2747 81.1956 23.536 80.1183 23.536L80.0063 23.616H77.4143V28H76.1343V17.44H80.1343ZM80.1183 22.416C80.8756 22.416 81.4356 22.2613 81.7983 21.952C82.1716 21.632 82.3583 21.1573 82.3583 20.528C82.3583 19.8987 82.1716 19.4293 81.7983 19.12C81.4356 18.8 80.8756 18.64 80.1183 18.64H77.4143V22.416H80.1183ZM80.8543 22.672L84.3423 28H82.8223L79.7823 23.376L80.8543 22.672ZM96.9829 17.44V28H95.7669V21.36L95.9109 18.576H95.8949L92.4229 28H91.3349L87.8629 18.576H87.8469L87.9909 21.36V28H86.7749V17.44H88.7429L91.0629 23.856L91.8629 26.496H91.8949L92.7109 23.872L95.0149 17.44H96.9829ZM108.847 28H107.487L106.367 25.072H101.583L100.463 28H99.1191L103.231 17.44H104.751L108.847 28ZM102.047 23.872H105.903L103.967 18.672L102.047 23.872ZM116.98 17.44V18.64H113.3V28H112.02V18.64H108.34V17.44H116.98ZM120.492 17.44V28H119.212V17.44H120.492ZM128.203 17.28C129.205 17.28 130.069 17.504 130.795 17.952C131.531 18.3893 132.096 19.0133 132.491 19.824C132.896 20.6347 133.099 21.6 133.099 22.72C133.099 23.84 132.896 24.8053 132.491 25.616C132.096 26.4267 131.531 27.056 130.795 27.504C130.069 27.9413 129.205 28.16 128.203 28.16C127.2 28.16 126.331 27.9413 125.595 27.504C124.869 27.056 124.304 26.4267 123.899 25.616C123.504 24.8053 123.307 23.84 123.307 22.72C123.307 21.6 123.504 20.6347 123.899 19.824C124.304 19.0133 124.869 18.3893 125.595 17.952C126.331 17.504 127.2 17.28 128.203 17.28ZM128.203 18.48C127.477 18.48 126.848 18.6507 126.315 18.992C125.781 19.3227 125.371 19.808 125.083 20.448C124.795 21.0773 124.651 21.8347 124.651 22.72C124.651 23.6053 124.795 24.368 125.083 25.008C125.371 25.6373 125.781 26.1227 126.315 26.464C126.848 26.7947 127.477 26.96 128.203 26.96C128.939 26.96 129.568 26.7947 130.091 26.464C130.624 26.1227 131.035 25.6373 131.323 25.008C131.611 24.368 131.755 23.6053 131.755 22.72C131.755 21.8347 131.611 21.0773 131.323 20.448C131.035 19.808 130.624 19.3227 130.091 18.992C129.568 18.6507 128.939 18.48 128.203 18.48ZM144.204 17.44V28H142.62L138.204 20.928L137.084 18.944H137.068L137.132 20.544V28H135.916V17.44H137.5L141.9 24.48L143.036 26.512H143.052L142.988 24.896V17.44H144.204ZM148.066 26.08C148.375 26.08 148.626 26.176 148.818 26.368C149.01 26.56 149.106 26.8107 149.106 27.12C149.106 27.4293 149.01 27.68 148.818 27.872C148.626 28.064 148.375 28.16 148.066 28.16C147.756 28.16 147.506 28.064 147.314 27.872C147.122 27.68 147.026 27.4293 147.026 27.12C147.026 26.8107 147.122 26.56 147.314 26.368C147.506 26.176 147.756 26.08 148.066 26.08ZM165.657 17.44V28H164.377V17.44H165.657ZM158.649 17.44V28H157.369V17.44H158.649ZM164.969 22.048V23.248H158.041V22.048H164.969ZM169.119 28V17.44H176.527V18.64H170.399V22.048H175.167V23.248H170.399V26.8H176.767V28H169.119ZM183.322 17.44C184.399 17.44 185.263 17.7173 185.914 18.272C186.564 18.8267 186.89 19.5787 186.89 20.528C186.89 21.4773 186.559 22.2187 185.898 22.752C185.247 23.2747 184.383 23.536 183.306 23.536L183.194 23.616H180.602V28H179.322V17.44H183.322ZM183.306 22.416C184.063 22.416 184.623 22.2613 184.986 21.952C185.359 21.632 185.546 21.1573 185.546 20.528C185.546 19.8987 185.359 19.4293 184.986 19.12C184.623 18.8 184.063 18.64 183.306 18.64H180.602V22.416H183.306ZM184.042 22.672L187.53 28H186.01L182.97 23.376L184.042 22.672ZM189.962 28V17.44H197.37V18.64H191.242V22.048H196.01V23.248H191.242V26.8H197.61V28H189.962ZM200.566 26.08C200.822 26.08 201.035 26.1493 201.206 26.288C201.387 26.416 201.526 26.5973 201.622 26.832C201.718 27.056 201.766 27.3227 201.766 27.632C201.766 27.984 201.702 28.3307 201.574 28.672C201.456 29.0133 201.27 29.328 201.014 29.616C200.758 29.904 200.427 30.144 200.022 30.336L199.35 29.712C199.638 29.616 199.888 29.4827 200.102 29.312C200.326 29.1413 200.507 28.9493 200.646 28.736C200.784 28.5227 200.875 28.304 200.918 28.08L200.854 28.048C200.811 28.08 200.758 28.1067 200.694 28.128C200.63 28.1493 200.534 28.16 200.406 28.16C200.278 28.16 200.144 28.1227 200.006 28.048C199.878 27.9733 199.766 27.8667 199.67 27.728C199.574 27.5787 199.526 27.3867 199.526 27.152C199.526 26.96 199.574 26.784 199.67 26.624C199.766 26.4533 199.888 26.32 200.038 26.224C200.198 26.128 200.374 26.08 200.566 26.08ZM218.381 25.296C218.157 25.8933 217.837 26.4107 217.421 26.848C217.005 27.2747 216.514 27.6 215.949 27.824C215.394 28.048 214.786 28.16 214.125 28.16C213.122 28.16 212.253 27.9413 211.517 27.504C210.791 27.056 210.226 26.4267 209.821 25.616C209.426 24.8053 209.229 23.84 209.229 22.72C209.229 21.6 209.426 20.6347 209.821 19.824C210.226 19.0133 210.791 18.3893 211.517 17.952C212.253 17.504 213.111 17.28 214.093 17.28C214.775 17.28 215.383 17.376 215.917 17.568C216.45 17.7493 216.903 18.0267 217.277 18.4C217.661 18.7627 217.965 19.2107 218.189 19.744L216.925 20.336C216.69 19.728 216.349 19.2693 215.901 18.96C215.463 18.64 214.893 18.48 214.189 18.48C213.474 18.48 212.845 18.6507 212.301 18.992C211.757 19.3227 211.33 19.8027 211.021 20.432C210.722 21.0613 210.573 21.824 210.573 22.72C210.573 23.6053 210.717 24.368 211.005 25.008C211.293 25.6373 211.703 26.1227 212.237 26.464C212.77 26.7947 213.399 26.96 214.125 26.96C214.829 26.96 215.442 26.784 215.965 26.432C216.487 26.0693 216.866 25.5307 217.101 24.816L218.381 25.296ZM224.837 17.44C225.915 17.44 226.779 17.7173 227.429 18.272C228.08 18.8267 228.405 19.5787 228.405 20.528C228.405 21.4773 228.075 22.2187 227.413 22.752C226.763 23.2747 225.899 23.536 224.821 23.536L224.709 23.616H222.117V28H220.837V17.44H224.837ZM224.821 22.416C225.579 22.416 226.139 22.2613 226.501 21.952C226.875 21.632 227.061 21.1573 227.061 20.528C227.061 19.8987 226.875 19.4293 226.501 19.12C226.139 18.8 225.579 18.64 224.821 18.64H222.117V22.416H224.821ZM225.557 22.672L229.045 28H227.525L224.485 23.376L225.557 22.672ZM231.478 28V17.44H238.886V18.64H232.758V22.048H237.526V23.248H232.758V26.8H239.126V28H231.478ZM250.097 28H248.737L247.617 25.072H242.833L241.713 28H240.369L244.481 17.44H246.001L250.097 28ZM243.297 23.872H247.153L245.217 18.672L243.297 23.872ZM258.23 17.44V18.64H254.55V28H253.27V18.64H249.59V17.44H258.23ZM261.742 17.44V28H260.462V17.44H261.742ZM273.389 17.44L269.389 28H267.933L263.917 17.44H265.293L267.981 24.736L268.653 26.832L269.325 24.752L272.013 17.44H273.389ZM275.572 28V17.44H282.98V18.64H276.852V22.048H281.62V23.248H276.852V26.8H283.22V28H275.572ZM299.74 25.296C299.516 25.8933 299.196 26.4107 298.78 26.848C298.364 27.2747 297.873 27.6 297.308 27.824C296.753 28.048 296.145 28.16 295.484 28.16C294.481 28.16 293.612 27.9413 292.876 27.504C292.151 27.056 291.585 26.4267 291.18 25.616C290.785 24.8053 290.588 23.84 290.588 22.72C290.588 21.6 290.785 20.6347 291.18 19.824C291.585 19.0133 292.151 18.3893 292.876 17.952C293.612 17.504 294.471 17.28 295.452 17.28C296.135 17.28 296.743 17.376 297.276 17.568C297.809 17.7493 298.263 18.0267 298.636 18.4C299.02 18.7627 299.324 19.2107 299.548 19.744L298.284 20.336C298.049 19.728 297.708 19.2693 297.26 18.96C296.823 18.64 296.252 18.48 295.548 18.48C294.833 18.48 294.204 18.6507 293.66 18.992C293.116 19.3227 292.689 19.8027 292.38 20.432C292.081 21.0613 291.932 21.824 291.932 22.72C291.932 23.6053 292.076 24.368 292.364 25.008C292.652 25.6373 293.063 26.1227 293.596 26.464C294.129 26.7947 294.759 26.96 295.484 26.96C296.188 26.96 296.801 26.784 297.324 26.432C297.847 26.0693 298.225 25.5307 298.46 24.816L299.74 25.296ZM310.485 17.44V28H309.205V17.44H310.485ZM303.477 17.44V28H302.197V17.44H303.477ZM309.797 22.048V23.248H302.869V22.048H309.797ZM322.363 28H321.003L319.883 25.072H315.099L313.979 28H312.635L316.747 17.44H318.267L322.363 28ZM315.563 23.872H319.419L317.483 18.672L315.563 23.872ZM328.406 17.28C329.409 17.28 330.273 17.504 330.998 17.952C331.734 18.3893 332.299 19.0133 332.694 19.824C333.099 20.6347 333.302 21.6 333.302 22.72C333.302 23.84 333.099 24.8053 332.694 25.616C332.299 26.4267 331.734 27.056 330.998 27.504C330.273 27.9413 329.409 28.16 328.406 28.16C327.403 28.16 326.534 27.9413 325.798 27.504C325.073 27.056 324.507 26.4267 324.102 25.616C323.707 24.8053 323.51 23.84 323.51 22.72C323.51 21.6 323.707 20.6347 324.102 19.824C324.507 19.0133 325.073 18.3893 325.798 17.952C326.534 17.504 327.403 17.28 328.406 17.28ZM328.406 18.48C327.681 18.48 327.051 18.6507 326.518 18.992C325.985 19.3227 325.574 19.808 325.286 20.448C324.998 21.0773 324.854 21.8347 324.854 22.72C324.854 23.6053 324.998 24.368 325.286 25.008C325.574 25.6373 325.985 26.1227 326.518 26.464C327.051 26.7947 327.681 26.96 328.406 26.96C329.142 26.96 329.771 26.7947 330.294 26.464C330.827 26.1227 331.238 25.6373 331.526 25.008C331.814 24.368 331.958 23.6053 331.958 22.72C331.958 21.8347 331.814 21.0773 331.526 20.448C331.238 19.808 330.827 19.3227 330.294 18.992C329.771 18.6507 329.142 18.48 328.406 18.48ZM339.511 17.28C340.439 17.28 341.239 17.472 341.911 17.856C342.583 18.2293 343.143 18.784 343.591 19.52L342.519 20.352C342.124 19.6693 341.676 19.1893 341.175 18.912C340.684 18.624 340.087 18.48 339.383 18.48C338.817 18.48 338.348 18.56 337.975 18.72C337.612 18.88 337.345 19.0933 337.175 19.36C337.004 19.616 336.919 19.9093 336.919 20.24C336.919 20.6133 337.036 20.944 337.271 21.232C337.505 21.5093 337.975 21.728 338.679 21.888L340.967 22.4C341.98 22.624 342.684 22.9653 343.079 23.424C343.484 23.872 343.687 24.432 343.687 25.104C343.687 25.7013 343.516 26.2347 343.175 26.704C342.844 27.1627 342.375 27.52 341.767 27.776C341.159 28.032 340.444 28.16 339.623 28.16C338.855 28.16 338.177 28.0587 337.591 27.856C337.015 27.6427 336.519 27.36 336.103 27.008C335.687 26.656 335.345 26.2613 335.079 25.824L336.199 24.912C336.401 25.3173 336.663 25.6747 336.983 25.984C337.303 26.2933 337.687 26.5333 338.135 26.704C338.593 26.8747 339.116 26.96 339.703 26.96C340.247 26.96 340.716 26.896 341.111 26.768C341.516 26.6293 341.825 26.432 342.039 26.176C342.252 25.9093 342.359 25.5893 342.359 25.216C342.359 24.8747 342.247 24.5707 342.023 24.304C341.799 24.0267 341.377 23.8187 340.759 23.68L338.279 23.12C337.628 22.9707 337.1 22.768 336.695 22.512C336.3 22.2453 336.012 21.936 335.831 21.584C335.66 21.2213 335.575 20.832 335.575 20.416C335.575 19.8507 335.729 19.3333 336.039 18.864C336.359 18.384 336.812 18 337.399 17.712C337.996 17.424 338.7 17.28 339.511 17.28ZM353.102 17.44V28H351.822V17.44H353.102ZM359.948 17.28C360.876 17.28 361.676 17.472 362.348 17.856C363.02 18.2293 363.58 18.784 364.028 19.52L362.956 20.352C362.561 19.6693 362.113 19.1893 361.612 18.912C361.121 18.624 360.524 18.48 359.82 18.48C359.255 18.48 358.785 18.56 358.412 18.72C358.049 18.88 357.783 19.0933 357.612 19.36C357.441 19.616 357.356 19.9093 357.356 20.24C357.356 20.6133 357.473 20.944 357.708 21.232C357.943 21.5093 358.412 21.728 359.116 21.888L361.404 22.4C362.417 22.624 363.121 22.9653 363.516 23.424C363.921 23.872 364.124 24.432 364.124 25.104C364.124 25.7013 363.953 26.2347 363.612 26.704C363.281 27.1627 362.812 27.52 362.204 27.776C361.596 28.032 360.881 28.16 360.06 28.16C359.292 28.16 358.615 28.0587 358.028 27.856C357.452 27.6427 356.956 27.36 356.54 27.008C356.124 26.656 355.783 26.2613 355.516 25.824L356.636 24.912C356.839 25.3173 357.1 25.6747 357.42 25.984C357.74 26.2933 358.124 26.5333 358.572 26.704C359.031 26.8747 359.553 26.96 360.14 26.96C360.684 26.96 361.153 26.896 361.548 26.768C361.953 26.6293 362.263 26.432 362.476 26.176C362.689 25.9093 362.796 25.5893 362.796 25.216C362.796 24.8747 362.684 24.5707 362.46 24.304C362.236 24.0267 361.815 23.8187 361.196 23.68L358.716 23.12C358.065 22.9707 357.537 22.768 357.132 22.512C356.737 22.2453 356.449 21.936 356.268 21.584C356.097 21.2213 356.012 20.832 356.012 20.416C356.012 19.8507 356.167 19.3333 356.476 18.864C356.796 18.384 357.249 18 357.836 17.712C358.433 17.424 359.137 17.28 359.948 17.28ZM375.094 17.44V28H373.51L369.094 20.928L367.974 18.944H367.958L368.022 20.544V28H366.806V17.44H368.39L372.79 24.48L373.926 26.512H373.942L373.878 24.896V17.44H375.094ZM378.924 16.8C379.18 16.8 379.393 16.8693 379.564 17.008C379.745 17.136 379.884 17.3173 379.98 17.552C380.076 17.776 380.124 18.0427 380.124 18.352C380.124 18.704 380.06 19.0507 379.932 19.392C379.815 19.7333 379.628 20.048 379.372 20.336C379.116 20.624 378.785 20.864 378.38 21.056L377.708 20.432C377.996 20.336 378.247 20.2027 378.46 20.032C378.684 19.8613 378.865 19.6693 379.004 19.456C379.143 19.2427 379.233 19.024 379.276 18.8L379.212 18.768C379.169 18.8 379.116 18.8267 379.052 18.848C378.988 18.8693 378.892 18.88 378.764 18.88C378.636 18.88 378.503 18.8427 378.364 18.768C378.236 18.6933 378.124 18.5867 378.028 18.448C377.932 18.2987 377.884 18.1067 377.884 17.872C377.884 17.68 377.932 17.504 378.028 17.344C378.124 17.1733 378.247 17.04 378.396 16.944C378.556 16.848 378.732 16.8 378.924 16.8ZM390.058 17.44V18.64H386.378V28H385.098V18.64H381.418V17.44H390.058ZM400.698 17.28C401.626 17.28 402.426 17.472 403.098 17.856C403.77 18.2293 404.33 18.784 404.778 19.52L403.706 20.352C403.311 19.6693 402.863 19.1893 402.362 18.912C401.871 18.624 401.274 18.48 400.57 18.48C400.005 18.48 399.535 18.56 399.162 18.72C398.799 18.88 398.533 19.0933 398.362 19.36C398.191 19.616 398.106 19.9093 398.106 20.24C398.106 20.6133 398.223 20.944 398.458 21.232C398.693 21.5093 399.162 21.728 399.866 21.888L402.154 22.4C403.167 22.624 403.871 22.9653 404.266 23.424C404.671 23.872 404.874 24.432 404.874 25.104C404.874 25.7013 404.703 26.2347 404.362 26.704C404.031 27.1627 403.562 27.52 402.954 27.776C402.346 28.032 401.631 28.16 400.81 28.16C400.042 28.16 399.365 28.0587 398.778 27.856C398.202 27.6427 397.706 27.36 397.29 27.008C396.874 26.656 396.533 26.2613 396.266 25.824L397.386 24.912C397.589 25.3173 397.85 25.6747 398.17 25.984C398.49 26.2933 398.874 26.5333 399.322 26.704C399.781 26.8747 400.303 26.96 400.89 26.96C401.434 26.96 401.903 26.896 402.298 26.768C402.703 26.6293 403.013 26.432 403.226 26.176C403.439 25.9093 403.546 25.5893 403.546 25.216C403.546 24.8747 403.434 24.5707 403.21 24.304C402.986 24.0267 402.565 23.8187 401.946 23.68L399.466 23.12C398.815 22.9707 398.287 22.768 397.882 22.512C397.487 22.2453 397.199 21.936 397.018 21.584C396.847 21.2213 396.762 20.832 396.762 20.416C396.762 19.8507 396.917 19.3333 397.226 18.864C397.546 18.384 397.999 18 398.586 17.712C399.183 17.424 399.887 17.28 400.698 17.28ZM411.812 17.28C412.815 17.28 413.679 17.504 414.404 17.952C415.14 18.3893 415.705 19.0133 416.1 19.824C416.505 20.6347 416.708 21.6 416.708 22.72C416.708 23.84 416.505 24.8053 416.1 25.616C415.705 26.4267 415.14 27.056 414.404 27.504C413.679 27.9413 412.815 28.16 411.812 28.16C410.809 28.16 409.94 27.9413 409.204 27.504C408.479 27.056 407.913 26.4267 407.508 25.616C407.113 24.8053 406.916 23.84 406.916 22.72C406.916 21.6 407.113 20.6347 407.508 19.824C407.913 19.0133 408.479 18.3893 409.204 17.952C409.94 17.504 410.809 17.28 411.812 17.28ZM411.812 18.48C411.087 18.48 410.457 18.6507 409.924 18.992C409.391 19.3227 408.98 19.808 408.692 20.448C408.404 21.0773 408.26 21.8347 408.26 22.72C408.26 23.6053 408.404 24.368 408.692 25.008C408.98 25.6373 409.391 26.1227 409.924 26.464C410.457 26.7947 411.087 26.96 411.812 26.96C412.548 26.96 413.177 26.7947 413.7 26.464C414.233 26.1227 414.644 25.6373 414.932 25.008C415.22 24.368 415.364 23.6053 415.364 22.72C415.364 21.8347 415.22 21.0773 414.932 20.448C414.644 19.808 414.233 19.3227 413.7 18.992C413.177 18.6507 412.548 18.48 411.812 18.48ZM429.733 17.44V28H428.517V21.36L428.661 18.576H428.645L425.173 28H424.085L420.613 18.576H420.597L420.741 21.36V28H419.525V17.44H421.493L423.813 23.856L424.613 26.496H424.645L425.461 23.872L427.765 17.44H429.733ZM433.181 28V17.44H440.589V18.64H434.461V22.048H439.229V23.248H434.461V26.8H440.829V28H433.181ZM450.808 17.44V18.64H447.128V28H445.848V18.64H442.168V17.44H450.808ZM461.329 17.44V28H460.049V17.44H461.329ZM454.321 17.44V28H453.041V17.44H454.321ZM460.641 22.048V23.248H453.713V22.048H460.641ZM466.071 17.44V28H464.791V17.44H466.071ZM477.813 17.44V28H476.229L471.813 20.928L470.693 18.944H470.677L470.741 20.544V28H469.525V17.44H471.109L475.509 24.48L476.645 26.512H476.661L476.597 24.896V17.44H477.813ZM485.531 28.16C484.528 28.16 483.659 27.9413 482.923 27.504C482.198 27.056 481.632 26.4267 481.227 25.616C480.832 24.8053 480.635 23.84 480.635 22.72C480.635 21.6 480.843 20.6347 481.259 19.824C481.686 19.0133 482.278 18.3893 483.035 17.952C483.792 17.504 484.662 17.28 485.643 17.28C486.688 17.28 487.536 17.4773 488.187 17.872C488.848 18.2667 489.382 18.8747 489.787 19.696L488.619 20.336C488.384 19.728 488.011 19.2693 487.499 18.96C486.998 18.64 486.379 18.48 485.643 18.48C484.928 18.48 484.294 18.6507 483.739 18.992C483.195 19.3227 482.763 19.808 482.443 20.448C482.134 21.0773 481.979 21.8347 481.979 22.72C481.979 23.6053 482.112 24.368 482.379 25.008C482.656 25.6373 483.062 26.1227 483.595 26.464C484.139 26.7947 484.8 26.96 485.579 26.96C486.016 26.96 486.422 26.9067 486.795 26.8C487.179 26.6827 487.51 26.512 487.787 26.288C488.075 26.064 488.299 25.7813 488.459 25.44C488.619 25.0987 488.699 24.6987 488.699 24.24V23.872H485.339V22.672H489.867V28H488.859L488.795 26.032L489.067 26.08C488.79 26.7413 488.352 27.2533 487.755 27.616C487.158 27.9787 486.416 28.16 485.531 28.16ZM505.293 17.44V18.64H501.613V28H500.333V18.64H496.653V17.44H505.293ZM511.422 17.28C512.424 17.28 513.288 17.504 514.014 17.952C514.75 18.3893 515.315 19.0133 515.71 19.824C516.115 20.6347 516.318 21.6 516.318 22.72C516.318 23.84 516.115 24.8053 515.71 25.616C515.315 26.4267 514.75 27.056 514.014 27.504C513.288 27.9413 512.424 28.16 511.422 28.16C510.419 28.16 509.55 27.9413 508.814 27.504C508.088 27.056 507.523 26.4267 507.118 25.616C506.723 24.8053 506.526 23.84 506.526 22.72C506.526 21.6 506.723 20.6347 507.118 19.824C507.523 19.0133 508.088 18.3893 508.814 17.952C509.55 17.504 510.419 17.28 511.422 17.28ZM511.422 18.48C510.696 18.48 510.067 18.6507 509.534 18.992C509 19.3227 508.59 19.808 508.302 20.448C508.014 21.0773 507.87 21.8347 507.87 22.72C507.87 23.6053 508.014 24.368 508.302 25.008C508.59 25.6373 509 26.1227 509.534 26.464C510.067 26.7947 510.696 26.96 511.422 26.96C512.158 26.96 512.787 26.7947 513.31 26.464C513.843 26.1227 514.254 25.6373 514.542 25.008C514.83 24.368 514.974 23.6053 514.974 22.72C514.974 21.8347 514.83 21.0773 514.542 20.448C514.254 19.808 513.843 19.3227 513.31 18.992C512.787 18.6507 512.158 18.48 511.422 18.48ZM533.099 25.296C532.875 25.8933 532.555 26.4107 532.139 26.848C531.723 27.2747 531.233 27.6 530.667 27.824C530.113 28.048 529.505 28.16 528.843 28.16C527.841 28.16 526.971 27.9413 526.235 27.504C525.51 27.056 524.945 26.4267 524.539 25.616C524.145 24.8053 523.947 23.84 523.947 22.72C523.947 21.6 524.145 20.6347 524.539 19.824C524.945 19.0133 525.51 18.3893 526.235 17.952C526.971 17.504 527.83 17.28 528.811 17.28C529.494 17.28 530.102 17.376 530.635 17.568C531.169 17.7493 531.622 18.0267 531.995 18.4C532.379 18.7627 532.683 19.2107 532.907 19.744L531.643 20.336C531.409 19.728 531.067 19.2693 530.619 18.96C530.182 18.64 529.611 18.48 528.907 18.48C528.193 18.48 527.563 18.6507 527.019 18.992C526.475 19.3227 526.049 19.8027 525.739 20.432C525.441 21.0613 525.291 21.824 525.291 22.72C525.291 23.6053 525.435 24.368 525.723 25.008C526.011 25.6373 526.422 26.1227 526.955 26.464C527.489 26.7947 528.118 26.96 528.843 26.96C529.547 26.96 530.161 26.784 530.683 26.432C531.206 26.0693 531.585 25.5307 531.819 24.816L533.099 25.296ZM539.812 17.28C540.815 17.28 541.679 17.504 542.404 17.952C543.14 18.3893 543.705 19.0133 544.1 19.824C544.505 20.6347 544.708 21.6 544.708 22.72C544.708 23.84 544.505 24.8053 544.1 25.616C543.705 26.4267 543.14 27.056 542.404 27.504C541.679 27.9413 540.815 28.16 539.812 28.16C538.809 28.16 537.94 27.9413 537.204 27.504C536.479 27.056 535.913 26.4267 535.508 25.616C535.113 24.8053 534.916 23.84 534.916 22.72C534.916 21.6 535.113 20.6347 535.508 19.824C535.913 19.0133 536.479 18.3893 537.204 17.952C537.94 17.504 538.809 17.28 539.812 17.28ZM539.812 18.48C539.087 18.48 538.457 18.6507 537.924 18.992C537.391 19.3227 536.98 19.808 536.692 20.448C536.404 21.0773 536.26 21.8347 536.26 22.72C536.26 23.6053 536.404 24.368 536.692 25.008C536.98 25.6373 537.391 26.1227 537.924 26.464C538.457 26.7947 539.087 26.96 539.812 26.96C540.548 26.96 541.177 26.7947 541.7 26.464C542.233 26.1227 542.644 25.6373 542.932 25.008C543.22 24.368 543.364 23.6053 543.364 22.72C543.364 21.8347 543.22 21.0773 542.932 20.448C542.644 19.808 542.233 19.3227 541.7 18.992C541.177 18.6507 540.548 18.48 539.812 18.48ZM555.813 17.44V28H554.229L549.813 20.928L548.693 18.944H548.677L548.741 20.544V28H547.525V17.44H549.109L553.509 24.48L554.645 26.512H554.661L554.597 24.896V17.44H555.813ZM566.699 17.44V18.64H563.019V28H561.739V18.64H558.059V17.44H566.699ZM572.931 17.44C574.008 17.44 574.872 17.7173 575.523 18.272C576.174 18.8267 576.499 19.5787 576.499 20.528C576.499 21.4773 576.168 22.2187 575.507 22.752C574.856 23.2747 573.992 23.536 572.915 23.536L572.803 23.616H570.211V28H568.931V17.44H572.931ZM572.915 22.416C573.672 22.416 574.232 22.2613 574.595 21.952C574.968 21.632 575.155 21.1573 575.155 20.528C575.155 19.8987 574.968 19.4293 574.595 19.12C574.232 18.8 573.672 18.64 572.915 18.64H570.211V22.416H572.915ZM573.651 22.672L577.139 28H575.619L572.579 23.376L573.651 22.672ZM583.734 17.28C584.737 17.28 585.601 17.504 586.326 17.952C587.062 18.3893 587.627 19.0133 588.022 19.824C588.427 20.6347 588.63 21.6 588.63 22.72C588.63 23.84 588.427 24.8053 588.022 25.616C587.627 26.4267 587.062 27.056 586.326 27.504C585.601 27.9413 584.737 28.16 583.734 28.16C582.731 28.16 581.862 27.9413 581.126 27.504C580.401 27.056 579.835 26.4267 579.43 25.616C579.035 24.8053 578.838 23.84 578.838 22.72C578.838 21.6 579.035 20.6347 579.43 19.824C579.835 19.0133 580.401 18.3893 581.126 17.952C581.862 17.504 582.731 17.28 583.734 17.28ZM583.734 18.48C583.009 18.48 582.379 18.6507 581.846 18.992C581.313 19.3227 580.902 19.808 580.614 20.448C580.326 21.0773 580.182 21.8347 580.182 22.72C580.182 23.6053 580.326 24.368 580.614 25.008C580.902 25.6373 581.313 26.1227 581.846 26.464C582.379 26.7947 583.009 26.96 583.734 26.96C584.47 26.96 585.099 26.7947 585.622 26.464C586.155 26.1227 586.566 25.6373 586.854 25.008C587.142 24.368 587.286 23.6053 587.286 22.72C587.286 21.8347 587.142 21.0773 586.854 20.448C586.566 19.808 586.155 19.3227 585.622 18.992C585.099 18.6507 584.47 18.48 583.734 18.48ZM592.727 26.8H598.775V28H591.447V17.44H592.727V26.8ZM612.771 23.216V24.416H599.171V23.216H612.771ZM617.086 17.44V28H615.806V17.44H617.086ZM627.965 17.44V18.64H624.285V28H623.005V18.64H619.325V17.44H627.965ZM630.565 16.8C630.821 16.8 631.034 16.8693 631.205 17.008C631.386 17.136 631.525 17.3173 631.621 17.552C631.717 17.776 631.765 18.0427 631.765 18.352C631.765 18.704 631.701 19.0507 631.573 19.392C631.455 19.7333 631.269 20.048 631.013 20.336C630.757 20.624 630.426 20.864 630.021 21.056L629.349 20.432C629.637 20.336 629.887 20.2027 630.101 20.032C630.325 19.8613 630.506 19.6693 630.645 19.456C630.783 19.2427 630.874 19.024 630.917 18.8L630.853 18.768C630.81 18.8 630.757 18.8267 630.693 18.848C630.629 18.8693 630.533 18.88 630.405 18.88C630.277 18.88 630.143 18.8427 630.005 18.768C629.877 18.6933 629.765 18.5867 629.669 18.448C629.573 18.2987 629.525 18.1067 629.525 17.872C629.525 17.68 629.573 17.504 629.669 17.344C629.765 17.1733 629.887 17.04 630.037 16.944C630.197 16.848 630.373 16.8 630.565 16.8ZM637.667 17.28C638.595 17.28 639.395 17.472 640.067 17.856C640.739 18.2293 641.299 18.784 641.747 19.52L640.675 20.352C640.28 19.6693 639.832 19.1893 639.331 18.912C638.84 18.624 638.243 18.48 637.539 18.48C636.974 18.48 636.504 18.56 636.131 18.72C635.768 18.88 635.502 19.0933 635.331 19.36C635.16 19.616 635.075 19.9093 635.075 20.24C635.075 20.6133 635.192 20.944 635.427 21.232C635.662 21.5093 636.131 21.728 636.835 21.888L639.123 22.4C640.136 22.624 640.84 22.9653 641.235 23.424C641.64 23.872 641.843 24.432 641.843 25.104C641.843 25.7013 641.672 26.2347 641.331 26.704C641 27.1627 640.531 27.52 639.923 27.776C639.315 28.032 638.6 28.16 637.779 28.16C637.011 28.16 636.334 28.0587 635.747 27.856C635.171 27.6427 634.675 27.36 634.259 27.008C633.843 26.656 633.502 26.2613 633.235 25.824L634.355 24.912C634.558 25.3173 634.819 25.6747 635.139 25.984C635.459 26.2933 635.843 26.5333 636.291 26.704C636.75 26.8747 637.272 26.96 637.859 26.96C638.403 26.96 638.872 26.896 639.267 26.768C639.672 26.6293 639.982 26.432 640.195 26.176C640.408 25.9093 640.515 25.5893 640.515 25.216C640.515 24.8747 640.403 24.5707 640.179 24.304C639.955 24.0267 639.534 23.8187 638.915 23.68L636.435 23.12C635.784 22.9707 635.256 22.768 634.851 22.512C634.456 22.2453 634.168 21.936 633.987 21.584C633.816 21.2213 633.731 20.832 633.731 20.416C633.731 19.8507 633.886 19.3333 634.195 18.864C634.515 18.384 634.968 18 635.555 17.712C636.152 17.424 636.856 17.28 637.667 17.28ZM657.753 28H656.393L655.273 25.072H650.489L649.369 28H648.025L652.137 17.44H653.657L657.753 28ZM650.953 23.872H654.809L652.873 18.672L650.953 23.872ZM673.224 25.296C673 25.8933 672.68 26.4107 672.264 26.848C671.848 27.2747 671.358 27.6 670.792 27.824C670.238 28.048 669.63 28.16 668.968 28.16C667.966 28.16 667.096 27.9413 666.36 27.504C665.635 27.056 665.07 26.4267 664.664 25.616C664.27 24.8053 664.072 23.84 664.072 22.72C664.072 21.6 664.27 20.6347 664.664 19.824C665.07 19.0133 665.635 18.3893 666.36 17.952C667.096 17.504 667.955 17.28 668.936 17.28C669.619 17.28 670.227 17.376 670.76 17.568C671.294 17.7493 671.747 18.0267 672.12 18.4C672.504 18.7627 672.808 19.2107 673.032 19.744L671.768 20.336C671.534 19.728 671.192 19.2693 670.744 18.96C670.307 18.64 669.736 18.48 669.032 18.48C668.318 18.48 667.688 18.6507 667.144 18.992C666.6 19.3227 666.174 19.8027 665.864 20.432C665.566 21.0613 665.416 21.824 665.416 22.72C665.416 23.6053 665.56 24.368 665.848 25.008C666.136 25.6373 666.547 26.1227 667.08 26.464C667.614 26.7947 668.243 26.96 668.968 26.96C669.672 26.96 670.286 26.784 670.808 26.432C671.331 26.0693 671.71 25.5307 671.944 24.816L673.224 25.296ZM684.097 28H682.737L681.617 25.072H676.833L675.713 28H674.369L678.481 17.44H680.001L684.097 28ZM677.297 23.872H681.153L679.217 18.672L677.297 23.872ZM692.23 17.44V18.64H688.55V28H687.27V18.64H683.59V17.44H692.23ZM701.441 28H700.081L698.961 25.072H694.177L693.057 28H691.713L695.825 17.44H697.345L701.441 28ZM694.641 23.872H698.497L696.561 18.672L694.641 23.872ZM704.867 26.8H710.915V28H703.587V17.44H704.867V26.8ZM718.57 17.44L714.794 23.872V28H713.514V23.872L709.738 17.44H711.258L713.306 21.056L714.154 22.56L715.002 21.056L717.05 17.44H718.57ZM723.558 17.28C724.486 17.28 725.286 17.472 725.958 17.856C726.63 18.2293 727.19 18.784 727.638 19.52L726.566 20.352C726.171 19.6693 725.723 19.1893 725.222 18.912C724.731 18.624 724.134 18.48 723.43 18.48C722.864 18.48 722.395 18.56 722.022 18.72C721.659 18.88 721.392 19.0933 721.222 19.36C721.051 19.616 720.966 19.9093 720.966 20.24C720.966 20.6133 721.083 20.944 721.318 21.232C721.552 21.5093 722.022 21.728 722.726 21.888L725.014 22.4C726.027 22.624 726.731 22.9653 727.126 23.424C727.531 23.872 727.734 24.432 727.734 25.104C727.734 25.7013 727.563 26.2347 727.222 26.704C726.891 27.1627 726.422 27.52 725.814 27.776C725.206 28.032 724.491 28.16 723.67 28.16C722.902 28.16 722.224 28.0587 721.638 27.856C721.062 27.6427 720.566 27.36 720.15 27.008C719.734 26.656 719.392 26.2613 719.126 25.824L720.246 24.912C720.448 25.3173 720.709 25.6747 721.03 25.984C721.35 26.2933 721.734 26.5333 722.182 26.704C722.64 26.8747 723.163 26.96 723.75 26.96C724.294 26.96 724.763 26.896 725.158 26.768C725.563 26.6293 725.872 26.432 726.086 26.176C726.299 25.9093 726.406 25.5893 726.406 25.216C726.406 24.8747 726.294 24.5707 726.07 24.304C725.846 24.0267 725.424 23.8187 724.806 23.68L722.326 23.12C721.675 22.9707 721.147 22.768 720.742 22.512C720.347 22.2453 720.059 21.936 719.878 21.584C719.707 21.2213 719.622 20.832 719.622 20.416C719.622 19.8507 719.776 19.3333 720.086 18.864C720.406 18.384 720.859 18 721.446 17.712C722.043 17.424 722.747 17.28 723.558 17.28ZM737.355 17.44V18.64H733.675V28H732.395V18.64H728.715V17.44H737.355ZM751.995 18.64H745.883V22.048H750.651V23.248H745.883V28H744.603V17.44H751.995V18.64ZM758.437 17.28C759.44 17.28 760.304 17.504 761.029 17.952C761.765 18.3893 762.33 19.0133 762.725 19.824C763.13 20.6347 763.333 21.6 763.333 22.72C763.333 23.84 763.13 24.8053 762.725 25.616C762.33 26.4267 761.765 27.056 761.029 27.504C760.304 27.9413 759.44 28.16 758.437 28.16C757.434 28.16 756.565 27.9413 755.829 27.504C755.104 27.056 754.538 26.4267 754.133 25.616C753.738 24.8053 753.541 23.84 753.541 22.72C753.541 21.6 753.738 20.6347 754.133 19.824C754.538 19.0133 755.104 18.3893 755.829 17.952C756.565 17.504 757.434 17.28 758.437 17.28ZM758.437 18.48C757.712 18.48 757.082 18.6507 756.549 18.992C756.016 19.3227 755.605 19.808 755.317 20.448C755.029 21.0773 754.885 21.8347 754.885 22.72C754.885 23.6053 755.029 24.368 755.317 25.008C755.605 25.6373 756.016 26.1227 756.549 26.464C757.082 26.7947 757.712 26.96 758.437 26.96C759.173 26.96 759.802 26.7947 760.325 26.464C760.858 26.1227 761.269 25.6373 761.557 25.008C761.845 24.368 761.989 23.6053 761.989 22.72C761.989 21.8347 761.845 21.0773 761.557 20.448C761.269 19.808 760.858 19.3227 760.325 18.992C759.802 18.6507 759.173 18.48 758.437 18.48ZM770.15 17.44C771.227 17.44 772.091 17.7173 772.742 18.272C773.393 18.8267 773.718 19.5787 773.718 20.528C773.718 21.4773 773.387 22.2187 772.726 22.752C772.075 23.2747 771.211 23.536 770.134 23.536L770.022 23.616H767.43V28H766.15V17.44H770.15ZM770.134 22.416C770.891 22.416 771.451 22.2613 771.814 21.952C772.187 21.632 772.374 21.1573 772.374 20.528C772.374 19.8987 772.187 19.4293 771.814 19.12C771.451 18.8 770.891 18.64 770.134 18.64H767.43V22.416H770.134ZM770.87 22.672L774.358 28H772.838L769.798 23.376L770.87 22.672ZM785.652 17.44C787.305 17.44 788.601 17.8987 789.54 18.816C790.489 19.7227 790.964 21.024 790.964 22.72C790.964 24.416 790.489 25.7227 789.54 26.64C788.601 27.5467 787.305 28 785.652 28H782.244V17.44H785.652ZM785.78 26.8C786.985 26.8 787.924 26.4427 788.596 25.728C789.278 25.0027 789.62 24 789.62 22.72C789.62 21.44 789.278 20.4427 788.596 19.728C787.924 19.0027 786.985 18.64 785.78 18.64H783.524V26.8H785.78ZM795.055 17.44V28H793.775V17.44H795.055ZM801.901 17.28C802.829 17.28 803.629 17.472 804.301 17.856C804.973 18.2293 805.533 18.784 805.981 19.52L804.909 20.352C804.515 19.6693 804.067 19.1893 803.565 18.912C803.075 18.624 802.477 18.48 801.773 18.48C801.208 18.48 800.739 18.56 800.365 18.72C800.003 18.88 799.736 19.0933 799.565 19.36C799.395 19.616 799.309 19.9093 799.309 20.24C799.309 20.6133 799.427 20.944 799.661 21.232C799.896 21.5093 800.365 21.728 801.069 21.888L803.357 22.4C804.371 22.624 805.075 22.9653 805.469 23.424C805.875 23.872 806.077 24.432 806.077 25.104C806.077 25.7013 805.907 26.2347 805.565 26.704C805.235 27.1627 804.765 27.52 804.157 27.776C803.549 28.032 802.835 28.16 802.013 28.16C801.245 28.16 800.568 28.0587 799.981 27.856C799.405 27.6427 798.909 27.36 798.493 27.008C798.077 26.656 797.736 26.2613 797.469 25.824L798.589 24.912C798.792 25.3173 799.053 25.6747 799.373 25.984C799.693 26.2933 800.077 26.5333 800.525 26.704C800.984 26.8747 801.507 26.96 802.093 26.96C802.637 26.96 803.107 26.896 803.501 26.768C803.907 26.6293 804.216 26.432 804.429 26.176C804.643 25.9093 804.749 25.5893 804.749 25.216C804.749 24.8747 804.637 24.5707 804.413 24.304C804.189 24.0267 803.768 23.8187 803.149 23.68L800.669 23.12C800.019 22.9707 799.491 22.768 799.085 22.512C798.691 22.2453 798.403 21.936 798.221 21.584C798.051 21.2213 797.965 20.832 797.965 20.416C797.965 19.8507 798.12 19.3333 798.429 18.864C798.749 18.384 799.203 18 799.789 17.712C800.387 17.424 801.091 17.28 801.901 17.28ZM817.271 25.296C817.047 25.8933 816.727 26.4107 816.311 26.848C815.895 27.2747 815.405 27.6 814.839 27.824C814.285 28.048 813.677 28.16 813.015 28.16C812.013 28.16 811.143 27.9413 810.407 27.504C809.682 27.056 809.117 26.4267 808.711 25.616C808.317 24.8053 808.119 23.84 808.119 22.72C808.119 21.6 808.317 20.6347 808.711 19.824C809.117 19.0133 809.682 18.3893 810.407 17.952C811.143 17.504 812.002 17.28 812.983 17.28C813.666 17.28 814.274 17.376 814.807 17.568C815.341 17.7493 815.794 18.0267 816.167 18.4C816.551 18.7627 816.855 19.2107 817.079 19.744L815.815 20.336C815.581 19.728 815.239 19.2693 814.791 18.96C814.354 18.64 813.783 18.48 813.079 18.48C812.365 18.48 811.735 18.6507 811.191 18.992C810.647 19.3227 810.221 19.8027 809.911 20.432C809.613 21.0613 809.463 21.824 809.463 22.72C809.463 23.6053 809.607 24.368 809.895 25.008C810.183 25.6373 810.594 26.1227 811.127 26.464C811.661 26.7947 812.29 26.96 813.015 26.96C813.719 26.96 814.333 26.784 814.855 26.432C815.378 26.0693 815.757 25.5307 815.991 24.816L817.271 25.296ZM823.984 17.28C824.987 17.28 825.851 17.504 826.576 17.952C827.312 18.3893 827.877 19.0133 828.272 19.824C828.677 20.6347 828.88 21.6 828.88 22.72C828.88 23.84 828.677 24.8053 828.272 25.616C827.877 26.4267 827.312 27.056 826.576 27.504C825.851 27.9413 824.987 28.16 823.984 28.16C822.981 28.16 822.112 27.9413 821.376 27.504C820.651 27.056 820.085 26.4267 819.68 25.616C819.285 24.8053 819.088 23.84 819.088 22.72C819.088 21.6 819.285 20.6347 819.68 19.824C820.085 19.0133 820.651 18.3893 821.376 17.952C822.112 17.504 822.981 17.28 823.984 17.28ZM823.984 18.48C823.259 18.48 822.629 18.6507 822.096 18.992C821.563 19.3227 821.152 19.808 820.864 20.448C820.576 21.0773 820.432 21.8347 820.432 22.72C820.432 23.6053 820.576 24.368 820.864 25.008C821.152 25.6373 821.563 26.1227 822.096 26.464C822.629 26.7947 823.259 26.96 823.984 26.96C824.72 26.96 825.349 26.7947 825.872 26.464C826.405 26.1227 826.816 25.6373 827.104 25.008C827.392 24.368 827.536 23.6053 827.536 22.72C827.536 21.8347 827.392 21.0773 827.104 20.448C826.816 19.808 826.405 19.3227 825.872 18.992C825.349 18.6507 824.72 18.48 823.984 18.48ZM839.639 17.44L835.639 28H834.183L830.167 17.44H831.543L834.231 24.736L834.903 26.832L835.575 24.752L838.263 17.44H839.639ZM841.822 28V17.44H849.23V18.64H843.102V22.048H847.87V23.248H843.102V26.8H849.47V28H841.822ZM856.025 17.44C857.102 17.44 857.966 17.7173 858.617 18.272C859.268 18.8267 859.593 19.5787 859.593 20.528C859.593 21.4773 859.262 22.2187 858.601 22.752C857.95 23.2747 857.086 23.536 856.009 23.536L855.897 23.616H853.305V28H852.025V17.44H856.025ZM856.009 22.416C856.766 22.416 857.326 22.2613 857.689 21.952C858.062 21.632 858.249 21.1573 858.249 20.528C858.249 19.8987 858.062 19.4293 857.689 19.12C857.326 18.8 856.766 18.64 856.009 18.64H853.305V22.416H856.009ZM856.745 22.672L860.233 28H858.713L855.673 23.376L856.745 22.672ZM869.57 17.44L865.794 23.872V28H864.514V23.872L860.738 17.44H862.258L864.306 21.056L865.154 22.56L866.002 21.056L868.05 17.44H869.57ZM869.706 26.08C870.015 26.08 870.266 26.176 870.458 26.368C870.65 26.56 870.746 26.8107 870.746 27.12C870.746 27.4293 870.65 27.68 870.458 27.872C870.266 28.064 870.015 28.16 869.706 28.16C869.397 28.16 869.146 28.064 868.954 27.872C868.762 27.68 868.666 27.4293 868.666 27.12C868.666 26.8107 868.762 26.56 868.954 26.368C869.146 26.176 869.397 26.08 869.706 26.08Z" fill="#E6E4D6"/>
</svg>
