<svg width="18" height="19" viewBox="0 0 18 19" fill="none" xmlns="http://www.w3.org/2000/svg">
<ellipse cx="13.6406" cy="4.14052" rx="0.703125" ry="0.713759" fill="#D9D9D9" fill-opacity="0.5"/>
<path d="M13.9964 4.14052C13.9964 4.34784 13.8322 4.50697 13.6406 4.50697C13.449 4.50697 13.2848 4.34784 13.2848 4.14052C13.2848 3.93319 13.449 3.77406 13.6406 3.77406C13.8322 3.77406 13.9964 3.93319 13.9964 4.14052Z" stroke="#E6E4D6" stroke-opacity="0.5" stroke-width="0.694602"/>
<path d="M12.9208 9.13617C12.9208 11.3474 11.1572 13.125 9 13.125C6.84278 13.125 5.07922 11.3474 5.07922 9.13617C5.07922 6.92497 6.84278 5.14733 9 5.14733C11.1572 5.14733 12.9208 6.92497 12.9208 9.13617Z" stroke="#E6E4D6" stroke-opacity="0.5" stroke-width="1.15843"/>
<rect x="0.579215" y="0.579215" width="16.8416" height="17.1138" rx="5.59908" stroke="#E6E4D6" stroke-opacity="0.5" stroke-width="1.15843"/>
</svg>
