<svg width="30" height="29" viewBox="0 0 30 29" fill="none" xmlns="http://www.w3.org/2000/svg">
<path d="M7.37694 3.10566C7.3809 3.09571 7.41934 3.03934 7.47086 2.96912C7.51894 2.90347 7.61008 2.84186 7.70822 2.88989C7.79196 2.93078 7.76951 3.01997 7.77004 3.09127C7.77268 3.48758 7.77136 3.88388 7.77136 4.27925C8.06618 4.297 8.14596 4.1567 8.13579 3.89639C8.12033 3.49982 8.13183 3.10217 8.13288 2.70492C8.13315 2.61021 8.15177 2.51013 8.25691 2.49439C8.34211 2.48161 8.38226 2.56488 8.40313 2.64048C8.46693 2.87011 8.61817 2.9211 8.81789 2.84092C9.0608 2.74339 9.16528 2.87321 9.18708 3.08414C9.2551 3.74559 9.43342 4.39776 9.2551 5.07738C9.17572 5.37992 9.17995 5.71878 9.21257 6.03397C9.23754 6.27463 9.33475 6.53279 9.65639 6.54852C9.77157 6.55418 9.82942 6.6591 9.91607 6.71466C9.99625 6.76618 10.0758 6.80977 10.1556 6.72112C10.2229 6.64632 10.2669 6.65883 10.3171 6.74224C10.3938 6.86977 10.5789 6.96891 10.5399 7.1189C10.4957 7.28867 10.2884 7.30979 10.1355 7.348C9.97802 7.38741 9.81027 7.38217 9.64992 7.4119C9.48969 7.44149 9.29737 7.43221 9.18695 7.56041C8.90203 7.8912 8.55609 7.83766 8.20342 7.76018C7.89327 7.69197 7.67678 7.82838 7.63636 8.15232C7.61774 8.30231 7.63319 8.45661 7.63319 8.64736C7.23508 8.6105 6.8758 8.69404 6.51506 8.81511C6.36131 8.86677 6.32723 8.91977 6.33093 9.05483C6.33423 9.17698 6.33291 9.29926 6.33172 9.42154C6.33067 9.5223 6.36118 9.60409 6.46368 9.63382C6.7334 9.71211 6.87963 9.96287 7.09374 10.0722C7.12175 10.1672 7.06732 10.1793 7.03417 10.1987C6.58098 10.4634 6.34718 10.8318 6.41626 11.3908C6.44506 11.6244 6.31257 11.8575 6.3234 12.0865C6.20994 12.1444 6.16437 12.0602 6.09925 12.0351C5.80773 11.9223 5.6479 11.972 5.53127 12.205C5.40922 12.4491 5.23332 12.4677 5.00358 12.2609C4.84269 12.4107 4.82658 12.6652 4.61352 12.7916C4.48658 12.867 4.52964 13.0714 4.52991 13.2234C4.53136 13.9711 4.54721 14.7191 4.49662 15.4661C4.48632 15.6185 4.51089 15.7766 4.35687 15.8744C4.15847 16.0004 4.14143 16.198 4.1771 16.3994C4.24394 16.7773 4.19942 17.2063 4.60031 17.4451C4.73187 17.4765 4.79686 17.5796 4.85498 17.69C4.94031 17.8416 4.96989 18.0133 5.02154 18.1762C5.06235 18.3254 5.13672 18.1681 5.19127 18.194C5.24952 18.1938 5.29734 18.2168 5.33697 18.2584C5.49574 18.4748 5.67128 18.5954 5.97152 18.6129C6.21483 18.6271 6.43726 18.85 6.5152 19.1346C6.54729 19.2517 6.57847 19.3752 6.57622 19.4951C6.56407 20.1472 6.89363 20.5641 7.43651 20.8501C7.54165 20.9056 7.62381 21.0124 7.65578 21.1321C7.76766 21.5515 8.07806 21.7868 8.41357 21.9986C8.57947 22.1032 8.76123 22.1892 8.81433 22.404C8.83903 22.5041 8.90045 22.5587 8.98604 22.5989C9.0402 22.6244 9.10928 22.6429 9.14085 22.6873C9.2374 22.8233 9.08326 23.1035 9.25127 23.1284C9.44373 23.1568 9.51373 23.2477 9.62231 23.3706C9.72811 23.4902 9.90775 23.5317 10.017 23.6656C10.062 23.7207 10.1331 23.8254 10.1895 23.7767C10.4246 23.574 10.5006 23.8055 10.6502 23.9064C10.8888 24.0673 11.181 24.0958 11.4638 24.1166C11.6271 24.1286 11.7915 24.1255 11.9436 24.1831C12.0508 24.058 11.9649 23.9053 11.9947 23.841C12.0525 23.7221 12.1062 23.7452 12.1374 23.7607C12.5808 23.9828 13.1098 23.9364 13.5345 24.2283C13.6064 24.2777 13.739 24.2323 13.8435 24.2364C13.9338 24.2399 14.068 24.2459 14.0832 24.327C14.1481 24.6753 14.4837 24.5105 14.6513 24.6578C14.6956 24.6967 14.7632 24.6674 14.7905 24.5957C14.8457 24.4504 14.9913 24.4805 15.0555 24.524C15.5807 24.8792 16.1514 24.8335 16.7128 24.7019C17.0486 24.6234 17.3824 24.6658 17.7156 24.621C17.9515 24.5892 18.2063 24.4185 18.4465 24.6348C18.4676 24.6538 18.5329 24.628 18.5754 24.6153C19.3511 24.385 20.1776 24.4067 20.9423 24.1181C21.1362 24.0449 21.1161 23.928 21.491 23.928L21.6159 23.928C22.1157 23.8011 22.4906 23.5475 22.4906 23.5475C23.0836 23.1848 22.9737 23.1402 23.2403 22.9133C24.0453 22.2277 23.2622 20.3383 23.5942 18.6129C23.9568 16.7286 25.5655 15.8254 26.8638 13.7767C28.6154 11.0127 27.4344 7.55248 26.1141 5.25723C25.3874 3.99419 22.4957 1.78445 20.7097 1.56356C16.4802 0.648306 12.8482 1.53201 11.745 3.44493C14.252 -1.11862 19.3735 0.141979 20.3664 0.20924C21.9576 0.316994 24.5792 0.669306 28.1642 7.50135C30.1124 12.5125 29.5232 13.4368 29.1128 16.7696C28.9292 18.2603 28.4571 19.9242 27.6134 21.2536C26.08 23.6695 24.796 25.1562 23.5942 25.917C23.5942 25.917 24.3039 26.9332 21.7779 27.8759C21.7315 27.8932 21.6875 27.9058 21.6875 27.9058C21.6089 27.9289 21.4853 27.9566 21.3362 27.9545C21.0925 27.9511 20.8736 28.0044 20.6512 28.1063C20.4534 28.197 20.249 28.2589 20.0076 28.1761C19.8512 28.1226 19.6461 28.163 19.4776 28.2126C19.1887 28.2978 18.9125 28.4097 18.6066 28.2852C18.5437 28.2597 18.4597 28.2791 18.3946 28.3294C18.1408 28.5252 17.8583 28.4917 17.5573 28.4923C17.0617 28.4932 16.5776 28.2302 16.0738 28.4319C16.0013 28.4609 15.8956 28.4235 15.8107 28.3981C14.9916 28.1537 14.1343 28.153 13.3036 27.9858C13.1541 27.9557 13.0338 27.9235 13.0435 28.1468C13.0482 28.252 12.9985 28.32 12.8841 28.3198C12.7849 28.3198 12.6979 28.2914 12.6911 28.1774C12.6837 28.0531 12.6467 27.9783 12.5121 27.9659C12.3407 27.9501 12.3885 28.0798 12.3548 28.172C12.2881 28.3547 12.0955 28.2488 12.0796 28.197C12.0053 27.9577 11.723 27.9216 11.6493 27.706C11.5969 27.5525 11.471 27.5247 11.3656 27.5411C11.1766 27.5703 11.0185 27.4998 10.846 27.4594C10.6703 27.4184 10.5234 27.3942 10.5579 27.1558C10.5704 27.0692 10.5076 27.0195 10.4249 27.0022C10.0789 26.9294 9.75004 26.7619 9.372 26.885C9.2699 26.9182 9.18298 26.8863 9.1674 27.0309C9.15392 27.1559 9.05446 27.1496 8.96187 27.1427C8.87258 27.1361 8.82384 27.083 8.82146 26.9977C8.81763 26.8686 8.79583 26.7642 8.66322 26.6988C8.48675 26.6119 8.31186 26.56 8.11769 26.6182C7.96645 26.6636 7.81732 26.6905 7.76607 26.4821C7.71509 26.2745 7.45368 26.5311 7.42079 26.3158C7.40019 26.181 7.45751 25.984 7.38685 25.917C7.22583 25.7645 7.04223 25.6319 6.88121 25.4744C6.8186 25.413 6.68176 25.3822 6.7054 25.2856C6.83049 24.775 6.34493 24.7547 6.11708 24.5474C6.04179 24.4789 5.96888 24.4548 5.97086 24.3406C5.97337 24.1878 5.97522 24.0348 5.97033 23.8822C5.96505 23.7162 5.96148 23.7163 5.75476 23.4924C5.62664 23.6543 5.67406 23.84 5.66507 24.0101C5.65437 24.2131 5.53563 24.2957 5.3515 24.3449C5.24305 23.897 5.135 23.4716 5.03858 23.0434C4.98878 22.8224 4.86264 22.7072 4.64562 22.6827C4.37299 22.6521 4.23178 22.7721 4.22676 23.0656C4.2195 23.4899 4.22491 23.9144 4.22491 24.4083C3.98425 24.2177 3.85005 24.0418 3.86643 23.7787C3.89905 23.2541 3.79853 22.754 3.67067 22.2466C3.58997 21.9266 3.5222 21.5583 3.80434 21.2536C3.92098 21.1277 3.90579 20.9739 3.74002 20.8665C3.63989 20.8017 3.54532 20.7354 3.52207 20.5936C3.50992 20.5188 3.38827 20.4596 3.34507 20.5013C3.10626 20.7326 3.0879 20.4696 3.02582 20.3541C2.96241 20.2362 2.90126 20.1136 2.88527 19.9714C2.766 18.9065 2.60076 17.8458 2.60591 16.7696C2.6067 16.6184 2.55756 16.4418 2.65993 16.3239C2.83984 16.1169 2.78859 15.9085 2.73298 15.6829C2.57883 15.0574 2.57619 14.4152 2.55334 13.7767C2.52216 12.9085 2.60168 12.0378 2.46854 11.1712C2.42521 10.8889 2.27133 10.6652 2.1749 10.412C2.15403 10.3573 2.09829 10.2891 2.04083 10.345C1.83596 10.5448 1.68736 10.3335 1.52027 10.2806C1.26336 10.1994 1.18675 10.2408 1.0898 10.5409C1.07778 10.5807 1.06549 10.5941 1.05242 10.5813C1.03934 10.5685 1.03273 10.5554 1.03273 10.542C0.856793 10.1069 1.04753 9.67647 1.05123 9.2437C1.05704 8.5727 1.22611 7.9208 1.29718 7.25706C1.53229 7.3149 1.39717 7.50405 1.41592 7.63077C1.46823 7.9851 1.33918 8.35262 1.48421 8.70252C1.65553 8.68516 1.75499 8.76292 1.77256 9.00506C2.06712 8.62651 2.43842 8.37508 2.46312 7.88932C2.46655 7.82179 2.50393 7.77309 2.56509 7.75439C2.77736 7.68928 2.82161 7.52288 2.822 7.32688C2.82214 7.24347 2.84855 7.1633 2.94207 7.1711C3.2003 7.19249 3.18353 7.01882 3.18155 6.84596C3.17891 6.60368 3.18089 6.3614 3.18089 6.05765C3.45418 6.26387 3.57094 6.53023 3.67067 6.77708C3.79365 7.08151 4.08701 7.09644 4.29571 7.24724C4.38897 7.31464 4.5064 7.17325 4.65764 7.12913C4.4068 6.68816 4.25371 6.2519 4.53585 5.79035C4.50375 5.62045 4.81033 5.6183 4.71404 5.41665C4.67666 5.035 4.69872 4.9902 5.02669 4.88703C5.1815 4.83833 5.33604 4.79017 5.50644 4.80012C5.88249 4.82205 5.93308 4.86483 5.97469 5.25723C5.98063 5.31306 5.97469 5.38436 6.09027 5.40198C6.41362 4.79272 6.31033 4.11069 6.39949 3.44493C6.47319 3.5851 6.5469 3.72541 6.65811 3.93729C7.16533 3.43995 7.33322 3.21449 7.37694 3.10566Z" fill="#E6E4D6"/>
<path d="M5.33693 18.259C5.27644 18.259 5.21581 18.259 5.15531 18.259C5.04026 18.1633 5.05162 18.0059 4.98056 17.8888C4.9194 17.7887 4.83856 17.7047 4.76631 17.6135C4.70449 17.5056 4.78969 17.3764 4.7181 17.27C4.71572 16.724 4.71453 16.1781 4.70978 15.6321C4.70872 15.5181 4.72008 15.4186 4.84913 15.3856C5.00817 15.345 5.09455 15.2286 5.15676 15.0851C5.21805 14.9438 5.31131 14.9562 5.39968 15.048C5.68499 15.3442 5.8954 15.7048 6.03515 16.0802C6.14214 16.3678 6.06368 16.7113 6.01058 17.0249C5.98126 17.1976 5.84495 17.3256 5.70691 17.4037C5.47589 17.5344 5.36137 17.722 5.32386 17.9753C5.29268 18.0415 5.2734 18.107 5.33416 18.1681C5.3368 18.1982 5.33773 18.2285 5.3368 18.2588L5.33693 18.259Z" fill="#E6E4D6"/>
<path d="M0.352638 13.425C0.392925 14.3609 0.867783 15.1184 1.18017 15.9319C1.26801 16.1606 1.13909 16.372 1.06288 16.4168C0.802531 16.5701 0.814816 16.8317 0.719976 17.0818C0.526995 16.9427 0.427136 16.7392 0.399926 16.5534C0.343524 16.1682 0.17564 15.8298 0.057553 15.4707C-0.0260589 15.2168 -0.0314745 14.9807 0.128484 14.7318C0.30086 14.4636 0.197567 14.1399 0.199284 13.8403C0.200473 13.6341 0.19017 13.6339 0.352771 13.425L0.352638 13.425Z" fill="#E6E4D6"/>
<path d="M1.73646 11.9993C2.20524 12.259 2.22981 12.7103 2.32874 13.1144C2.42147 13.4931 2.31791 13.8614 2.22148 14.227C2.2088 14.2753 2.19203 14.3069 2.15557 14.3322C1.91596 14.4984 1.42209 14.3299 1.35287 14.0458C1.28841 13.7812 1.24614 13.5106 1.20374 13.241C1.176 13.0642 1.22554 12.8592 1.36555 12.7945C1.63977 12.668 1.64849 12.4361 1.69049 12.2021C1.70092 12.1437 1.71638 12.0864 1.73632 11.9992L1.73646 11.9993Z" fill="#E6E4D6"/>
<path d="M1.79355 17.9509C1.93462 18.5625 2.23843 19.1187 1.78246 19.6731C1.38025 19.0977 1.36915 18.5983 1.79355 17.9509Z" fill="#E6E4D6"/>
<path d="M1.48448 8.70275C1.34447 8.65755 1.38792 8.53499 1.38581 8.43989C1.37934 8.15577 1.38713 7.87112 1.3796 7.58701C1.37657 7.47374 1.41632 7.34312 1.29731 7.25742C1.25689 7.12303 1.32135 7.03411 1.48435 6.88923L1.48435 8.70288L1.48448 8.70275Z" fill="#E6E4D6"/>
<path d="M4.71432 5.41644C4.77099 5.4681 4.79833 5.53402 4.8056 5.61002C4.81894 5.74925 4.79899 5.82042 4.6607 5.69262C4.65383 5.6863 4.5792 5.75598 4.53614 5.79028C4.46666 5.60182 4.61063 5.51922 4.71432 5.41658L4.71432 5.41644Z" fill="#E6E4D6"/>
<path d="M6.65286 25.796C6.70557 25.9137 6.73568 26.0216 6.63701 26.1111C6.61456 26.1316 6.4966 26.0966 6.47811 26.0588C6.40203 25.9036 6.55129 25.8768 6.65286 25.796Z" fill="#E6E4D6"/>
<path d="M4.71836 17.2702C4.81452 17.3582 4.79616 17.4801 4.81003 17.5924C4.8412 17.6372 4.83724 17.6786 4.79814 17.7166C4.68534 17.6619 4.65548 17.5442 4.6004 17.4458C4.67266 17.4101 4.68983 17.3363 4.71823 17.2701L4.71836 17.2702Z" fill="#E6E4D6"/>
<path d="M0.341185 12.0562C0.425986 12.188 0.396002 12.3127 0.338015 12.4512C0.296011 12.3122 0.240401 12.1871 0.341185 12.0562Z" fill="#E6E4D6"/>
<path d="M3.99395 5.32583C4.09526 5.37789 4.09037 5.45228 4.03727 5.54053C3.97361 5.4812 3.90453 5.42901 3.90849 5.32986C3.92606 5.29758 3.94455 5.28614 3.96397 5.29583C3.98391 5.30565 3.99382 5.3156 3.99382 5.32596L3.99395 5.32583Z" fill="#E6E4D6"/>
<path d="M10.6576 6.5157C10.6624 6.59319 10.6334 6.6209 10.5894 6.60422C10.541 6.58593 10.5539 6.53333 10.558 6.49216C10.5618 6.45396 10.5768 6.40324 10.6209 6.42692C10.6477 6.44131 10.6518 6.49997 10.6576 6.51557L10.6576 6.5157Z" fill="#E6E4D6"/>
<path d="M1.03282 10.543C1.05171 10.5347 1.07073 10.5343 1.08988 10.542C1.11062 10.599 1.10626 10.6878 1.0628 10.6873C1.01631 10.6867 1.01314 10.6004 1.03269 10.543L1.03282 10.543Z" fill="#E6E4D6"/>
<path d="M3.99349 5.32618C3.96496 5.32645 3.93642 5.32779 3.90803 5.33008C3.89455 5.26403 3.84145 5.16017 3.92744 5.14807C3.99824 5.13811 3.99071 5.25596 3.99335 5.32631L3.99349 5.32618Z" fill="#E6E4D6"/>
<path d="M5.33497 18.1677C5.25889 18.1075 5.24819 18.0436 5.32467 17.9748C5.35611 18.0376 5.35743 18.1019 5.33497 18.1677Z" fill="#E6E4D6"/>
<path d="M7.05755 3.6709C7.05055 3.61534 7.04368 3.55978 7.03668 3.50422C7.06878 3.50436 7.10088 3.50449 7.13298 3.50476C7.13192 3.55978 7.13086 3.61453 7.12981 3.66942C7.11448 3.70493 7.09863 3.71691 7.08238 3.70561C7.06587 3.69417 7.05768 3.68274 7.05768 3.6709L7.05755 3.6709Z" fill="#E6E4D6"/>
<path d="M5.44834 6.10302C5.30027 6.27655 5.12539 6.23593 4.94469 6.27588C4.91365 6.13597 4.82119 5.96513 4.98234 5.88872C5.16185 5.8037 5.30635 5.95908 5.44848 6.10302L5.44834 6.10302Z" fill="#E6E4D6"/>
<path d="M4.79889 17.7167C4.80285 17.6755 4.80681 17.6342 4.81078 17.5928C4.88937 17.6756 5.04338 17.6641 5.07271 17.8091C5.00587 17.9495 5.14417 18.1462 4.95568 18.2534C4.9035 18.0745 4.8512 17.8956 4.79902 17.7167L4.79889 17.7167Z" fill="#E6E4D6"/>
<path d="M4.95447 18.2532C5.00334 18.1078 4.86874 17.9122 5.0715 17.8089C5.17426 17.9447 5.21732 18.0918 5.15511 18.2593C5.08761 18.2764 5.01615 18.4353 4.95447 18.2534L4.95447 18.2532Z" fill="#E6E4D6"/>
<path d="M3.25504 12.4773C3.27511 12.5615 3.28185 12.6437 3.22135 12.7161C3.15874 12.6444 3.16588 12.5624 3.18741 12.4784C3.20207 12.4517 3.21686 12.4428 3.23205 12.4513C3.24724 12.4599 3.25491 12.4685 3.25491 12.4774L3.25504 12.4773Z" fill="#E6E4D6"/>
<path d="M7.05753 3.67155C7.08183 3.68191 7.10587 3.68137 7.12978 3.67007C7.13427 3.74298 7.18301 3.84805 7.07879 3.8619C7.03903 3.86715 7.04022 3.7415 7.05753 3.67155Z" fill="#E6E4D6"/>
<path d="M3.25501 12.4781C3.23255 12.4835 3.20997 12.4838 3.18738 12.4792C3.18804 12.4177 3.1887 12.3564 3.18936 12.2949C3.21353 12.2973 3.23784 12.2987 3.26214 12.2991C3.25976 12.3588 3.25752 12.4184 3.25514 12.4781L3.25501 12.4781Z" fill="#E6E4D6"/>
</svg>
