<svg width="84" height="81" viewBox="0 0 84 81" fill="none" xmlns="http://www.w3.org/2000/svg">
<path d="M20.9234 8.809C20.9347 8.78076 21.0437 8.62089 21.1898 8.42172C21.3262 8.23552 21.5847 8.06077 21.863 8.19698C22.1006 8.31298 22.0369 8.56595 22.0384 8.76817C22.0459 9.89223 22.0421 11.0163 22.0421 12.1377C22.8783 12.188 23.1046 11.7901 23.0758 11.0518C23.0319 9.92695 23.0645 8.79908 23.0675 7.67235C23.0683 7.40374 23.1211 7.11986 23.4193 7.07522C23.661 7.03897 23.7749 7.27515 23.834 7.48959C24.015 8.1409 24.444 8.2855 25.0104 8.0581C25.6994 7.78147 25.9958 8.14967 26.0576 8.74795C26.2505 10.624 26.7563 12.4738 26.2505 14.4014C26.0254 15.2595 26.0373 16.2207 26.1299 17.1146C26.2007 17.7972 26.4764 18.5294 27.3887 18.5741C27.7154 18.5901 27.8795 18.8877 28.1252 19.0453C28.3527 19.1914 28.5782 19.3151 28.8045 19.0636C28.9955 18.8515 29.1203 18.887 29.2627 19.1235C29.4803 19.4852 30.0052 19.7664 29.8947 20.1919C29.7692 20.6734 29.1814 20.7333 28.7475 20.8417C28.301 20.9534 27.8252 20.9386 27.3703 21.0229C26.9159 21.1068 26.3704 21.0805 26.0572 21.4441C25.2491 22.3824 24.2679 22.2305 23.2676 22.0107C22.3879 21.8173 21.7739 22.2042 21.6592 23.123C21.6064 23.5484 21.6502 23.986 21.6502 24.5271C20.5211 24.4225 19.502 24.6595 18.4789 25.0029C18.0428 25.1494 17.9461 25.2997 17.9566 25.6828C17.966 26.0293 17.9622 26.3761 17.9588 26.7229C17.9558 27.0087 18.0424 27.2407 18.3331 27.325C19.0981 27.5471 19.5129 28.2583 20.1202 28.5685C20.1996 28.8379 20.0452 28.8722 19.9512 28.9272C18.6658 29.678 18.0027 30.7227 18.1986 32.3085C18.2803 32.9709 17.9045 33.6321 17.9352 34.2815C17.6134 34.4459 17.4842 34.2071 17.2995 34.1357C16.4726 33.816 16.0193 33.9568 15.6885 34.6176C15.3423 35.31 14.8434 35.3629 14.1918 34.7764C13.7355 35.201 13.6898 35.9229 13.0854 36.2816C12.7254 36.4953 12.8475 37.0752 12.8483 37.5064C12.8524 39.627 12.8974 41.7485 12.7539 43.8672C12.7247 44.2995 12.7943 44.7479 12.3575 45.0253C11.7948 45.3828 11.7465 45.9433 11.8476 46.5145C12.0372 47.5863 11.9109 48.803 13.048 49.4803C13.4211 49.5696 13.6055 49.8618 13.7703 50.1751C14.0123 50.6051 14.0962 51.092 14.2427 51.554C14.3585 51.9772 14.5694 51.5311 14.7241 51.6044C14.8894 51.604 15.025 51.6692 15.1374 51.7871C15.5877 52.4011 16.0856 52.7429 16.9372 52.7925C17.6273 52.833 18.2582 53.4652 18.4792 54.2722C18.5703 54.6045 18.6587 54.9548 18.6523 55.2948C18.6178 57.1445 19.5526 58.327 21.0924 59.1382C21.3906 59.2954 21.6236 59.5983 21.7143 59.9379C22.0316 61.1276 22.912 61.7949 23.8636 62.3955C24.3342 62.6923 24.8497 62.9361 25.0003 63.5455C25.0704 63.8294 25.2446 63.9843 25.4874 64.0983C25.641 64.1705 25.8369 64.2231 25.9264 64.349C26.2003 64.7348 25.7631 65.5296 26.2396 65.6001C26.7855 65.6806 26.9841 65.9386 27.292 66.2869C27.5921 66.6261 28.1016 66.744 28.4115 67.1237C28.5392 67.2801 28.7408 67.577 28.9008 67.4388C29.5676 66.8638 29.7831 67.5205 30.2075 67.8067C30.8841 68.263 31.7129 68.3439 32.515 68.403C32.9784 68.437 33.4445 68.4282 33.8761 68.5915C34.1799 68.2367 33.9364 67.8036 34.021 67.6212C34.1848 67.2839 34.3373 67.3496 34.4257 67.3934C35.6834 68.0234 37.1838 67.8917 38.3883 68.7197C38.5921 68.8597 38.9683 68.7312 39.2646 68.7426C39.5209 68.7525 39.9015 68.7697 39.9446 68.9998C40.1285 69.9876 41.0805 69.5202 41.5559 69.938C41.6814 70.0483 41.8733 69.9651 41.9508 69.7617C42.1074 69.3497 42.5203 69.4351 42.7024 69.5584C44.1919 70.5661 45.8108 70.4363 47.403 70.0632C48.3554 69.8403 49.3021 69.9605 50.2473 69.8335C50.9165 69.7434 51.6392 69.2592 52.3203 69.8728C52.3802 69.9266 52.5653 69.8533 52.6859 69.8174C54.8862 69.1642 57.2304 69.2257 59.3992 68.4072C59.9492 68.1997 59.8923 67.8679 60.9555 67.8679L61.3099 67.8679C62.7275 67.5082 63.7906 66.7887 63.7906 66.7887C65.4728 65.76 65.161 65.6336 65.917 64.9899C68.2005 63.0455 65.9791 57.6863 66.921 52.7925C67.9494 47.4481 72.5121 44.8864 76.1945 39.0757C81.1626 31.2359 77.8131 21.4216 74.0681 14.9116C72.0072 11.3292 63.8051 5.06161 58.7395 4.4351C46.7433 1.83912 36.4417 4.34558 33.3127 9.77127C40.4235 -3.17247 54.9497 0.403008 57.7659 0.593789C62.2789 0.899407 69.7147 1.89868 79.883 21.2766C85.4087 35.49 83.7376 38.1115 82.5736 47.5645C82.0528 51.7925 80.7137 56.5119 78.3208 60.2824C73.9716 67.1347 70.3295 71.3517 66.921 73.5094C66.921 73.5094 68.934 76.3916 61.7692 79.0655C61.6377 79.1148 61.513 79.1502 61.513 79.1502C61.29 79.2159 60.9394 79.2945 60.5164 79.2884C59.8252 79.2788 59.2044 79.4299 58.5735 79.7191C58.0126 79.9763 57.4327 80.1518 56.7482 79.9172C56.3046 79.7653 55.7228 79.8798 55.2448 80.0206C54.4254 80.2621 53.642 80.5795 52.7743 80.2266C52.596 80.1541 52.3577 80.209 52.173 80.3517C51.4533 80.9073 50.652 80.8123 49.7981 80.8138C48.3925 80.8165 47.0194 80.0705 45.5905 80.6425C45.3848 80.7249 45.0851 80.6188 44.8442 80.5467C42.521 79.8534 40.0896 79.8515 37.7334 79.3773C37.3093 79.2918 36.968 79.2006 36.9957 79.834C37.0089 80.1324 36.868 80.325 36.5435 80.3247C36.2622 80.3247 36.0153 80.2442 35.9962 79.9206C35.9752 79.568 35.8703 79.3559 35.4885 79.3208C35.0022 79.2762 35.1379 79.644 35.0423 79.9053C34.8531 80.4235 34.3069 80.1232 34.2616 79.9763C34.051 79.2975 33.2504 79.1953 33.0413 78.5836C32.8926 78.1483 32.5356 78.0693 32.2366 78.1158C31.7005 78.1986 31.252 77.9987 30.7628 77.8842C30.2645 77.7679 29.8479 77.6992 29.9456 77.0231C29.9812 76.7774 29.8029 76.6366 29.5684 76.5873C28.5872 76.3809 27.6543 75.9059 26.5821 76.255C26.2925 76.3493 26.046 76.2588 26.0017 76.669C25.9635 77.0235 25.6814 77.0055 25.4188 76.9861C25.1655 76.9674 25.0273 76.8167 25.0205 76.5748C25.0097 76.2085 24.9479 75.9124 24.5717 75.7269C24.0712 75.4805 23.5752 75.3332 23.0244 75.4984C22.5955 75.627 22.1725 75.7033 22.0271 75.1123C21.8825 74.5235 21.1411 75.2511 21.0478 74.6407C20.9894 74.2583 21.152 73.6994 20.9515 73.5094C20.4948 73.0771 19.9741 72.7008 19.5174 72.254C19.3398 72.0801 18.9517 71.9927 19.0187 71.7187C19.3735 70.2703 17.9963 70.2127 17.35 69.6248C17.1365 69.4306 16.9297 69.3623 16.9353 69.0383C16.9424 68.6049 16.9477 68.171 16.9338 67.738C16.9188 67.2671 16.9087 67.2675 16.3224 66.6326C15.959 67.0916 16.0935 67.6186 16.068 68.1008C16.0377 68.6766 15.7009 68.9109 15.1786 69.0505C14.871 67.78 14.5645 66.5735 14.2911 65.359C14.1498 64.7321 13.792 64.4055 13.1765 64.3361C12.4032 64.2491 12.0027 64.5894 11.9885 65.422C11.9679 66.6254 11.9832 67.8296 11.9832 69.2302C11.3006 68.6896 10.92 68.1909 10.9664 67.4446C11.059 65.9565 10.7739 64.5383 10.4112 63.0991C10.1823 62.1913 9.99012 61.1467 10.7904 60.2824C11.1212 59.9253 11.0781 59.4892 10.6079 59.1847C10.3239 59.0008 10.0557 58.8127 9.98974 58.4105C9.95528 58.1984 9.61023 58.0305 9.48772 58.1488C8.81036 58.8047 8.75828 58.0587 8.5822 57.7314C8.40237 57.3967 8.22891 57.0492 8.18357 56.6458C7.84527 53.6255 7.37659 50.6169 7.3912 47.5645C7.39345 47.1356 7.25408 46.6347 7.54443 46.3004C8.0547 45.7132 7.90933 45.1222 7.75161 44.4823C7.3144 42.7081 7.3069 40.8866 7.24209 39.0757C7.15367 36.6132 7.37921 34.1434 7.00157 31.6854C6.87868 30.8849 6.44222 30.2504 6.16873 29.5323C6.10953 29.377 5.95143 29.1836 5.78846 29.3423C5.20739 29.9089 4.78591 29.3095 4.31198 29.1595C3.58329 28.9291 3.366 29.0466 3.09101 29.8978C3.05692 30.0108 3.02207 30.0485 2.98498 30.0123C2.94789 29.976 2.92916 29.939 2.92916 29.9009C2.43013 28.6669 2.97112 27.446 2.98161 26.2185C2.9981 24.3153 3.47764 22.4663 3.6792 20.5837C4.34607 20.7478 3.96281 21.2843 4.01601 21.6437C4.16437 22.6487 3.79834 23.6911 4.2097 24.6835C4.69562 24.6343 4.97773 24.8548 5.02756 25.5416C5.86302 24.4679 6.91615 23.7548 6.98621 22.377C6.99595 22.1855 7.10197 22.0474 7.27543 21.9943C7.87749 21.8097 8.003 21.3377 8.00412 20.7818C8.00449 20.5452 8.07942 20.3178 8.34467 20.3399C9.07711 20.4006 9.02953 19.908 9.02391 19.4177C9.01641 18.7305 9.02203 18.0434 9.02203 17.1818C9.79718 17.7667 10.1284 18.5222 10.4112 19.2223C10.76 20.0858 11.5921 20.1282 12.184 20.5559C12.4485 20.747 12.7816 20.346 13.2106 20.2209C12.4991 18.9701 12.0649 17.7328 12.8652 16.4237C12.7741 15.9417 13.6437 15.9356 13.3706 15.3637C13.2645 14.2812 13.3271 14.1542 14.2573 13.8615C14.6964 13.7234 15.1348 13.5868 15.6181 13.615C16.6847 13.6772 16.8282 13.7986 16.9462 14.9116C16.963 15.0699 16.9462 15.2721 17.274 15.3221C18.1911 13.5941 17.8982 11.6596 18.151 9.77127C18.3601 10.1688 18.5691 10.5668 18.8846 11.1678C20.3232 9.75716 20.7994 9.11767 20.9234 8.809Z" fill="#E6E4D6" fill-opacity="0.4"/>
<path d="M15.138 51.7886C14.9664 51.7886 14.7945 51.7886 14.6229 51.7886C14.2965 51.5169 14.3288 51.0705 14.1272 50.7385C13.9537 50.4547 13.7245 50.2162 13.5195 49.9575C13.3442 49.6515 13.5858 49.2852 13.3828 48.9834C13.376 47.4347 13.3727 45.8863 13.3592 44.3376C13.3562 44.0144 13.3884 43.7321 13.7544 43.6386C14.2055 43.5234 14.4505 43.1933 14.627 42.7862C14.8008 42.3856 15.0653 42.4207 15.316 42.6809C16.1252 43.5211 16.722 44.544 17.1184 45.6086C17.4218 46.4243 17.1993 47.3988 17.0487 48.2882C16.9655 48.7781 16.5789 49.141 16.1874 49.3627C15.5321 49.7331 15.2073 50.2654 15.1009 50.9839C15.0125 51.1716 14.9578 51.3574 15.1301 51.5306C15.1376 51.6161 15.1402 51.702 15.1376 51.7878L15.138 51.7886Z" fill="#E6E4D6" fill-opacity="0.4"/>
<path d="M1.0002 38.0775C1.11447 40.7319 2.46132 42.8804 3.34736 45.1877C3.5965 45.8363 3.23084 46.4361 3.01467 46.5632C2.27624 46.9978 2.31109 47.7399 2.04209 48.4492C1.49473 48.0547 1.2115 47.4774 1.13432 46.9505C0.974348 45.8581 0.498173 44.8981 0.163239 43.8797C-0.0739117 43.1594 -0.0892722 42.4897 0.364424 41.7839C0.853338 41.023 0.560364 40.105 0.565235 39.2553C0.568607 38.6704 0.539384 38.67 1.00057 38.0775L1.0002 38.0775Z" fill="#E6E4D6" fill-opacity="0.4"/>
<path d="M4.92566 34.0346C6.25528 34.771 6.32496 36.0511 6.60557 37.1973C6.86857 38.2714 6.57485 39.3161 6.30136 40.3531C6.26539 40.4901 6.21781 40.5798 6.11441 40.6515C5.4348 41.1227 4.034 40.645 3.83768 39.8392C3.65486 39.0887 3.53497 38.321 3.41471 37.5563C3.33603 37.055 3.47652 36.4735 3.87365 36.29C4.65141 35.9313 4.67614 35.2735 4.79528 34.6096C4.82488 34.444 4.86871 34.2815 4.92528 34.0342L4.92566 34.0346Z" fill="#E6E4D6" fill-opacity="0.4"/>
<path d="M5.0872 50.9156C5.48732 52.6502 6.349 54.2279 5.05573 55.8003C3.91493 54.1684 3.88346 52.7517 5.0872 50.9156Z" fill="#E6E4D6" fill-opacity="0.4"/>
<path d="M4.20989 24.6844C3.81277 24.5562 3.93603 24.2086 3.93003 23.9389C3.91167 23.133 3.93378 22.3257 3.91242 21.5198C3.90381 21.1986 4.01657 20.8281 3.67902 20.585C3.56438 20.2039 3.7472 19.9516 4.20952 19.5407L4.20952 24.6848L4.20989 24.6844Z" fill="#E6E4D6" fill-opacity="0.4"/>
<path d="M13.3715 15.3637C13.5322 15.5103 13.6098 15.6972 13.6304 15.9128C13.6682 16.3077 13.6117 16.5095 13.2194 16.1471C13.1999 16.1291 12.9882 16.3268 12.8661 16.4241C12.669 15.8895 13.0774 15.6552 13.3715 15.3641L13.3715 15.3637Z" fill="#E6E4D6" fill-opacity="0.4"/>
<path d="M18.8693 73.1658C19.0188 73.4996 19.1042 73.8057 18.8244 74.0598C18.7607 74.1178 18.4261 74.0186 18.3737 73.9113C18.1579 73.471 18.5812 73.3951 18.8693 73.1658Z" fill="#E6E4D6" fill-opacity="0.4"/>
<path d="M13.3828 48.9843C13.6556 49.2338 13.6035 49.5795 13.6428 49.8981C13.7313 50.0251 13.72 50.1426 13.6091 50.2502C13.2892 50.0953 13.2045 49.7615 13.0483 49.4822C13.2532 49.3811 13.3019 49.1716 13.3825 48.9839L13.3828 48.9843Z" fill="#E6E4D6" fill-opacity="0.4"/>
<path d="M0.966891 34.1967C1.20741 34.5706 1.12237 34.9243 0.9579 35.3169C0.838762 34.9228 0.681036 34.5679 0.966891 34.1967Z" fill="#E6E4D6" fill-opacity="0.4"/>
<path d="M11.3273 15.1061C11.6147 15.2538 11.6008 15.4648 11.4502 15.7151C11.2696 15.5468 11.0737 15.3988 11.0849 15.1176C11.1348 15.026 11.1872 14.9936 11.2423 15.021C11.2989 15.0489 11.327 15.0771 11.327 15.1065L11.3273 15.1061Z" fill="#E6E4D6" fill-opacity="0.4"/>
<path d="M30.2296 18.4803C30.243 18.7001 30.161 18.7787 30.0362 18.7314C29.8987 18.6795 29.9355 18.5303 29.9471 18.4136C29.9579 18.3052 30.0003 18.1614 30.1254 18.2285C30.2015 18.2693 30.2131 18.4357 30.2296 18.48L30.2296 18.4803Z" fill="#E6E4D6" fill-opacity="0.4"/>
<path d="M2.92849 29.9035C2.98207 29.8798 3.03602 29.8787 3.09034 29.9004C3.14916 30.0622 3.1368 30.314 3.01354 30.3125C2.88166 30.311 2.87267 30.066 2.92812 29.9035L2.92849 29.9035Z" fill="#E6E4D6" fill-opacity="0.4"/>
<path d="M11.3275 15.1059C11.2466 15.1066 11.1657 15.1105 11.0851 15.1169C11.0469 14.9296 10.8963 14.635 11.1402 14.6007C11.341 14.5725 11.3197 14.9067 11.3271 15.1063L11.3275 15.1059Z" fill="#E6E4D6" fill-opacity="0.4"/>
<path d="M15.131 51.5303C14.9152 51.3593 14.8849 51.1781 15.1018 50.9831C15.191 51.1613 15.1947 51.3437 15.131 51.5303Z" fill="#E6E4D6" fill-opacity="0.4"/>
<path d="M20.0178 10.4128C19.9979 10.2553 19.9784 10.0977 19.9586 9.9401C20.0496 9.94048 20.1406 9.94086 20.2317 9.94163C20.2287 10.0977 20.2257 10.253 20.2227 10.4086C20.1792 10.5094 20.1343 10.5433 20.0882 10.5113C20.0414 10.4789 20.0181 10.4464 20.0181 10.4128L20.0178 10.4128Z" fill="#E6E4D6" fill-opacity="0.4"/>
<path d="M15.4537 17.3105C15.0338 17.8027 14.5377 17.6875 14.0252 17.8008C13.9372 17.404 13.6749 16.9194 14.132 16.7027C14.6411 16.4615 15.051 16.9022 15.4541 17.3105L15.4537 17.3105Z" fill="#E6E4D6" fill-opacity="0.4"/>
<path d="M13.6101 50.2501C13.6213 50.1333 13.6326 50.0162 13.6438 49.8987C13.8667 50.1337 14.3036 50.1009 14.3867 50.5122C14.1972 50.9105 14.5894 51.4684 14.0548 51.7725C13.9068 51.265 13.7585 50.7575 13.6105 50.2501L13.6101 50.2501Z" fill="#E6E4D6" fill-opacity="0.4"/>
<path d="M14.0536 51.7725C14.1923 51.36 13.8105 50.8052 14.3856 50.5122C14.6771 50.8972 14.7992 51.3146 14.6227 51.7896C14.4313 51.8381 14.2286 52.2887 14.0536 51.7728L14.0536 51.7725Z" fill="#E6E4D6" fill-opacity="0.4"/>
<path d="M9.23248 35.3901C9.28942 35.629 9.30853 35.8621 9.13694 36.0674C8.95936 35.864 8.97959 35.6316 9.04066 35.3932C9.08224 35.3176 9.1242 35.2924 9.16729 35.3165C9.21037 35.3409 9.2321 35.3653 9.2321 35.3905L9.23248 35.3901Z" fill="#E6E4D6" fill-opacity="0.4"/>
<path d="M20.0181 10.4133C20.0871 10.4426 20.1552 10.4411 20.2231 10.4091C20.2358 10.6159 20.374 10.9139 20.0784 10.9532C19.9657 10.968 19.969 10.6117 20.0181 10.4133Z" fill="#E6E4D6" fill-opacity="0.4"/>
<path d="M9.2321 35.3924C9.16841 35.4076 9.10435 35.4084 9.04028 35.3954C9.04216 35.2211 9.04403 35.0471 9.0459 34.8727C9.11446 34.8796 9.1834 34.8834 9.25233 34.8845C9.24559 35.0539 9.23922 35.223 9.23248 35.3924L9.2321 35.3924Z" fill="#E6E4D6" fill-opacity="0.4"/>
</svg>
