<svg width="159" height="144" viewBox="0 0 159 144" fill="none" xmlns="http://www.w3.org/2000/svg">
<path d="M35.9024 15.6474C35.9244 15.5972 36.1375 15.3132 36.4232 14.9594C36.6898 14.6287 37.1951 14.3183 37.7393 14.5602C38.2037 14.7663 38.0792 15.2156 38.0821 15.5748C38.0968 17.5715 38.0894 19.5682 38.0894 21.5601C39.7242 21.6496 40.1666 20.9427 40.1102 19.6312C40.0245 17.6332 40.0882 15.6297 40.0941 13.6283C40.0955 13.1512 40.1988 12.6469 40.7818 12.5676C41.2542 12.5033 41.4769 12.9228 41.5926 13.3037C41.9464 14.4606 42.785 14.7175 43.8924 14.3135C45.2394 13.8222 45.8187 14.4762 45.9396 15.5389C46.3168 18.8715 47.3056 22.1572 46.3168 25.5812C45.8766 27.1055 45.9 28.8128 46.0809 30.4008C46.2194 31.6133 46.7584 32.9139 48.5419 32.9932C49.1806 33.0217 49.5014 33.5503 49.9818 33.8302C50.4264 34.0898 50.8673 34.3094 51.3097 33.8627C51.6833 33.4859 51.9272 33.549 52.2055 33.9692C52.631 34.6117 53.6572 35.1112 53.4411 35.8669C53.1957 36.7222 52.0466 36.8286 51.1984 37.0211C50.3253 37.2197 49.3952 37.1932 48.506 37.343C47.6176 37.4921 46.5512 37.4454 45.9389 38.0913C44.359 39.7579 42.4408 39.4881 40.4852 39.0977C38.7655 38.7541 37.565 39.4414 37.3409 41.0734C37.2376 41.8291 37.3233 42.6065 37.3233 43.5676C35.1158 43.3818 33.1236 43.8027 31.1233 44.4127C30.2708 44.673 30.0818 44.94 30.1023 45.6205C30.1206 46.2359 30.1133 46.8519 30.1067 47.468C30.1009 47.9757 30.27 48.3877 30.8384 48.5375C32.334 48.932 33.1448 50.1953 34.3321 50.7463C34.4874 51.2248 34.1856 51.2858 34.0018 51.3834C31.4888 52.7173 30.1924 54.573 30.5755 57.3897C30.7351 58.5663 30.0005 59.7408 30.0606 60.8944C29.4314 61.1865 29.1787 60.7622 28.8176 60.6355C27.2012 60.0675 26.3149 60.3176 25.6682 61.4915C24.9914 62.7214 24.0161 62.8154 22.7422 61.7734C21.8501 62.5278 21.7607 63.8101 20.5793 64.4472C19.8754 64.8267 20.1142 65.8569 20.1157 66.6228C20.1237 70.3898 20.2116 74.1581 19.9311 77.9217C19.874 78.6896 20.0102 79.4859 19.1562 79.9787C18.0561 80.6137 17.9616 81.6093 18.1594 82.6239C18.53 84.5278 18.2831 86.6891 20.5061 87.8921C21.2356 88.0507 21.5959 88.5699 21.9182 89.1263C22.3913 89.8902 22.5554 90.755 22.8418 91.5758C23.0681 92.3274 23.4804 91.5351 23.7829 91.6652C24.1059 91.6645 24.3711 91.7804 24.5908 91.9899C25.4712 93.0804 26.4446 93.6876 28.1094 93.7757C29.4585 93.8476 30.6919 94.9706 31.124 96.4041C31.302 96.9944 31.4749 97.6166 31.4624 98.2205C31.395 101.506 33.2225 103.607 36.2327 105.048C36.8157 105.327 37.2713 105.865 37.4486 106.468C38.0689 108.581 39.7901 109.767 41.6505 110.834C42.5704 111.361 43.5782 111.794 43.8727 112.876C44.0096 113.381 44.3502 113.656 44.8248 113.858C45.1251 113.986 45.5082 114.08 45.6832 114.304C46.2186 114.989 45.3639 116.401 46.2955 116.526C47.3627 116.669 47.7509 117.127 48.3529 117.746C48.9396 118.348 49.9357 118.558 50.5414 119.232C50.7912 119.51 51.1852 120.037 51.498 119.792C52.8017 118.771 53.2228 119.937 54.0527 120.445C55.3754 121.256 56.9956 121.4 58.5637 121.505C59.4697 121.565 60.3808 121.55 61.2246 121.84C61.8186 121.209 61.3425 120.44 61.508 120.116C61.8281 119.517 62.1262 119.634 62.2991 119.711C64.7578 120.83 67.6912 120.597 70.0459 122.067C70.4444 122.316 71.1797 122.088 71.7591 122.108C72.2601 122.126 73.0042 122.156 73.0884 122.565C73.4481 124.32 75.3092 123.489 76.2386 124.231C76.484 124.427 76.859 124.28 77.0106 123.918C77.3167 123.186 78.1239 123.338 78.4798 123.557C81.392 125.347 84.5568 125.117 87.6696 124.454C89.5314 124.058 91.3823 124.271 93.2302 124.046C94.5383 123.886 95.9511 123.026 97.2827 124.116C97.3999 124.211 97.7617 124.081 97.9975 124.017C102.299 122.857 106.882 122.966 111.122 121.512C112.197 121.144 112.086 120.554 114.164 120.554L114.857 120.554C117.629 119.915 119.707 118.637 119.707 118.637C122.996 116.81 122.386 116.585 123.864 115.442C128.328 111.988 123.986 102.469 125.827 93.7758C127.837 84.2824 136.757 79.732 143.956 69.4104C153.669 55.4845 147.121 38.0513 139.799 26.4874C135.77 20.1239 119.735 8.99085 109.832 7.87796C86.3798 3.26671 66.2404 7.71896 60.1232 17.3567C74.0246 -5.63542 102.423 0.71573 107.929 1.05461C116.752 1.59749 131.289 3.37251 151.167 37.7937C161.97 63.0411 158.703 67.6977 156.427 84.4891C155.409 91.9993 152.791 100.383 148.113 107.08C139.611 119.252 132.49 126.743 125.827 130.575C125.827 130.575 129.762 135.695 115.755 140.445C115.498 140.532 115.254 140.595 115.254 140.595C114.818 140.712 114.133 140.851 113.306 140.841C111.955 140.824 110.741 141.092 109.508 141.606C108.411 142.063 107.277 142.374 105.939 141.957C105.072 141.688 103.935 141.891 103 142.141C101.398 142.57 99.8667 143.134 98.1704 142.507C97.8218 142.378 97.3559 142.476 96.9948 142.729C95.5879 143.716 94.0212 143.547 92.352 143.55C89.6039 143.555 86.9196 142.23 84.1261 143.246C83.724 143.392 83.1381 143.204 82.6671 143.076C78.1253 141.844 73.3719 141.841 68.7657 140.998C67.9366 140.847 67.2693 140.685 67.3235 141.81C67.3491 142.34 67.0738 142.682 66.4395 142.681C65.8894 142.681 65.4067 142.538 65.3694 141.964C65.3284 141.337 65.1233 140.96 64.377 140.898C63.4263 140.819 63.6914 141.472 63.5046 141.936C63.1348 142.857 62.0669 142.323 61.9783 142.063C61.5666 140.857 60.0014 140.675 59.5927 139.589C59.302 138.815 58.604 138.675 58.0195 138.758C56.9714 138.905 56.0947 138.55 55.1381 138.346C54.164 138.14 53.3495 138.018 53.5407 136.817C53.6103 136.38 53.2616 136.13 52.8031 136.043C50.8849 135.676 49.0612 134.832 46.965 135.452C46.3988 135.62 45.9169 135.459 45.8304 136.188C45.7557 136.817 45.2042 136.786 44.6908 136.751C44.1957 136.718 43.9254 136.45 43.9122 136.02C43.891 135.37 43.7701 134.844 43.0348 134.514C42.0563 134.077 41.0865 133.815 40.0099 134.108C39.1712 134.337 38.3443 134.472 38.0601 133.422C37.7774 132.377 36.3279 133.669 36.1456 132.585C36.0313 131.906 36.3492 130.913 35.9573 130.575C35.0645 129.807 34.0464 129.139 33.1536 128.345C32.8064 128.036 32.0476 127.881 32.1787 127.395C32.8724 124.822 30.18 124.719 28.9165 123.675C28.499 123.33 28.0947 123.209 28.1057 122.633C28.1196 121.863 28.1299 121.093 28.1028 120.323C28.0735 119.487 28.0537 119.488 26.9075 118.36C26.197 119.175 26.46 120.111 26.4101 120.968C26.3508 121.991 25.6924 122.407 24.6714 122.655C24.07 120.398 23.4709 118.255 22.9363 116.098C22.6601 114.984 21.9607 114.404 20.7573 114.281C19.2456 114.126 18.4626 114.731 18.4348 116.209C18.3945 118.347 18.4245 120.486 18.4245 122.974C17.09 122.014 16.3459 121.128 16.4367 119.802C16.6176 117.159 16.0602 114.64 15.3512 112.083C14.9037 110.471 14.528 108.615 16.0925 107.08C16.7392 106.446 16.655 105.671 15.7358 105.13C15.1806 104.804 14.6562 104.469 14.5273 103.755C14.4599 103.378 13.7853 103.08 13.5458 103.29C12.2216 104.455 12.1198 103.13 11.7755 102.549C11.424 101.954 11.0849 101.337 10.9962 100.62C10.3348 95.2553 9.41858 89.9112 9.44715 84.4891C9.45154 83.7273 9.17908 82.8374 9.74671 82.2437C10.7443 81.2007 10.4601 80.1508 10.1517 79.0142C9.297 75.8626 9.28235 72.627 9.15564 69.4104C8.98279 65.0362 9.42371 60.649 8.68542 56.2829C8.44519 54.861 7.59191 53.7339 7.05724 52.4584C6.94151 52.1825 6.63243 51.8389 6.31383 52.1208C5.17783 53.1273 4.35385 52.0625 3.42733 51.7962C2.00276 51.3868 1.57795 51.5956 1.04035 53.1077C0.973701 53.3083 0.905586 53.3754 0.833076 53.311C0.760565 53.2466 0.723944 53.1808 0.723944 53.1131C-0.251649 50.9212 0.805976 48.7524 0.826484 46.572C0.858711 43.1914 1.79622 39.907 2.19026 36.5629C3.49398 36.8544 2.74471 37.8073 2.84871 38.4457C3.13876 40.2309 2.42317 42.0826 3.22738 43.8454C4.17734 43.758 4.72885 44.1497 4.82627 45.3697C6.45958 43.4625 8.51843 42.1958 8.65539 39.7484C8.67444 39.4081 8.88171 39.1628 9.22083 39.0686C10.3978 38.7406 10.6432 37.9022 10.6454 36.9147C10.6461 36.4945 10.7926 36.0905 11.3112 36.1298C12.7431 36.2376 12.65 35.3626 12.6391 34.4917C12.6244 33.2711 12.6354 32.0504 12.6354 30.5201C14.1508 31.5591 14.7983 32.901 15.3512 34.1447C16.0331 35.6785 17.6598 35.7537 18.8171 36.5135C19.3342 36.853 19.9853 36.1407 20.8239 35.9184C19.4331 33.6967 18.5842 31.4987 20.1486 29.1733C19.9707 28.3173 21.6706 28.3065 21.1367 27.2905C20.9294 25.3678 21.0517 25.1421 22.8703 24.6222C23.7287 24.3769 24.5857 24.1342 25.5305 24.1844C27.6157 24.2949 27.8962 24.5104 28.127 26.4874C28.1599 26.7687 28.127 27.1279 28.7678 27.2167C30.5608 24.1471 29.9881 20.7109 30.4824 17.3567C30.8911 18.0629 31.2998 18.7698 31.9165 19.8373C34.7291 17.3316 35.66 16.1957 35.9024 15.6474Z" fill="#E6E4D6"/>
</svg>
