<svg width="100%" height="100%" viewBox="0 0 345 130" fill="none" xmlns="http://www.w3.org/2000/svg">
<path d="M3.234 10L0.504 0.76H1.666L3.948 8.978L6.118 0.76H7.392L9.562 9.006L11.844 0.76H12.95L10.234 10H8.848L7.21 4.008L6.734 1.922H6.72L6.244 4.008L4.62 10H3.234ZM14.9651 10V0.76H21.4471V1.81H16.0851V4.792H20.2571V5.842H16.0851V8.95H21.6571V10H14.9651ZM38.3743 10V0.76H41.6643C42.7563 0.76 43.5543 0.988666 44.0583 1.446C44.5623 1.90333 44.8143 2.524 44.8143 3.308C44.8143 3.77467 44.679 4.19933 44.4083 4.582C44.1376 4.95533 43.755 5.19333 43.2603 5.296V5.31C43.811 5.41267 44.245 5.66467 44.5623 6.066C44.889 6.458 45.0523 6.906 45.0523 7.41C45.0523 8.194 44.7583 8.824 44.1703 9.3C43.5823 9.76667 42.7423 10 41.6503 10H38.3743ZM39.4943 8.95H41.9163C42.579 8.95 43.069 8.81467 43.3863 8.544C43.713 8.27333 43.8763 7.89533 43.8763 7.41C43.8763 6.91533 43.713 6.53733 43.3863 6.276C43.069 6.00533 42.579 5.87 41.9163 5.87H39.4943V8.95ZM39.4943 4.82H41.6783C42.985 4.82 43.6383 4.316 43.6383 3.308C43.6383 2.30933 42.985 1.81 41.6783 1.81H39.4943V4.82ZM47.5208 10V0.76H54.0028V1.81H48.6408V4.792H52.8128V5.842H48.6408V8.95H54.2128V10H47.5208ZM57.5685 8.95H62.8605V10H56.4485V0.76H57.5685V8.95ZM65.9357 0.76V10H64.8157V0.76H65.9357ZM68.9583 10V0.76H75.4403V1.81H70.0783V4.792H74.2503V5.842H70.0783V8.95H75.6503V10H68.9583ZM85.054 0.76L81.554 10H80.28L76.766 0.76H77.97L80.322 7.144L80.91 8.978L81.498 7.158L83.85 0.76H85.054ZM86.9641 10V0.76H93.4461V1.81H88.0841V4.792H92.2561V5.842H88.0841V8.95H93.6561V10H86.9641ZM116.487 0.76V1.81H113.267V10H112.147V1.81H108.927V0.76H116.487ZM125.692 0.76V10H124.572V0.76H125.692ZM119.56 0.76V10H118.44V0.76H119.56ZM125.09 4.792V5.842H119.028V4.792H125.09ZM136.085 10H134.895L133.915 7.438H129.729L128.749 10H127.573L131.171 0.76H132.501L136.085 10ZM130.135 6.388H133.509L131.815 1.838L130.135 6.388ZM143.201 0.76V1.81H139.981V10H138.861V1.81H135.641V0.76H143.201ZM168.185 0.76V10H167.121V4.19L167.247 1.754H167.233L164.195 10H163.243L160.205 1.754H160.191L160.317 4.19V10H159.253V0.76H160.975L163.005 6.374L163.705 8.684H163.733L164.447 6.388L166.463 0.76H168.185ZM178.566 10H177.376L176.396 7.438H172.21L171.23 10H170.054L173.652 0.76H174.982L178.566 10ZM172.616 6.388H175.99L174.296 1.838L172.616 6.388ZM183.854 10.14C182.977 10.14 182.216 9.94867 181.572 9.566C180.937 9.174 180.443 8.62333 180.088 7.914C179.743 7.20467 179.57 6.36 179.57 5.38C179.57 4.4 179.752 3.55533 180.116 2.846C180.489 2.13667 181.007 1.59067 181.67 1.208C182.333 0.816 183.093 0.62 183.952 0.62C184.867 0.62 185.609 0.792666 186.178 1.138C186.757 1.48333 187.223 2.01533 187.578 2.734L186.556 3.294C186.351 2.762 186.024 2.36067 185.576 2.09C185.137 1.81 184.596 1.67 183.952 1.67C183.327 1.67 182.771 1.81933 182.286 2.118C181.81 2.40733 181.432 2.832 181.152 3.392C180.881 3.94267 180.746 4.60533 180.746 5.38C180.746 6.15467 180.863 6.822 181.096 7.382C181.339 7.93267 181.693 8.35733 182.16 8.656C182.636 8.94533 183.215 9.09 183.896 9.09C184.279 9.09 184.633 9.04333 184.96 8.95C185.296 8.84733 185.585 8.698 185.828 8.502C186.08 8.306 186.276 8.05867 186.416 7.76C186.556 7.46133 186.626 7.11133 186.626 6.71V6.388H183.686V5.338H187.648V10H186.766L186.71 8.278L186.948 8.32C186.705 8.89867 186.323 9.34667 185.8 9.664C185.277 9.98133 184.629 10.14 183.854 10.14ZM191.381 0.76V10H190.261V0.76H191.381ZM201.852 7.634C201.656 8.15667 201.376 8.60933 201.012 8.992C200.648 9.36533 200.218 9.65 199.724 9.846C199.238 10.042 198.706 10.14 198.128 10.14C197.25 10.14 196.49 9.94867 195.846 9.566C195.211 9.174 194.716 8.62333 194.362 7.914C194.016 7.20467 193.844 6.36 193.844 5.38C193.844 4.4 194.016 3.55533 194.362 2.846C194.716 2.13667 195.211 1.59067 195.846 1.208C196.49 0.816 197.241 0.62 198.1 0.62C198.697 0.62 199.229 0.704 199.696 0.872C200.162 1.03067 200.559 1.27333 200.886 1.6C201.222 1.91733 201.488 2.30933 201.684 2.776L200.578 3.294C200.372 2.762 200.074 2.36067 199.682 2.09C199.299 1.81 198.8 1.67 198.184 1.67C197.558 1.67 197.008 1.81933 196.532 2.118C196.056 2.40733 195.682 2.82733 195.412 3.378C195.15 3.92867 195.02 4.596 195.02 5.38C195.02 6.15467 195.146 6.822 195.398 7.382C195.65 7.93267 196.009 8.35733 196.476 8.656C196.942 8.94533 197.493 9.09 198.128 9.09C198.744 9.09 199.28 8.936 199.738 8.628C200.195 8.31067 200.526 7.83933 200.732 7.214L201.852 7.634ZM219.603 0.76V10H218.483V0.76H219.603ZM225.593 0.62C226.405 0.62 227.105 0.788 227.693 1.124C228.281 1.45067 228.771 1.936 229.163 2.58L228.225 3.308C227.88 2.71067 227.488 2.29067 227.049 2.048C226.62 1.796 226.097 1.67 225.481 1.67C224.987 1.67 224.576 1.74 224.249 1.88C223.932 2.02 223.699 2.20667 223.549 2.44C223.4 2.664 223.325 2.92067 223.325 3.21C223.325 3.53667 223.428 3.826 223.633 4.078C223.839 4.32067 224.249 4.512 224.865 4.652L226.867 5.1C227.754 5.296 228.37 5.59467 228.715 5.996C229.07 6.388 229.247 6.878 229.247 7.466C229.247 7.98867 229.098 8.45533 228.799 8.866C228.51 9.26733 228.099 9.58 227.567 9.804C227.035 10.028 226.41 10.14 225.691 10.14C225.019 10.14 224.427 10.0513 223.913 9.874C223.409 9.68733 222.975 9.44 222.611 9.132C222.247 8.824 221.949 8.47867 221.715 8.096L222.695 7.298C222.873 7.65267 223.101 7.96533 223.381 8.236C223.661 8.50667 223.997 8.71667 224.389 8.866C224.791 9.01533 225.248 9.09 225.761 9.09C226.237 9.09 226.648 9.034 226.993 8.922C227.348 8.80067 227.619 8.628 227.805 8.404C227.992 8.17067 228.085 7.89067 228.085 7.564C228.085 7.26533 227.987 6.99933 227.791 6.766C227.595 6.52333 227.227 6.34133 226.685 6.22L224.515 5.73C223.946 5.59933 223.484 5.422 223.129 5.198C222.784 4.96467 222.532 4.694 222.373 4.386C222.224 4.06867 222.149 3.728 222.149 3.364C222.149 2.86933 222.285 2.41667 222.555 2.006C222.835 1.586 223.232 1.25 223.745 0.998C224.268 0.746 224.884 0.62 225.593 0.62ZM253.327 0.76V10H251.941L248.077 3.812L247.097 2.076H247.083L247.139 3.476V10H246.075V0.76H247.461L251.311 6.92L252.305 8.698H252.319L252.263 7.284V0.76H253.327ZM256.357 10V0.76H262.839V1.81H257.477V4.792H261.649V5.842H257.477V8.95H263.049V10H256.357ZM272.452 0.76L268.952 10H267.678L264.164 0.76H265.368L267.72 7.144L268.308 8.978L268.896 7.158L271.248 0.76H272.452ZM274.363 10V0.76H280.845V1.81H275.483V4.792H279.655V5.842H275.483V8.95H281.055V10H274.363ZM286.79 0.76C287.733 0.76 288.489 1.00267 289.058 1.488C289.628 1.97333 289.912 2.63133 289.912 3.462C289.912 4.29267 289.623 4.94133 289.044 5.408C288.475 5.86533 287.719 6.094 286.776 6.094L286.678 6.164H284.41V10H283.29V0.76H286.79ZM286.776 5.114C287.439 5.114 287.929 4.97867 288.246 4.708C288.573 4.428 288.736 4.01267 288.736 3.462C288.736 2.91133 288.573 2.50067 288.246 2.23C287.929 1.95 287.439 1.81 286.776 1.81H284.41V5.114H286.776ZM287.42 5.338L290.472 10H289.142L286.482 5.954L287.42 5.338ZM313.55 1.81H308.202V4.792H312.374V5.842H308.202V10H307.082V0.76H313.55V1.81ZM322.007 10H320.817L319.837 7.438H315.651L314.671 10H313.495L317.093 0.76H318.423L322.007 10ZM316.057 6.388H319.431L317.737 1.838L316.057 6.388ZM327.385 0.76C328.328 0.76 329.084 1.00267 329.653 1.488C330.222 1.97333 330.507 2.63133 330.507 3.462C330.507 4.29267 330.218 4.94133 329.639 5.408C329.07 5.86533 328.314 6.094 327.371 6.094L327.273 6.164H325.005V10H323.885V0.76H327.385ZM327.371 5.114C328.034 5.114 328.524 4.97867 328.841 4.708C329.168 4.428 329.331 4.01267 329.331 3.462C329.331 2.91133 329.168 2.50067 328.841 2.23C328.524 1.95 328.034 1.81 327.371 1.81H325.005V5.114H327.371ZM328.015 5.338L331.067 10H329.737L327.077 5.954L328.015 5.338ZM344.198 5.814V6.864H332.298V5.814H344.198ZM4.48 17.62C5.292 17.62 5.992 17.788 6.58 18.124C7.168 18.4507 7.658 18.936 8.05 19.58L7.112 20.308C6.76667 19.7107 6.37467 19.2907 5.936 19.048C5.50667 18.796 4.984 18.67 4.368 18.67C3.87333 18.67 3.46267 18.74 3.136 18.88C2.81867 19.02 2.58533 19.2067 2.436 19.44C2.28667 19.664 2.212 19.9207 2.212 20.21C2.212 20.5367 2.31467 20.826 2.52 21.078C2.72533 21.3207 3.136 21.512 3.752 21.652L5.754 22.1C6.64067 22.296 7.25667 22.5947 7.602 22.996C7.95667 23.388 8.134 23.878 8.134 24.466C8.134 24.9887 7.98467 25.4553 7.686 25.866C7.39667 26.2673 6.986 26.58 6.454 26.804C5.922 27.028 5.29667 27.14 4.578 27.14C3.906 27.14 3.31333 27.0513 2.8 26.874C2.296 26.6873 1.862 26.44 1.498 26.132C1.134 25.824 0.835333 25.4787 0.602 25.096L1.582 24.298C1.75933 24.6527 1.988 24.9653 2.268 25.236C2.548 25.5067 2.884 25.7167 3.276 25.866C3.67733 26.0153 4.13467 26.09 4.648 26.09C5.124 26.09 5.53467 26.034 5.88 25.922C6.23467 25.8007 6.50533 25.628 6.692 25.404C6.87867 25.1707 6.972 24.8907 6.972 24.564C6.972 24.2653 6.874 23.9993 6.678 23.766C6.482 23.5233 6.11333 23.3413 5.572 23.22L3.402 22.73C2.83267 22.5993 2.37067 22.422 2.016 22.198C1.67067 21.9647 1.41867 21.694 1.26 21.386C1.11067 21.0687 1.036 20.728 1.036 20.364C1.036 19.8693 1.17133 19.4167 1.442 19.006C1.722 18.586 2.11867 18.25 2.632 17.998C3.15467 17.746 3.77067 17.62 4.48 17.62ZM14.2048 17.62C15.0821 17.62 15.8381 17.816 16.4728 18.208C17.1168 18.5907 17.6114 19.1367 17.9568 19.846C18.3114 20.5553 18.4888 21.4 18.4888 22.38C18.4888 23.36 18.3114 24.2047 17.9568 24.914C17.6114 25.6233 17.1168 26.174 16.4728 26.566C15.8381 26.9487 15.0821 27.14 14.2048 27.14C13.3274 27.14 12.5668 26.9487 11.9228 26.566C11.2881 26.174 10.7934 25.6233 10.4388 24.914C10.0934 24.2047 9.92075 23.36 9.92075 22.38C9.92075 21.4 10.0934 20.5553 10.4388 19.846C10.7934 19.1367 11.2881 18.5907 11.9228 18.208C12.5668 17.816 13.3274 17.62 14.2048 17.62ZM14.2048 18.67C13.5701 18.67 13.0194 18.8193 12.5528 19.118C12.0861 19.4073 11.7268 19.832 11.4748 20.392C11.2228 20.9427 11.0968 21.6053 11.0968 22.38C11.0968 23.1547 11.2228 23.822 11.4748 24.382C11.7268 24.9327 12.0861 25.3573 12.5528 25.656C13.0194 25.9453 13.5701 26.09 14.2048 26.09C14.8488 26.09 15.3994 25.9453 15.8568 25.656C16.3234 25.3573 16.6828 24.9327 16.9348 24.382C17.1868 23.822 17.3128 23.1547 17.3128 22.38C17.3128 21.6053 17.1868 20.9427 16.9348 20.392C16.6828 19.832 16.3234 19.4073 15.8568 19.118C15.3994 18.8193 14.8488 18.67 14.2048 18.67ZM29.8854 17.76V27H28.8214V21.19L28.9474 18.754H28.9334L25.8954 27H24.9434L21.9054 18.754H21.8914L22.0174 21.19V27H20.9534V17.76H22.6754L24.7054 23.374L25.4054 25.684H25.4334L26.1474 23.388L28.1634 17.76H29.8854ZM32.9026 27V17.76H39.3846V18.81H34.0226V21.792H38.1946V22.842H34.0226V25.95H39.5946V27H32.9026ZM48.3264 17.76V18.81H45.1064V27H43.9864V18.81H40.7664V17.76H48.3264ZM51.3996 17.76V27H50.2796V17.76H51.3996ZM63.3542 17.76V27H62.2902V21.19L62.4162 18.754H62.4022L59.3642 27H58.4122L55.3742 18.754H55.3602L55.4862 21.19V27H54.4222V17.76H56.1442L58.1742 23.374L58.8742 25.684H58.9022L59.6162 23.388L61.6322 17.76H63.3542ZM66.3714 27V17.76H72.8534V18.81H67.4914V21.792H71.6634V22.842H67.4914V25.95H73.0634V27H66.3714ZM78.2671 17.62C79.0791 17.62 79.7791 17.788 80.3671 18.124C80.9551 18.4507 81.4451 18.936 81.8371 19.58L80.8991 20.308C80.5538 19.7107 80.1618 19.2907 79.7231 19.048C79.2938 18.796 78.7711 18.67 78.1551 18.67C77.6604 18.67 77.2498 18.74 76.9231 18.88C76.6058 19.02 76.3724 19.2067 76.2231 19.44C76.0738 19.664 75.9991 19.9207 75.9991 20.21C75.9991 20.5367 76.1018 20.826 76.3071 21.078C76.5124 21.3207 76.9231 21.512 77.5391 21.652L79.5411 22.1C80.4278 22.296 81.0438 22.5947 81.3891 22.996C81.7438 23.388 81.9211 23.878 81.9211 24.466C81.9211 24.9887 81.7718 25.4553 81.4731 25.866C81.1838 26.2673 80.7731 26.58 80.2411 26.804C79.7091 27.028 79.0838 27.14 78.3651 27.14C77.6931 27.14 77.1004 27.0513 76.5871 26.874C76.0831 26.6873 75.6491 26.44 75.2851 26.132C74.9211 25.824 74.6224 25.4787 74.3891 25.096L75.3691 24.298C75.5464 24.6527 75.7751 24.9653 76.0551 25.236C76.3351 25.5067 76.6711 25.7167 77.0631 25.866C77.4644 26.0153 77.9218 26.09 78.4351 26.09C78.9111 26.09 79.3218 26.034 79.6671 25.922C80.0218 25.8007 80.2924 25.628 80.4791 25.404C80.6658 25.1707 80.7591 24.8907 80.7591 24.564C80.7591 24.2653 80.6611 23.9993 80.4651 23.766C80.2691 23.5233 79.9004 23.3413 79.3591 23.22L77.1891 22.73C76.6198 22.5993 76.1578 22.422 75.8031 22.198C75.4578 21.9647 75.2058 21.694 75.0471 21.386C74.8978 21.0687 74.8231 20.728 74.8231 20.364C74.8231 19.8693 74.9584 19.4167 75.2291 19.006C75.5091 18.586 75.9058 18.25 76.4191 17.998C76.9418 17.746 77.5578 17.62 78.2671 17.62ZM84.6179 25.32C84.8419 25.32 85.0285 25.3807 85.1779 25.502C85.3365 25.614 85.4579 25.7727 85.5419 25.978C85.6259 26.174 85.6679 26.4073 85.6679 26.678C85.6679 26.986 85.6119 27.2893 85.4999 27.588C85.3972 27.8867 85.2339 28.162 85.0099 28.414C84.7859 28.666 84.4965 28.876 84.1419 29.044L83.5539 28.498C83.8059 28.414 84.0252 28.2973 84.2119 28.148C84.4079 27.9987 84.5665 27.8307 84.6879 27.644C84.8092 27.4573 84.8885 27.266 84.9259 27.07L84.8699 27.042C84.8325 27.07 84.7859 27.0933 84.7299 27.112C84.6739 27.1307 84.5899 27.14 84.4779 27.14C84.3659 27.14 84.2492 27.1073 84.1279 27.042C84.0159 26.9767 83.9179 26.8833 83.8339 26.762C83.7499 26.6313 83.7079 26.4633 83.7079 26.258C83.7079 26.09 83.7499 25.936 83.8339 25.796C83.9179 25.6467 84.0252 25.53 84.1559 25.446C84.2959 25.362 84.4499 25.32 84.6179 25.32ZM93.9978 17.76V27H92.8778V17.76H93.9978ZM103.516 17.76V18.81H100.296V27H99.1764V18.81H95.9564V17.76H103.516ZM114.634 17.76V23.836C114.634 24.872 114.354 25.684 113.794 26.272C113.243 26.8507 112.478 27.14 111.498 27.14C110.807 27.14 110.238 27.0093 109.79 26.748C109.342 26.4867 109.029 26.118 108.852 25.642C108.684 25.1567 108.661 24.592 108.782 23.948L109.818 23.738C109.715 24.5313 109.785 25.124 110.028 25.516C110.28 25.8987 110.756 26.09 111.456 26.09C112.249 26.09 112.791 25.8753 113.08 25.446C113.369 25.0073 113.514 24.3773 113.514 23.556V17.76H114.634ZM124.636 17.76V23.556C124.636 24.7413 124.323 25.6373 123.698 26.244C123.073 26.8413 122.177 27.14 121.01 27.14C119.853 27.14 118.957 26.8413 118.322 26.244C117.697 25.6373 117.384 24.7413 117.384 23.556V17.76H118.504V23.276C118.504 24.2373 118.705 24.9467 119.106 25.404C119.517 25.8613 120.151 26.09 121.01 26.09C121.869 26.09 122.499 25.8613 122.9 25.404C123.311 24.9467 123.516 24.2373 123.516 23.276V17.76H124.636ZM130.446 17.62C131.258 17.62 131.958 17.788 132.546 18.124C133.134 18.4507 133.624 18.936 134.016 19.58L133.078 20.308C132.733 19.7107 132.341 19.2907 131.902 19.048C131.473 18.796 130.95 18.67 130.334 18.67C129.839 18.67 129.429 18.74 129.102 18.88C128.785 19.02 128.551 19.2067 128.402 19.44C128.253 19.664 128.178 19.9207 128.178 20.21C128.178 20.5367 128.281 20.826 128.486 21.078C128.691 21.3207 129.102 21.512 129.718 21.652L131.72 22.1C132.607 22.296 133.223 22.5947 133.568 22.996C133.923 23.388 134.1 23.878 134.1 24.466C134.1 24.9887 133.951 25.4553 133.652 25.866C133.363 26.2673 132.952 26.58 132.42 26.804C131.888 27.028 131.263 27.14 130.544 27.14C129.872 27.14 129.279 27.0513 128.766 26.874C128.262 26.6873 127.828 26.44 127.464 26.132C127.1 25.824 126.801 25.4787 126.568 25.096L127.548 24.298C127.725 24.6527 127.954 24.9653 128.234 25.236C128.514 25.5067 128.85 25.7167 129.242 25.866C129.643 26.0153 130.101 26.09 130.614 26.09C131.09 26.09 131.501 26.034 131.846 25.922C132.201 25.8007 132.471 25.628 132.658 25.404C132.845 25.1707 132.938 24.8907 132.938 24.564C132.938 24.2653 132.84 23.9993 132.644 23.766C132.448 23.5233 132.079 23.3413 131.538 23.22L129.368 22.73C128.799 22.5993 128.337 22.422 127.982 22.198C127.637 21.9647 127.385 21.694 127.226 21.386C127.077 21.0687 127.002 20.728 127.002 20.364C127.002 19.8693 127.137 19.4167 127.408 19.006C127.688 18.586 128.085 18.25 128.598 17.998C129.121 17.746 129.737 17.62 130.446 17.62ZM142.519 17.76V18.81H139.299V27H138.179V18.81H134.959V17.76H142.519ZM156.232 17.76V27H154.846L150.982 20.812L150.002 19.076H149.988L150.044 20.476V27H148.98V17.76H150.366L154.216 23.92L155.21 25.698H155.224L155.168 24.284V17.76H156.232ZM159.262 27V17.76H165.744V18.81H160.382V21.792H164.554V22.842H160.382V25.95H165.954V27H159.262ZM168.189 27V17.76H174.671V18.81H169.309V21.792H173.481V22.842H169.309V25.95H174.881V27H168.189ZM180.099 17.76C181.546 17.76 182.68 18.1613 183.501 18.964C184.332 19.7573 184.747 20.896 184.747 22.38C184.747 23.864 184.332 25.0073 183.501 25.81C182.68 26.6033 181.546 27 180.099 27H177.117V17.76H180.099ZM180.211 25.95C181.266 25.95 182.087 25.6373 182.675 25.012C183.273 24.3773 183.571 23.5 183.571 22.38C183.571 21.26 183.273 20.3873 182.675 19.762C182.087 19.1273 181.266 18.81 180.211 18.81H178.237V25.95H180.211ZM190.175 17.62C190.987 17.62 191.687 17.788 192.275 18.124C192.863 18.4507 193.353 18.936 193.745 19.58L192.807 20.308C192.462 19.7107 192.07 19.2907 191.631 19.048C191.202 18.796 190.679 18.67 190.063 18.67C189.568 18.67 189.158 18.74 188.831 18.88C188.514 19.02 188.28 19.2067 188.131 19.44C187.982 19.664 187.907 19.9207 187.907 20.21C187.907 20.5367 188.01 20.826 188.215 21.078C188.42 21.3207 188.831 21.512 189.447 21.652L191.449 22.1C192.336 22.296 192.952 22.5947 193.297 22.996C193.652 23.388 193.829 23.878 193.829 24.466C193.829 24.9887 193.68 25.4553 193.381 25.866C193.092 26.2673 192.681 26.58 192.149 26.804C191.617 27.028 190.992 27.14 190.273 27.14C189.601 27.14 189.008 27.0513 188.495 26.874C187.991 26.6873 187.557 26.44 187.193 26.132C186.829 25.824 186.53 25.4787 186.297 25.096L187.277 24.298C187.454 24.6527 187.683 24.9653 187.963 25.236C188.243 25.5067 188.579 25.7167 188.971 25.866C189.372 26.0153 189.83 26.09 190.343 26.09C190.819 26.09 191.23 26.034 191.575 25.922C191.93 25.8007 192.2 25.628 192.387 25.404C192.574 25.1707 192.667 24.8907 192.667 24.564C192.667 24.2653 192.569 23.9993 192.373 23.766C192.177 23.5233 191.808 23.3413 191.267 23.22L189.097 22.73C188.528 22.5993 188.066 22.422 187.711 22.198C187.366 21.9647 187.114 21.694 186.955 21.386C186.806 21.0687 186.731 20.728 186.731 20.364C186.731 19.8693 186.866 19.4167 187.137 19.006C187.417 18.586 187.814 18.25 188.327 17.998C188.85 17.746 189.466 17.62 190.175 17.62ZM207.87 27H206.68L205.7 24.438H201.514L200.534 27H199.358L202.956 17.76H204.286L207.87 27ZM201.92 23.388H205.294L203.6 18.838L201.92 23.388ZM217.803 27.14C216.926 27.14 216.165 26.9487 215.521 26.566C214.887 26.174 214.392 25.6233 214.037 24.914C213.692 24.2047 213.519 23.36 213.519 22.38C213.519 21.4 213.701 20.5553 214.065 19.846C214.439 19.1367 214.957 18.5907 215.619 18.208C216.282 17.816 217.043 17.62 217.901 17.62C218.816 17.62 219.558 17.7927 220.127 18.138C220.706 18.4833 221.173 19.0153 221.527 19.734L220.505 20.294C220.3 19.762 219.973 19.3607 219.525 19.09C219.087 18.81 218.545 18.67 217.901 18.67C217.276 18.67 216.721 18.8193 216.235 19.118C215.759 19.4073 215.381 19.832 215.101 20.392C214.831 20.9427 214.695 21.6053 214.695 22.38C214.695 23.1547 214.812 23.822 215.045 24.382C215.288 24.9327 215.643 25.3573 216.109 25.656C216.585 25.9453 217.164 26.09 217.845 26.09C218.228 26.09 218.583 26.0433 218.909 25.95C219.245 25.8473 219.535 25.698 219.777 25.502C220.029 25.306 220.225 25.0587 220.365 24.76C220.505 24.4613 220.575 24.1113 220.575 23.71V23.388H217.635V22.338H221.597V27H220.715L220.659 25.278L220.897 25.32C220.655 25.8987 220.272 26.3467 219.749 26.664C219.227 26.9813 218.578 27.14 217.803 27.14ZM224.21 27V17.76H230.692V18.81H225.33V21.792H229.502V22.842H225.33V25.95H230.902V27H224.21ZM240.39 17.76V27H239.004L235.14 20.812L234.16 19.076H234.146L234.202 20.476V27H233.138V17.76H234.524L238.374 23.92L239.368 25.698H239.382L239.326 24.284V17.76H240.39ZM249.915 17.76V18.81H246.695V27H245.575V18.81H242.355V17.76H249.915ZM252.988 25.95H258.28V27H251.868V17.76H252.988V25.95ZM260.235 27V17.76H266.717V18.81H261.355V21.792H265.527V22.842H261.355V25.95H266.927V27H260.235ZM281.306 17.76V27H279.92L276.056 20.812L275.076 19.076H275.062L275.118 20.476V27H274.054V17.76H275.44L279.29 23.92L280.284 25.698H280.298L280.242 24.284V17.76H281.306ZM291.406 17.76V23.556C291.406 24.7413 291.093 25.6373 290.468 26.244C289.842 26.8413 288.946 27.14 287.78 27.14C286.622 27.14 285.726 26.8413 285.092 26.244C284.466 25.6373 284.154 24.7413 284.154 23.556V17.76H285.274V23.276C285.274 24.2373 285.474 24.9467 285.876 25.404C286.286 25.8613 286.921 26.09 287.78 26.09C288.638 26.09 289.268 25.8613 289.67 25.404C290.08 24.9467 290.286 24.2373 290.286 23.276V17.76H291.406ZM297.23 17.76C298.676 17.76 299.81 18.1613 300.632 18.964C301.462 19.7573 301.878 20.896 301.878 22.38C301.878 23.864 301.462 25.0073 300.632 25.81C299.81 26.6033 298.676 27 297.23 27H294.248V17.76H297.23ZM297.342 25.95C298.396 25.95 299.218 25.6373 299.806 25.012C300.403 24.3773 300.702 23.5 300.702 22.38C300.702 21.26 300.403 20.3873 299.806 19.762C299.218 19.1273 298.396 18.81 297.342 18.81H295.368V25.95H297.342ZM308.062 27.14C307.184 27.14 306.424 26.9487 305.78 26.566C305.145 26.174 304.65 25.6233 304.296 24.914C303.95 24.2047 303.778 23.36 303.778 22.38C303.778 21.4 303.96 20.5553 304.324 19.846C304.697 19.1367 305.215 18.5907 305.878 18.208C306.54 17.816 307.301 17.62 308.16 17.62C309.074 17.62 309.816 17.7927 310.386 18.138C310.964 18.4833 311.431 19.0153 311.786 19.734L310.764 20.294C310.558 19.762 310.232 19.3607 309.784 19.09C309.345 18.81 308.804 18.67 308.16 18.67C307.534 18.67 306.979 18.8193 306.494 19.118C306.018 19.4073 305.64 19.832 305.36 20.392C305.089 20.9427 304.954 21.6053 304.954 22.38C304.954 23.1547 305.07 23.822 305.304 24.382C305.546 24.9327 305.901 25.3573 306.368 25.656C306.844 25.9453 307.422 26.09 308.104 26.09C308.486 26.09 308.841 26.0433 309.168 25.95C309.504 25.8473 309.793 25.698 310.036 25.502C310.288 25.306 310.484 25.0587 310.624 24.76C310.764 24.4613 310.834 24.1113 310.834 23.71V23.388H307.894V22.338H311.856V27H310.974L310.918 25.278L311.156 25.32C310.913 25.8987 310.53 26.3467 310.008 26.664C309.485 26.9813 308.836 27.14 308.062 27.14ZM314.468 27V17.76H320.95V18.81H315.588V21.792H319.76V22.842H315.588V25.95H321.16V27H314.468ZM334.401 17.76V18.81H331.181V27H330.061V18.81H326.841V17.76H334.401ZM339.763 17.62C340.641 17.62 341.397 17.816 342.031 18.208C342.675 18.5907 343.17 19.1367 343.515 19.846C343.87 20.5553 344.047 21.4 344.047 22.38C344.047 23.36 343.87 24.2047 343.515 24.914C343.17 25.6233 342.675 26.174 342.031 26.566C341.397 26.9487 340.641 27.14 339.763 27.14C338.886 27.14 338.125 26.9487 337.481 26.566C336.847 26.174 336.352 25.6233 335.997 24.914C335.652 24.2047 335.479 23.36 335.479 22.38C335.479 21.4 335.652 20.5553 335.997 19.846C336.352 19.1367 336.847 18.5907 337.481 18.208C338.125 17.816 338.886 17.62 339.763 17.62ZM339.763 18.67C339.129 18.67 338.578 18.8193 338.111 19.118C337.645 19.4073 337.285 19.832 337.033 20.392C336.781 20.9427 336.655 21.6053 336.655 22.38C336.655 23.1547 336.781 23.822 337.033 24.382C337.285 24.9327 337.645 25.3573 338.111 25.656C338.578 25.9453 339.129 26.09 339.763 26.09C340.407 26.09 340.958 25.9453 341.415 25.656C341.882 25.3573 342.241 24.9327 342.493 24.382C342.745 23.822 342.871 23.1547 342.871 22.38C342.871 21.6053 342.745 20.9427 342.493 20.392C342.241 19.832 341.882 19.4073 341.415 19.118C340.958 18.8193 340.407 18.67 339.763 18.67ZM5.012 34.76C5.95467 34.76 6.71067 35.0027 7.28 35.488C7.84933 35.9733 8.134 36.6313 8.134 37.462C8.134 38.2927 7.84467 38.9413 7.266 39.408C6.69667 39.8653 5.94067 40.094 4.998 40.094L4.9 40.164H2.632V44H1.512V34.76H5.012ZM4.998 39.114C5.66067 39.114 6.15067 38.9787 6.468 38.708C6.79467 38.428 6.958 38.0127 6.958 37.462C6.958 36.9113 6.79467 36.5007 6.468 36.23C6.15067 35.95 5.66067 35.81 4.998 35.81H2.632V39.114H4.998ZM5.642 39.338L8.694 44H7.364L4.704 39.954L5.642 39.338ZM11.9425 34.76V44H10.8225V34.76H11.9425ZM17.9331 34.62C18.7451 34.62 19.4451 34.788 20.0331 35.124C20.6211 35.4507 21.1111 35.936 21.5031 36.58L20.5651 37.308C20.2198 36.7107 19.8278 36.2907 19.3891 36.048C18.9598 35.796 18.4371 35.67 17.8211 35.67C17.3265 35.67 16.9158 35.74 16.5891 35.88C16.2718 36.02 16.0385 36.2067 15.8891 36.44C15.7398 36.664 15.6651 36.9207 15.6651 37.21C15.6651 37.5367 15.7678 37.826 15.9731 38.078C16.1785 38.3207 16.5891 38.512 17.2051 38.652L19.2071 39.1C20.0938 39.296 20.7098 39.5947 21.0551 39.996C21.4098 40.388 21.5871 40.878 21.5871 41.466C21.5871 41.9887 21.4378 42.4553 21.1391 42.866C20.8498 43.2673 20.4391 43.58 19.9071 43.804C19.3751 44.028 18.7498 44.14 18.0311 44.14C17.3591 44.14 16.7665 44.0513 16.2531 43.874C15.7491 43.6873 15.3151 43.44 14.9511 43.132C14.5871 42.824 14.2885 42.4787 14.0551 42.096L15.0351 41.298C15.2125 41.6527 15.4411 41.9653 15.7211 42.236C16.0011 42.5067 16.3371 42.7167 16.7291 42.866C17.1305 43.0153 17.5878 43.09 18.1011 43.09C18.5771 43.09 18.9878 43.034 19.3331 42.922C19.6878 42.8007 19.9585 42.628 20.1451 42.404C20.3318 42.1707 20.4251 41.8907 20.4251 41.564C20.4251 41.2653 20.3271 40.9993 20.1311 40.766C19.9351 40.5233 19.5665 40.3413 19.0251 40.22L16.8551 39.73C16.2858 39.5993 15.8238 39.422 15.4691 39.198C15.1238 38.9647 14.8718 38.694 14.7131 38.386C14.5638 38.0687 14.4891 37.728 14.4891 37.364C14.4891 36.8693 14.6245 36.4167 14.8951 36.006C15.1751 35.586 15.5718 35.25 16.0851 34.998C16.6078 34.746 17.2238 34.62 17.9331 34.62ZM23.9339 44V34.76H30.4159V35.81H25.0539V38.792H29.2259V39.842H25.0539V42.95H30.6259V44H23.9339ZM41.0491 44V34.76H44.3391C45.4311 34.76 46.2291 34.9887 46.7331 35.446C47.2371 35.9033 47.4891 36.524 47.4891 37.308C47.4891 37.7747 47.3538 38.1993 47.0831 38.582C46.8124 38.9553 46.4298 39.1933 45.9351 39.296V39.31C46.4858 39.4127 46.9198 39.6647 47.2371 40.066C47.5638 40.458 47.7271 40.906 47.7271 41.41C47.7271 42.194 47.4331 42.824 46.8451 43.3C46.2571 43.7667 45.4171 44 44.3251 44H41.0491ZM42.1691 42.95H44.5911C45.2538 42.95 45.7438 42.8147 46.0611 42.544C46.3878 42.2733 46.5511 41.8953 46.5511 41.41C46.5511 40.9153 46.3878 40.5373 46.0611 40.276C45.7438 40.0053 45.2538 39.87 44.5911 39.87H42.1691V42.95ZM42.1691 38.82H44.3531C45.6598 38.82 46.3131 38.316 46.3131 37.308C46.3131 36.3093 45.6598 35.81 44.3531 35.81H42.1691V38.82ZM57.4229 44H56.2329L55.2529 41.438H51.0669L50.0869 44H48.9109L52.5089 34.76H53.8389L57.4229 44ZM51.4729 40.388H54.8469L53.1529 35.838L51.4729 40.388ZM66.4346 41.634C66.2386 42.1567 65.9586 42.6093 65.5946 42.992C65.2306 43.3653 64.8013 43.65 64.3066 43.846C63.8213 44.042 63.2893 44.14 62.7106 44.14C61.8333 44.14 61.0726 43.9487 60.4286 43.566C59.7939 43.174 59.2993 42.6233 58.9446 41.914C58.5993 41.2047 58.4266 40.36 58.4266 39.38C58.4266 38.4 58.5993 37.5553 58.9446 36.846C59.2993 36.1367 59.7939 35.5907 60.4286 35.208C61.0726 34.816 61.8239 34.62 62.6826 34.62C63.2799 34.62 63.8119 34.704 64.2786 34.872C64.7453 35.0307 65.1419 35.2733 65.4686 35.6C65.8046 35.9173 66.0706 36.3093 66.2666 36.776L65.1606 37.294C64.9553 36.762 64.6566 36.3607 64.2646 36.09C63.8819 35.81 63.3826 35.67 62.7666 35.67C62.1413 35.67 61.5906 35.8193 61.1146 36.118C60.6386 36.4073 60.2653 36.8273 59.9946 37.378C59.7333 37.9287 59.6026 38.596 59.6026 39.38C59.6026 40.1547 59.7286 40.822 59.9806 41.382C60.2326 41.9327 60.5919 42.3573 61.0586 42.656C61.5253 42.9453 62.0759 43.09 62.7106 43.09C63.3266 43.09 63.8633 42.936 64.3206 42.628C64.7779 42.3107 65.1093 41.8393 65.3146 41.214L66.4346 41.634ZM75.8223 34.76L71.7903 38.89L71.6223 39.072L69.1443 41.606V40.094L74.3523 34.76H75.8223ZM69.7043 34.76V44H68.5843V34.76H69.7043ZM71.9023 38.176L75.8643 44H74.5203L70.9783 38.806L71.9023 38.176ZM91.8947 34.76V35.81H88.6747V44H87.5547V35.81H84.3347V34.76H91.8947ZM97.2575 34.62C98.1348 34.62 98.8908 34.816 99.5255 35.208C100.169 35.5907 100.664 36.1367 101.009 36.846C101.364 37.5553 101.541 38.4 101.541 39.38C101.541 40.36 101.364 41.2047 101.009 41.914C100.664 42.6233 100.169 43.174 99.5255 43.566C98.8908 43.9487 98.1348 44.14 97.2575 44.14C96.3802 44.14 95.6195 43.9487 94.9755 43.566C94.3408 43.174 93.8462 42.6233 93.4915 41.914C93.1462 41.2047 92.9735 40.36 92.9735 39.38C92.9735 38.4 93.1462 37.5553 93.4915 36.846C93.8462 36.1367 94.3408 35.5907 94.9755 35.208C95.6195 34.816 96.3802 34.62 97.2575 34.62ZM97.2575 35.67C96.6228 35.67 96.0722 35.8193 95.6055 36.118C95.1388 36.4073 94.7795 36.832 94.5275 37.392C94.2755 37.9427 94.1495 38.6053 94.1495 39.38C94.1495 40.1547 94.2755 40.822 94.5275 41.382C94.7795 41.9327 95.1388 42.3573 95.6055 42.656C96.0722 42.9453 96.6228 43.09 97.2575 43.09C97.9015 43.09 98.4522 42.9453 98.9095 42.656C99.3762 42.3573 99.7355 41.9327 99.9875 41.382C100.239 40.822 100.365 40.1547 100.365 39.38C100.365 38.6053 100.239 37.9427 99.9875 37.392C99.7355 36.832 99.3762 36.4073 98.9095 36.118C98.4522 35.8193 97.9015 35.67 97.2575 35.67ZM118.307 34.76V35.81H115.087V44H113.967V35.81H110.747V34.76H118.307ZM127.512 34.76V44H126.392V34.76H127.512ZM121.38 34.76V44H120.26V34.76H121.38ZM126.91 38.792V39.842H120.848V38.792H126.91ZM130.541 44V34.76H137.023V35.81H131.661V38.792H135.833V39.842H131.661V42.95H137.233V44H130.541ZM150.625 34.62C151.437 34.62 152.137 34.788 152.725 35.124C153.313 35.4507 153.803 35.936 154.195 36.58L153.257 37.308C152.911 36.7107 152.519 36.2907 152.081 36.048C151.651 35.796 151.129 35.67 150.513 35.67C150.018 35.67 149.607 35.74 149.281 35.88C148.963 36.02 148.73 36.2067 148.581 36.44C148.431 36.664 148.357 36.9207 148.357 37.21C148.357 37.5367 148.459 37.826 148.665 38.078C148.87 38.3207 149.281 38.512 149.897 38.652L151.899 39.1C152.785 39.296 153.401 39.5947 153.747 39.996C154.101 40.388 154.279 40.878 154.279 41.466C154.279 41.9887 154.129 42.4553 153.831 42.866C153.541 43.2673 153.131 43.58 152.599 43.804C152.067 44.028 151.441 44.14 150.723 44.14C150.051 44.14 149.458 44.0513 148.945 43.874C148.441 43.6873 148.007 43.44 147.643 43.132C147.279 42.824 146.98 42.4787 146.747 42.096L147.727 41.298C147.904 41.6527 148.133 41.9653 148.413 42.236C148.693 42.5067 149.029 42.7167 149.421 42.866C149.822 43.0153 150.279 43.09 150.793 43.09C151.269 43.09 151.679 43.034 152.025 42.922C152.379 42.8007 152.65 42.628 152.837 42.404C153.023 42.1707 153.117 41.8907 153.117 41.564C153.117 41.2653 153.019 40.9993 152.823 40.766C152.627 40.5233 152.258 40.3413 151.717 40.22L149.547 39.73C148.977 39.5993 148.515 39.422 148.161 39.198C147.815 38.9647 147.563 38.694 147.405 38.386C147.255 38.0687 147.181 37.728 147.181 37.364C147.181 36.8693 147.316 36.4167 147.587 36.006C147.867 35.586 148.263 35.25 148.777 34.998C149.299 34.746 149.915 34.62 150.625 34.62ZM163.695 34.76V40.556C163.695 41.7413 163.383 42.6373 162.757 43.244C162.132 43.8413 161.236 44.14 160.069 44.14C158.912 44.14 158.016 43.8413 157.381 43.244C156.756 42.6373 156.443 41.7413 156.443 40.556V34.76H157.563V40.276C157.563 41.2373 157.764 41.9467 158.165 42.404C158.576 42.8613 159.211 43.09 160.069 43.09C160.928 43.09 161.558 42.8613 161.959 42.404C162.37 41.9467 162.575 41.2373 162.575 40.276V34.76H163.695ZM170.037 34.76C170.98 34.76 171.736 35.0027 172.305 35.488C172.875 35.9733 173.159 36.6313 173.159 37.462C173.159 38.2927 172.87 38.9413 172.291 39.408C171.722 39.8653 170.966 40.094 170.023 40.094L169.925 40.164H167.657V44H166.537V34.76H170.037ZM170.023 39.114C170.686 39.114 171.176 38.9787 171.493 38.708C171.82 38.428 171.983 38.0127 171.983 37.462C171.983 36.9113 171.82 36.5007 171.493 36.23C171.176 35.95 170.686 35.81 170.023 35.81H167.657V39.114H170.023ZM170.667 39.338L173.719 44H172.389L169.729 39.954L170.667 39.338ZM182.316 35.81H176.968V38.792H181.14V39.842H176.968V44H175.848V34.76H182.316V35.81ZM190.772 44H189.582L188.602 41.438H184.416L183.436 44H182.26L185.858 34.76H187.188L190.772 44ZM184.822 40.388H188.196L186.502 35.838L184.822 40.388ZM199.784 41.634C199.588 42.1567 199.308 42.6093 198.944 42.992C198.58 43.3653 198.151 43.65 197.656 43.846C197.171 44.042 196.639 44.14 196.06 44.14C195.183 44.14 194.422 43.9487 193.778 43.566C193.144 43.174 192.649 42.6233 192.294 41.914C191.949 41.2047 191.776 40.36 191.776 39.38C191.776 38.4 191.949 37.5553 192.294 36.846C192.649 36.1367 193.144 35.5907 193.778 35.208C194.422 34.816 195.174 34.62 196.032 34.62C196.63 34.62 197.162 34.704 197.628 34.872C198.095 35.0307 198.492 35.2733 198.818 35.6C199.154 35.9173 199.42 36.3093 199.616 36.776L198.51 37.294C198.305 36.762 198.006 36.3607 197.614 36.09C197.232 35.81 196.732 35.67 196.116 35.67C195.491 35.67 194.94 35.8193 194.464 36.118C193.988 36.4073 193.615 36.8273 193.344 37.378C193.083 37.9287 192.952 38.596 192.952 39.38C192.952 40.1547 193.078 40.822 193.33 41.382C193.582 41.9327 193.942 42.3573 194.408 42.656C194.875 42.9453 195.426 43.09 196.06 43.09C196.676 43.09 197.213 42.936 197.67 42.628C198.128 42.3107 198.459 41.8393 198.664 41.214L199.784 41.634ZM201.934 44V34.76H208.416V35.81H203.054V38.792H207.226V39.842H203.054V42.95H208.626V44H201.934ZM211.212 42.32C211.482 42.32 211.702 42.404 211.87 42.572C212.038 42.74 212.122 42.9593 212.122 43.23C212.122 43.5007 212.038 43.72 211.87 43.888C211.702 44.056 211.482 44.14 211.212 44.14C210.941 44.14 210.722 44.056 210.554 43.888C210.386 43.72 210.302 43.5007 210.302 43.23C210.302 42.9593 210.386 42.74 210.554 42.572C210.722 42.404 210.941 42.32 211.212 42.32ZM221.074 44L218.344 34.76H219.506L221.788 42.978L223.958 34.76H225.232L227.402 43.006L229.684 34.76H230.79L228.074 44H226.688L225.05 38.008L224.574 35.922H224.56L224.084 38.008L222.46 44H221.074ZM240.057 34.76V44H238.937V34.76H240.057ZM233.925 34.76V44H232.805V34.76H233.925ZM239.455 38.792V39.842H233.393V38.792H239.455ZM243.086 44V34.76H249.568V35.81H244.206V38.792H248.378V39.842H244.206V42.95H249.778V44H243.086ZM258.51 34.76V35.81H255.29V44H254.17V35.81H250.95V34.76H258.51ZM267.715 34.76V44H266.595V34.76H267.715ZM261.583 34.76V44H260.463V34.76H261.583ZM267.113 38.792V39.842H261.051V38.792H267.113ZM270.744 44V34.76H277.226V35.81H271.864V38.792H276.036V39.842H271.864V42.95H277.436V44H270.744ZM283.172 34.76C284.115 34.76 284.871 35.0027 285.44 35.488C286.009 35.9733 286.294 36.6313 286.294 37.462C286.294 38.2927 286.005 38.9413 285.426 39.408C284.857 39.8653 284.101 40.094 283.158 40.094L283.06 40.164H280.792V44H279.672V34.76H283.172ZM283.158 39.114C283.821 39.114 284.311 38.9787 284.628 38.708C284.955 38.428 285.118 38.0127 285.118 37.462C285.118 36.9113 284.955 36.5007 284.628 36.23C284.311 35.95 283.821 35.81 283.158 35.81H280.792V39.114H283.158ZM283.802 39.338L286.854 44H285.524L282.864 39.954L283.802 39.338ZM302.938 34.76L299.634 40.388V44H298.514V40.388L295.21 34.76H296.54L298.332 37.924L299.074 39.24L299.816 37.924L301.608 34.76H302.938ZM308.045 34.62C308.922 34.62 309.678 34.816 310.313 35.208C310.957 35.5907 311.451 36.1367 311.797 36.846C312.151 37.5553 312.329 38.4 312.329 39.38C312.329 40.36 312.151 41.2047 311.797 41.914C311.451 42.6233 310.957 43.174 310.313 43.566C309.678 43.9487 308.922 44.14 308.045 44.14C307.167 44.14 306.407 43.9487 305.763 43.566C305.128 43.174 304.633 42.6233 304.279 41.914C303.933 41.2047 303.761 40.36 303.761 39.38C303.761 38.4 303.933 37.5553 304.279 36.846C304.633 36.1367 305.128 35.5907 305.763 35.208C306.407 34.816 307.167 34.62 308.045 34.62ZM308.045 35.67C307.41 35.67 306.859 35.8193 306.393 36.118C305.926 36.4073 305.567 36.832 305.315 37.392C305.063 37.9427 304.937 38.6053 304.937 39.38C304.937 40.1547 305.063 40.822 305.315 41.382C305.567 41.9327 305.926 42.3573 306.393 42.656C306.859 42.9453 307.41 43.09 308.045 43.09C308.689 43.09 309.239 42.9453 309.697 42.656C310.163 42.3573 310.523 41.9327 310.775 41.382C311.027 40.822 311.153 40.1547 311.153 39.38C311.153 38.6053 311.027 37.9427 310.775 37.392C310.523 36.832 310.163 36.4073 309.697 36.118C309.239 35.8193 308.689 35.67 308.045 35.67ZM321.863 34.76V40.556C321.863 41.7413 321.551 42.6373 320.925 43.244C320.3 43.8413 319.404 44.14 318.237 44.14C317.08 44.14 316.184 43.8413 315.549 43.244C314.924 42.6373 314.611 41.7413 314.611 40.556V34.76H315.731V40.276C315.731 41.2373 315.932 41.9467 316.333 42.404C316.744 42.8613 317.379 43.09 318.237 43.09C319.096 43.09 319.726 42.8613 320.127 42.404C320.538 41.9467 320.743 41.2373 320.743 40.276V34.76H321.863ZM325.027 34.2C325.251 34.2 325.438 34.2607 325.587 34.382C325.746 34.494 325.867 34.6527 325.951 34.858C326.035 35.054 326.077 35.2873 326.077 35.558C326.077 35.866 326.021 36.1693 325.909 36.468C325.807 36.7667 325.643 37.042 325.419 37.294C325.195 37.546 324.906 37.756 324.551 37.924L323.963 37.378C324.215 37.294 324.435 37.1773 324.621 37.028C324.817 36.8787 324.976 36.7107 325.097 36.524C325.219 36.3373 325.298 36.146 325.335 35.95L325.279 35.922C325.242 35.95 325.195 35.9733 325.139 35.992C325.083 36.0107 324.999 36.02 324.887 36.02C324.775 36.02 324.659 35.9873 324.537 35.922C324.425 35.8567 324.327 35.7633 324.243 35.642C324.159 35.5113 324.117 35.3433 324.117 35.138C324.117 34.97 324.159 34.816 324.243 34.676C324.327 34.5267 324.435 34.41 324.565 34.326C324.705 34.242 324.859 34.2 325.027 34.2ZM331.774 34.76C332.716 34.76 333.472 35.0027 334.042 35.488C334.611 35.9733 334.896 36.6313 334.896 37.462C334.896 38.2927 334.606 38.9413 334.028 39.408C333.458 39.8653 332.702 40.094 331.76 40.094L331.662 40.164H329.394V44H328.274V34.76H331.774ZM331.76 39.114C332.422 39.114 332.912 38.9787 333.23 38.708C333.556 38.428 333.72 38.0127 333.72 37.462C333.72 36.9113 333.556 36.5007 333.23 36.23C332.912 35.95 332.422 35.81 331.76 35.81H329.394V39.114H331.76ZM332.404 39.338L335.456 44H334.126L331.466 39.954L332.404 39.338ZM337.584 44V34.76H344.066V35.81H338.704V38.792H342.876V39.842H338.704V42.95H344.276V44H337.584ZM4.48 51.62C5.292 51.62 5.992 51.788 6.58 52.124C7.168 52.4507 7.658 52.936 8.05 53.58L7.112 54.308C6.76667 53.7107 6.37467 53.2907 5.936 53.048C5.50667 52.796 4.984 52.67 4.368 52.67C3.87333 52.67 3.46267 52.74 3.136 52.88C2.81867 53.02 2.58533 53.2067 2.436 53.44C2.28667 53.664 2.212 53.9207 2.212 54.21C2.212 54.5367 2.31467 54.826 2.52 55.078C2.72533 55.3207 3.136 55.512 3.752 55.652L5.754 56.1C6.64067 56.296 7.25667 56.5947 7.602 56.996C7.95667 57.388 8.134 57.878 8.134 58.466C8.134 58.9887 7.98467 59.4553 7.686 59.866C7.39667 60.2673 6.986 60.58 6.454 60.804C5.922 61.028 5.29667 61.14 4.578 61.14C3.906 61.14 3.31333 61.0513 2.8 60.874C2.296 60.6873 1.862 60.44 1.498 60.132C1.134 59.824 0.835333 59.4787 0.602 59.096L1.582 58.298C1.75933 58.6527 1.988 58.9653 2.268 59.236C2.548 59.5067 2.884 59.7167 3.276 59.866C3.67733 60.0153 4.13467 60.09 4.648 60.09C5.124 60.09 5.53467 60.034 5.88 59.922C6.23467 59.8007 6.50533 59.628 6.692 59.404C6.87867 59.1707 6.972 58.8907 6.972 58.564C6.972 58.2653 6.874 57.9993 6.678 57.766C6.482 57.5233 6.11333 57.3413 5.572 57.22L3.402 56.73C2.83267 56.5993 2.37067 56.422 2.016 56.198C1.67067 55.9647 1.41867 55.694 1.26 55.386C1.11067 55.0687 1.036 54.728 1.036 54.364C1.036 53.8693 1.17133 53.4167 1.442 53.006C1.722 52.586 2.11867 52.25 2.632 51.998C3.15467 51.746 3.77067 51.62 4.48 51.62ZM10.4808 61V51.76H16.9628V52.81H11.6008V55.792H15.7728V56.842H11.6008V59.95H17.1728V61H10.4808ZM19.4085 61V51.76H25.8905V52.81H20.5285V55.792H24.7005V56.842H20.5285V59.95H26.1005V61H19.4085ZM35.5742 51.76L31.5422 55.89L31.3742 56.072L28.8962 58.606V57.094L34.1042 51.76H35.5742ZM29.4562 51.76V61H28.3362V51.76H29.4562ZM31.6542 55.176L35.6162 61H34.2722L30.7302 55.806L31.6542 55.176ZM38.6437 51.76V61H37.5237V51.76H38.6437ZM48.9183 51.76V61H47.5323L43.6683 54.812L42.6883 53.076H42.6743L42.7303 54.476V61H41.6663V51.76H43.0523L46.9023 57.92L47.8963 59.698H47.9103L47.8543 58.284V51.76H48.9183ZM55.6715 61.14C54.7942 61.14 54.0335 60.9487 53.3895 60.566C52.7549 60.174 52.2602 59.6233 51.9055 58.914C51.5602 58.2047 51.3875 57.36 51.3875 56.38C51.3875 55.4 51.5695 54.5553 51.9335 53.846C52.3069 53.1367 52.8249 52.5907 53.4875 52.208C54.1502 51.816 54.9109 51.62 55.7695 51.62C56.6842 51.62 57.4262 51.7927 57.9955 52.138C58.5742 52.4833 59.0409 53.0153 59.3955 53.734L58.3735 54.294C58.1682 53.762 57.8415 53.3607 57.3935 53.09C56.9549 52.81 56.4135 52.67 55.7695 52.67C55.1442 52.67 54.5889 52.8193 54.1035 53.118C53.6275 53.4073 53.2495 53.832 52.9695 54.392C52.6989 54.9427 52.5635 55.6053 52.5635 56.38C52.5635 57.1547 52.6802 57.822 52.9135 58.382C53.1562 58.9327 53.5109 59.3573 53.9775 59.656C54.4535 59.9453 55.0322 60.09 55.7135 60.09C56.0962 60.09 56.4509 60.0433 56.7775 59.95C57.1135 59.8473 57.4029 59.698 57.6455 59.502C57.8975 59.306 58.0935 59.0587 58.2335 58.76C58.3735 58.4613 58.4435 58.1113 58.4435 57.71V57.388H55.5035V56.338H59.4655V61H58.5835L58.5275 59.278L58.7655 59.32C58.5229 59.8987 58.1402 60.3467 57.6175 60.664C57.0949 60.9813 56.4462 61.14 55.6715 61.14ZM91.897 51.76C92.5224 51.76 93.0637 51.8767 93.521 52.11C93.9877 52.334 94.3517 52.656 94.613 53.076C94.8744 53.496 95.005 53.9953 95.005 54.574C95.005 55.1527 94.8744 55.652 94.613 56.072C94.3517 56.492 93.9877 56.8187 93.521 57.052C93.0637 57.276 92.5224 57.388 91.897 57.388H89.755V61H88.635V51.76H91.897ZM91.729 56.338C92.457 56.338 92.989 56.1887 93.325 55.89C93.661 55.582 93.829 55.1433 93.829 54.574C93.829 53.9953 93.661 53.5567 93.325 53.258C92.989 52.9593 92.457 52.81 91.729 52.81H89.755V56.338H91.729ZM97.18 61V51.76H103.662V52.81H98.3V55.792H102.472V56.842H98.3V59.95H103.872V61H97.18ZM109.608 51.76C110.55 51.76 111.306 52.0027 111.876 52.488C112.445 52.9733 112.73 53.6313 112.73 54.462C112.73 55.2927 112.44 55.9413 111.862 56.408C111.292 56.8653 110.536 57.094 109.594 57.094L109.496 57.164H107.228V61H106.108V51.76H109.608ZM109.594 56.114C110.256 56.114 110.746 55.9787 111.064 55.708C111.39 55.428 111.554 55.0127 111.554 54.462C111.554 53.9113 111.39 53.5007 111.064 53.23C110.746 52.95 110.256 52.81 109.594 52.81H107.228V56.114H109.594ZM110.238 56.338L113.29 61H111.96L109.3 56.954L110.238 56.338ZM118.386 51.62C119.198 51.62 119.898 51.788 120.486 52.124C121.074 52.4507 121.564 52.936 121.956 53.58L121.018 54.308C120.673 53.7107 120.281 53.2907 119.842 53.048C119.413 52.796 118.89 52.67 118.274 52.67C117.78 52.67 117.369 52.74 117.042 52.88C116.725 53.02 116.492 53.2067 116.342 53.44C116.193 53.664 116.118 53.9207 116.118 54.21C116.118 54.5367 116.221 54.826 116.426 55.078C116.632 55.3207 117.042 55.512 117.658 55.652L119.66 56.1C120.547 56.296 121.163 56.5947 121.508 56.996C121.863 57.388 122.04 57.878 122.04 58.466C122.04 58.9887 121.891 59.4553 121.592 59.866C121.303 60.2673 120.892 60.58 120.36 60.804C119.828 61.028 119.203 61.14 118.484 61.14C117.812 61.14 117.22 61.0513 116.706 60.874C116.202 60.6873 115.768 60.44 115.404 60.132C115.04 59.824 114.742 59.4787 114.508 59.096L115.488 58.298C115.666 58.6527 115.894 58.9653 116.174 59.236C116.454 59.5067 116.79 59.7167 117.182 59.866C117.584 60.0153 118.041 60.09 118.554 60.09C119.03 60.09 119.441 60.034 119.786 59.922C120.141 59.8007 120.412 59.628 120.598 59.404C120.785 59.1707 120.878 58.8907 120.878 58.564C120.878 58.2653 120.78 57.9993 120.584 57.766C120.388 57.5233 120.02 57.3413 119.478 57.22L117.308 56.73C116.739 56.5993 116.277 56.422 115.922 56.198C115.577 55.9647 115.325 55.694 115.166 55.386C115.017 55.0687 114.942 54.728 114.942 54.364C114.942 53.8693 115.078 53.4167 115.348 53.006C115.628 52.586 116.025 52.25 116.538 51.998C117.061 51.746 117.677 51.62 118.386 51.62ZM128.111 51.62C128.988 51.62 129.744 51.816 130.379 52.208C131.023 52.5907 131.518 53.1367 131.863 53.846C132.218 54.5553 132.395 55.4 132.395 56.38C132.395 57.36 132.218 58.2047 131.863 58.914C131.518 59.6233 131.023 60.174 130.379 60.566C129.744 60.9487 128.988 61.14 128.111 61.14C127.234 61.14 126.473 60.9487 125.829 60.566C125.194 60.174 124.7 59.6233 124.345 58.914C124 58.2047 123.827 57.36 123.827 56.38C123.827 55.4 124 54.5553 124.345 53.846C124.7 53.1367 125.194 52.5907 125.829 52.208C126.473 51.816 127.234 51.62 128.111 51.62ZM128.111 52.67C127.476 52.67 126.926 52.8193 126.459 53.118C125.992 53.4073 125.633 53.832 125.381 54.392C125.129 54.9427 125.003 55.6053 125.003 56.38C125.003 57.1547 125.129 57.822 125.381 58.382C125.633 58.9327 125.992 59.3573 126.459 59.656C126.926 59.9453 127.476 60.09 128.111 60.09C128.755 60.09 129.306 59.9453 129.763 59.656C130.23 59.3573 130.589 58.9327 130.841 58.382C131.093 57.822 131.219 57.1547 131.219 56.38C131.219 55.6053 131.093 54.9427 130.841 54.392C130.589 53.832 130.23 53.4073 129.763 53.118C129.306 52.8193 128.755 52.67 128.111 52.67ZM142.112 51.76V61H140.726L136.862 54.812L135.882 53.076H135.868L135.924 54.476V61H134.86V51.76H136.246L140.096 57.92L141.09 59.698H141.104L141.048 58.284V51.76H142.112ZM152.505 61H151.315L150.335 58.438H146.149L145.169 61H143.993L147.591 51.76H148.921L152.505 61ZM146.555 57.388H149.929L148.235 52.838L146.555 57.388ZM155.503 59.95H160.795V61H154.383V51.76H155.503V59.95ZM195.037 51.76V52.81H191.817V61H190.697V52.81H187.477V51.76H195.037ZM200.491 51.76C201.433 51.76 202.189 52.0027 202.759 52.488C203.328 52.9733 203.613 53.6313 203.613 54.462C203.613 55.2927 203.323 55.9413 202.745 56.408C202.175 56.8653 201.419 57.094 200.477 57.094L200.379 57.164H198.111V61H196.991V51.76H200.491ZM200.477 56.114C201.139 56.114 201.629 55.9787 201.947 55.708C202.273 55.428 202.437 55.0127 202.437 54.462C202.437 53.9113 202.273 53.5007 201.947 53.23C201.629 52.95 201.139 52.81 200.477 52.81H198.111V56.114H200.477ZM201.121 56.338L204.173 61H202.843L200.183 56.954L201.121 56.338ZM213.665 61H212.475L211.495 58.438H207.309L206.329 61H205.153L208.751 51.76H210.081L213.665 61ZM207.715 57.388H211.089L209.395 52.838L207.715 57.388ZM222.795 51.76V61H221.409L217.545 54.812L216.565 53.076H216.551L216.607 54.476V61H215.543V51.76H216.929L220.779 57.92L221.773 59.698H221.787L221.731 58.284V51.76H222.795ZM228.793 51.62C229.605 51.62 230.305 51.788 230.893 52.124C231.481 52.4507 231.971 52.936 232.363 53.58L231.425 54.308C231.079 53.7107 230.687 53.2907 230.249 53.048C229.819 52.796 229.297 52.67 228.681 52.67C228.186 52.67 227.775 52.74 227.449 52.88C227.131 53.02 226.898 53.2067 226.749 53.44C226.599 53.664 226.525 53.9207 226.525 54.21C226.525 54.5367 226.627 54.826 226.833 55.078C227.038 55.3207 227.449 55.512 228.065 55.652L230.067 56.1C230.953 56.296 231.569 56.5947 231.915 56.996C232.269 57.388 232.447 57.878 232.447 58.466C232.447 58.9887 232.297 59.4553 231.999 59.866C231.709 60.2673 231.299 60.58 230.767 60.804C230.235 61.028 229.609 61.14 228.891 61.14C228.219 61.14 227.626 61.0513 227.113 60.874C226.609 60.6873 226.175 60.44 225.811 60.132C225.447 59.824 225.148 59.4787 224.915 59.096L225.895 58.298C226.072 58.6527 226.3 58.9653 226.581 59.236C226.861 59.5067 227.197 59.7167 227.589 59.866C227.99 60.0153 228.447 60.09 228.961 60.09C229.437 60.09 229.847 60.034 230.193 59.922C230.547 59.8007 230.818 59.628 231.005 59.404C231.191 59.1707 231.285 58.8907 231.285 58.564C231.285 58.2653 231.187 57.9993 230.991 57.766C230.795 57.5233 230.426 57.3413 229.885 57.22L227.715 56.73C227.145 56.5993 226.683 56.422 226.329 56.198C225.983 55.9647 225.731 55.694 225.573 55.386C225.423 55.0687 225.349 54.728 225.349 54.364C225.349 53.8693 225.484 53.4167 225.755 53.006C226.035 52.586 226.431 52.25 226.945 51.998C227.467 51.746 228.083 51.62 228.793 51.62ZM241.261 52.81H235.913V55.792H240.085V56.842H235.913V61H234.793V51.76H241.261V52.81ZM246.898 51.62C247.775 51.62 248.531 51.816 249.166 52.208C249.81 52.5907 250.305 53.1367 250.65 53.846C251.005 54.5553 251.182 55.4 251.182 56.38C251.182 57.36 251.005 58.2047 250.65 58.914C250.305 59.6233 249.81 60.174 249.166 60.566C248.531 60.9487 247.775 61.14 246.898 61.14C246.021 61.14 245.26 60.9487 244.616 60.566C243.981 60.174 243.487 59.6233 243.132 58.914C242.787 58.2047 242.614 57.36 242.614 56.38C242.614 55.4 242.787 54.5553 243.132 53.846C243.487 53.1367 243.981 52.5907 244.616 52.208C245.26 51.816 246.021 51.62 246.898 51.62ZM246.898 52.67C246.263 52.67 245.713 52.8193 245.246 53.118C244.779 53.4073 244.42 53.832 244.168 54.392C243.916 54.9427 243.79 55.6053 243.79 56.38C243.79 57.1547 243.916 57.822 244.168 58.382C244.42 58.9327 244.779 59.3573 245.246 59.656C245.713 59.9453 246.263 60.09 246.898 60.09C247.542 60.09 248.093 59.9453 248.55 59.656C249.017 59.3573 249.376 58.9327 249.628 58.382C249.88 57.822 250.006 57.1547 250.006 56.38C250.006 55.6053 249.88 54.9427 249.628 54.392C249.376 53.832 249.017 53.4073 248.55 53.118C248.093 52.8193 247.542 52.67 246.898 52.67ZM257.147 51.76C258.089 51.76 258.845 52.0027 259.415 52.488C259.984 52.9733 260.269 53.6313 260.269 54.462C260.269 55.2927 259.979 55.9413 259.401 56.408C258.831 56.8653 258.075 57.094 257.133 57.094L257.035 57.164H254.767V61H253.647V51.76H257.147ZM257.133 56.114C257.795 56.114 258.285 55.9787 258.603 55.708C258.929 55.428 259.093 55.0127 259.093 54.462C259.093 53.9113 258.929 53.5007 258.603 53.23C258.285 52.95 257.795 52.81 257.133 52.81H254.767V56.114H257.133ZM257.777 56.338L260.829 61H259.499L256.839 56.954L257.777 56.338ZM271.889 51.76V61H270.825V55.19L270.951 52.754H270.937L267.899 61H266.947L263.909 52.754H263.895L264.021 55.19V61H262.957V51.76H264.679L266.709 57.374L267.409 59.684H267.437L268.151 57.388L270.167 51.76H271.889ZM282.271 61H281.081L280.101 58.438H275.915L274.935 61H273.759L277.357 51.76H278.687L282.271 61ZM276.321 57.388H279.695L278.001 52.838L276.321 57.388ZM289.387 51.76V52.81H286.167V61H285.047V52.81H281.827V51.76H289.387ZM292.46 51.76V61H291.34V51.76H292.46ZM299.207 51.62C300.084 51.62 300.84 51.816 301.475 52.208C302.119 52.5907 302.613 53.1367 302.959 53.846C303.313 54.5553 303.491 55.4 303.491 56.38C303.491 57.36 303.313 58.2047 302.959 58.914C302.613 59.6233 302.119 60.174 301.475 60.566C300.84 60.9487 300.084 61.14 299.207 61.14C298.329 61.14 297.569 60.9487 296.925 60.566C296.29 60.174 295.795 59.6233 295.441 58.914C295.095 58.2047 294.923 57.36 294.923 56.38C294.923 55.4 295.095 54.5553 295.441 53.846C295.795 53.1367 296.29 52.5907 296.925 52.208C297.569 51.816 298.329 51.62 299.207 51.62ZM299.207 52.67C298.572 52.67 298.021 52.8193 297.555 53.118C297.088 53.4073 296.729 53.832 296.477 54.392C296.225 54.9427 296.099 55.6053 296.099 56.38C296.099 57.1547 296.225 57.822 296.477 58.382C296.729 58.9327 297.088 59.3573 297.555 59.656C298.021 59.9453 298.572 60.09 299.207 60.09C299.851 60.09 300.401 59.9453 300.859 59.656C301.325 59.3573 301.685 58.9327 301.937 58.382C302.189 57.822 302.315 57.1547 302.315 56.38C302.315 55.6053 302.189 54.9427 301.937 54.392C301.685 53.832 301.325 53.4073 300.859 53.118C300.401 52.8193 299.851 52.67 299.207 52.67ZM313.207 51.76V61H311.821L307.957 54.812L306.977 53.076H306.963L307.019 54.476V61H305.955V51.76H307.341L311.191 57.92L312.185 59.698H312.199L312.143 58.284V51.76H313.207ZM316.587 59.32C316.811 59.32 316.997 59.3807 317.147 59.502C317.305 59.614 317.427 59.7727 317.511 59.978C317.595 60.174 317.637 60.4073 317.637 60.678C317.637 60.986 317.581 61.2893 317.469 61.588C317.366 61.8867 317.203 62.162 316.979 62.414C316.755 62.666 316.465 62.876 316.111 63.044L315.523 62.498C315.775 62.414 315.994 62.2973 316.181 62.148C316.377 61.9987 316.535 61.8307 316.657 61.644C316.778 61.4573 316.857 61.266 316.895 61.07L316.839 61.042C316.801 61.07 316.755 61.0933 316.699 61.112C316.643 61.1307 316.559 61.14 316.447 61.14C316.335 61.14 316.218 61.1073 316.097 61.042C315.985 60.9767 315.887 60.8833 315.803 60.762C315.719 60.6313 315.677 60.4633 315.677 60.258C315.677 60.09 315.719 59.936 315.803 59.796C315.887 59.6467 315.994 59.53 316.125 59.446C316.265 59.362 316.419 59.32 316.587 59.32ZM8.876 78H7.686L6.706 75.438H2.52L1.54 78H0.364L3.962 68.76H5.292L8.876 78ZM2.926 74.388H6.3L4.606 69.838L2.926 74.388ZM39.9991 78V68.76H43.2891C44.3811 68.76 45.1791 68.9887 45.6831 69.446C46.1871 69.9033 46.4391 70.524 46.4391 71.308C46.4391 71.7747 46.3038 72.1993 46.0331 72.582C45.7624 72.9553 45.3798 73.1933 44.8851 73.296V73.31C45.4358 73.4127 45.8698 73.6647 46.1871 74.066C46.5138 74.458 46.6771 74.906 46.6771 75.41C46.6771 76.194 46.3831 76.824 45.7951 77.3C45.2071 77.7667 44.3671 78 43.2751 78H39.9991ZM41.1191 76.95H43.5411C44.2038 76.95 44.6938 76.8147 45.0111 76.544C45.3378 76.2733 45.5011 75.8953 45.5011 75.41C45.5011 74.9153 45.3378 74.5373 45.0111 74.276C44.6938 74.0053 44.2038 73.87 43.5411 73.87H41.1191V76.95ZM41.1191 72.82H43.3031C44.6098 72.82 45.2631 72.316 45.2631 71.308C45.2631 70.3093 44.6098 69.81 43.3031 69.81H41.1191V72.82ZM56.2156 68.76V74.556C56.2156 75.7413 55.9029 76.6373 55.2776 77.244C54.6523 77.8413 53.7563 78.14 52.5896 78.14C51.4323 78.14 50.5363 77.8413 49.9016 77.244C49.2763 76.6373 48.9636 75.7413 48.9636 74.556V68.76H50.0836V74.276C50.0836 75.2373 50.2843 75.9467 50.6856 76.404C51.0963 76.8613 51.7309 77.09 52.5896 77.09C53.4483 77.09 54.0783 76.8613 54.4796 76.404C54.8903 75.9467 55.0956 75.2373 55.0956 74.276V68.76H56.2156ZM62.5577 68.76C63.5004 68.76 64.2564 69.0027 64.8257 69.488C65.395 69.9733 65.6797 70.6313 65.6797 71.462C65.6797 72.2927 65.3904 72.9413 64.8117 73.408C64.2424 73.8653 63.4864 74.094 62.5437 74.094L62.4457 74.164H60.1777V78H59.0577V68.76H62.5577ZM62.5437 73.114C63.2064 73.114 63.6964 72.9787 64.0137 72.708C64.3404 72.428 64.5037 72.0127 64.5037 71.462C64.5037 70.9113 64.3404 70.5007 64.0137 70.23C63.6964 69.95 63.2064 69.81 62.5437 69.81H60.1777V73.114H62.5437ZM63.1877 73.338L66.2397 78H64.9097L62.2497 73.954L63.1877 73.338ZM71.3362 68.62C72.1482 68.62 72.8482 68.788 73.4362 69.124C74.0242 69.4507 74.5142 69.936 74.9062 70.58L73.9682 71.308C73.6229 70.7107 73.2309 70.2907 72.7922 70.048C72.3629 69.796 71.8402 69.67 71.2242 69.67C70.7296 69.67 70.3189 69.74 69.9922 69.88C69.6749 70.02 69.4416 70.2067 69.2922 70.44C69.1429 70.664 69.0682 70.9207 69.0682 71.21C69.0682 71.5367 69.1709 71.826 69.3762 72.078C69.5816 72.3207 69.9922 72.512 70.6082 72.652L72.6102 73.1C73.4969 73.296 74.1129 73.5947 74.4582 73.996C74.8129 74.388 74.9902 74.878 74.9902 75.466C74.9902 75.9887 74.8409 76.4553 74.5422 76.866C74.2529 77.2673 73.8422 77.58 73.3102 77.804C72.7782 78.028 72.1529 78.14 71.4342 78.14C70.7622 78.14 70.1696 78.0513 69.6562 77.874C69.1522 77.6873 68.7182 77.44 68.3542 77.132C67.9902 76.824 67.6916 76.4787 67.4582 76.096L68.4382 75.298C68.6156 75.6527 68.8442 75.9653 69.1242 76.236C69.4042 76.5067 69.7402 76.7167 70.1322 76.866C70.5336 77.0153 70.9909 77.09 71.5042 77.09C71.9802 77.09 72.3909 77.034 72.7362 76.922C73.0909 76.8007 73.3616 76.628 73.5482 76.404C73.7349 76.1707 73.8282 75.8907 73.8282 75.564C73.8282 75.2653 73.7302 74.9993 73.5342 74.766C73.3382 74.5233 72.9696 74.3413 72.4282 74.22L70.2582 73.73C69.6889 73.5993 69.2269 73.422 68.8722 73.198C68.5269 72.9647 68.2749 72.694 68.1162 72.386C67.9669 72.0687 67.8922 71.728 67.8922 71.364C67.8922 70.8693 68.0276 70.4167 68.2982 70.006C68.5782 69.586 68.9749 69.25 69.4882 68.998C70.0109 68.746 70.6269 68.62 71.3362 68.62ZM83.4092 68.76V69.81H80.1892V78H79.0692V69.81H75.8492V68.76H83.4092ZM118.509 68.62C119.386 68.62 120.142 68.816 120.777 69.208C121.421 69.5907 121.916 70.1367 122.261 70.846C122.616 71.5553 122.793 72.4 122.793 73.38C122.793 74.36 122.616 75.2047 122.261 75.914C121.916 76.6233 121.421 77.174 120.777 77.566C120.142 77.9487 119.386 78.14 118.509 78.14C117.632 78.14 116.871 77.9487 116.227 77.566C115.592 77.174 115.098 76.6233 114.743 75.914C114.398 75.2047 114.225 74.36 114.225 73.38C114.225 72.4 114.398 71.5553 114.743 70.846C115.098 70.1367 115.592 69.5907 116.227 69.208C116.871 68.816 117.632 68.62 118.509 68.62ZM118.509 69.67C117.874 69.67 117.324 69.8193 116.857 70.118C116.39 70.4073 116.031 70.832 115.779 71.392C115.527 71.9427 115.401 72.6053 115.401 73.38C115.401 74.1547 115.527 74.822 115.779 75.382C116.031 75.9327 116.39 76.3573 116.857 76.656C117.324 76.9453 117.874 77.09 118.509 77.09C119.153 77.09 119.704 76.9453 120.161 76.656C120.628 76.3573 120.987 75.9327 121.239 75.382C121.491 74.822 121.617 74.1547 121.617 73.38C121.617 72.6053 121.491 71.9427 121.239 71.392C120.987 70.832 120.628 70.4073 120.161 70.118C119.704 69.8193 119.153 69.67 118.509 69.67ZM131.726 69.81H126.378V72.792H130.55V73.842H126.378V78H125.258V68.76H131.726V69.81ZM170.728 75.634C170.532 76.1567 170.252 76.6093 169.888 76.992C169.524 77.3653 169.095 77.65 168.6 77.846C168.115 78.042 167.583 78.14 167.004 78.14C166.127 78.14 165.366 77.9487 164.722 77.566C164.087 77.174 163.593 76.6233 163.238 75.914C162.893 75.2047 162.72 74.36 162.72 73.38C162.72 72.4 162.893 71.5553 163.238 70.846C163.593 70.1367 164.087 69.5907 164.722 69.208C165.366 68.816 166.117 68.62 166.976 68.62C167.573 68.62 168.105 68.704 168.572 68.872C169.039 69.0307 169.435 69.2733 169.762 69.6C170.098 69.9173 170.364 70.3093 170.56 70.776L169.454 71.294C169.249 70.762 168.95 70.3607 168.558 70.09C168.175 69.81 167.676 69.67 167.06 69.67C166.435 69.67 165.884 69.8193 165.408 70.118C164.932 70.4073 164.559 70.8273 164.288 71.378C164.027 71.9287 163.896 72.596 163.896 73.38C163.896 74.1547 164.022 74.822 164.274 75.382C164.526 75.9327 164.885 76.3573 165.352 76.656C165.819 76.9453 166.369 77.09 167.004 77.09C167.62 77.09 168.157 76.936 168.614 76.628C169.071 76.3107 169.403 75.8393 169.608 75.214L170.728 75.634ZM176.378 68.76C177.32 68.76 178.076 69.0027 178.646 69.488C179.215 69.9733 179.5 70.6313 179.5 71.462C179.5 72.2927 179.21 72.9413 178.632 73.408C178.062 73.8653 177.306 74.094 176.364 74.094L176.266 74.164H173.998V78H172.878V68.76H176.378ZM176.364 73.114C177.026 73.114 177.516 72.9787 177.834 72.708C178.16 72.428 178.324 72.0127 178.324 71.462C178.324 70.9113 178.16 70.5007 177.834 70.23C177.516 69.95 177.026 69.81 176.364 69.81H173.998V73.114H176.364ZM177.008 73.338L180.06 78H178.73L176.07 73.954L177.008 73.338ZM182.188 78V68.76H188.67V69.81H183.308V72.792H187.48V73.842H183.308V76.95H188.88V78H182.188ZM198.48 78H197.29L196.31 75.438H192.124L191.144 78H189.968L193.566 68.76H194.896L198.48 78ZM192.53 74.388H195.904L194.21 69.838L192.53 74.388ZM205.596 68.76V69.81H202.376V78H201.256V69.81H198.036V68.76H205.596ZM208.67 68.76V78H207.55V68.76H208.67ZM218.86 68.76L215.36 78H214.086L210.572 68.76H211.776L214.128 75.144L214.716 76.978L215.304 75.158L217.656 68.76H218.86ZM220.77 78V68.76H227.252V69.81H221.89V72.792H226.062V73.842H221.89V76.95H227.462V78H220.77ZM259.503 78V68.76H265.985V69.81H260.623V72.792H264.795V73.842H260.623V76.95H266.195V78H259.503ZM275.683 68.76V78H274.297L270.433 71.812L269.453 70.076H269.439L269.495 71.476V78H268.431V68.76H269.817L273.667 74.92L274.661 76.698H274.675L274.619 75.284V68.76H275.683ZM278.712 78V68.76H285.194V69.81H279.832V72.792H284.004V73.842H279.832V76.95H285.404V78H278.712ZM291.14 68.76C292.083 68.76 292.839 69.0027 293.408 69.488C293.977 69.9733 294.262 70.6313 294.262 71.462C294.262 72.2927 293.973 72.9413 293.394 73.408C292.825 73.8653 292.069 74.094 291.126 74.094L291.028 74.164H288.76V78H287.64V68.76H291.14ZM291.126 73.114C291.789 73.114 292.279 72.9787 292.596 72.708C292.923 72.428 293.086 72.0127 293.086 71.462C293.086 70.9113 292.923 70.5007 292.596 70.23C292.279 69.95 291.789 69.81 291.126 69.81H288.76V73.114H291.126ZM291.77 73.338L294.822 78H293.492L290.832 73.954L291.77 73.338ZM300.593 78.14C299.715 78.14 298.955 77.9487 298.311 77.566C297.676 77.174 297.181 76.6233 296.827 75.914C296.481 75.2047 296.309 74.36 296.309 73.38C296.309 72.4 296.491 71.5553 296.855 70.846C297.228 70.1367 297.746 69.5907 298.409 69.208C299.071 68.816 299.832 68.62 300.691 68.62C301.605 68.62 302.347 68.7927 302.917 69.138C303.495 69.4833 303.962 70.0153 304.317 70.734L303.295 71.294C303.089 70.762 302.763 70.3607 302.315 70.09C301.876 69.81 301.335 69.67 300.691 69.67C300.065 69.67 299.51 69.8193 299.025 70.118C298.549 70.4073 298.171 70.832 297.891 71.392C297.62 71.9427 297.485 72.6053 297.485 73.38C297.485 74.1547 297.601 74.822 297.835 75.382C298.077 75.9327 298.432 76.3573 298.899 76.656C299.375 76.9453 299.953 77.09 300.635 77.09C301.017 77.09 301.372 77.0433 301.699 76.95C302.035 76.8473 302.324 76.698 302.567 76.502C302.819 76.306 303.015 76.0587 303.155 75.76C303.295 75.4613 303.365 75.1113 303.365 74.71V74.388H300.425V73.338H304.387V78H303.505L303.449 76.278L303.687 76.32C303.444 76.8987 303.061 77.3467 302.539 77.664C302.016 77.9813 301.367 78.14 300.593 78.14ZM313.219 68.76L309.915 74.388V78H308.795V74.388L305.491 68.76H306.821L308.613 71.924L309.355 73.24L310.097 71.924L311.889 68.76H313.219ZM313.338 76.32C313.562 76.32 313.748 76.3807 313.898 76.502C314.056 76.614 314.178 76.7727 314.262 76.978C314.346 77.174 314.388 77.4073 314.388 77.678C314.388 77.986 314.332 78.2893 314.22 78.588C314.117 78.8867 313.954 79.162 313.73 79.414C313.506 79.666 313.216 79.876 312.862 80.044L312.274 79.498C312.526 79.414 312.745 79.2973 312.932 79.148C313.128 78.9987 313.286 78.8307 313.408 78.644C313.529 78.4573 313.608 78.266 313.646 78.07L313.59 78.042C313.552 78.07 313.506 78.0933 313.45 78.112C313.394 78.1307 313.31 78.14 313.198 78.14C313.086 78.14 312.969 78.1073 312.848 78.042C312.736 77.9767 312.638 77.8833 312.554 77.762C312.47 77.6313 312.428 77.4633 312.428 77.258C312.428 77.09 312.47 76.936 312.554 76.796C312.638 76.6467 312.745 76.53 312.876 76.446C313.016 76.362 313.17 76.32 313.338 76.32ZM5.236 85.62C6.11333 85.62 6.86933 85.816 7.504 86.208C8.148 86.5907 8.64267 87.1367 8.988 87.846C9.34267 88.5553 9.52 89.4 9.52 90.38C9.52 91.36 9.34267 92.2047 8.988 92.914C8.64267 93.6233 8.148 94.174 7.504 94.566C6.86933 94.9487 6.11333 95.14 5.236 95.14C4.35867 95.14 3.598 94.9487 2.954 94.566C2.31933 94.174 1.82467 93.6233 1.47 92.914C1.12467 92.2047 0.952 91.36 0.952 90.38C0.952 89.4 1.12467 88.5553 1.47 87.846C1.82467 87.1367 2.31933 86.5907 2.954 86.208C3.598 85.816 4.35867 85.62 5.236 85.62ZM5.236 86.67C4.60133 86.67 4.05067 86.8193 3.584 87.118C3.11733 87.4073 2.758 87.832 2.506 88.392C2.254 88.9427 2.128 89.6053 2.128 90.38C2.128 91.1547 2.254 91.822 2.506 92.382C2.758 92.9327 3.11733 93.3573 3.584 93.656C4.05067 93.9453 4.60133 94.09 5.236 94.09C5.88 94.09 6.43067 93.9453 6.888 93.656C7.35467 93.3573 7.714 92.9327 7.966 92.382C8.218 91.822 8.344 91.1547 8.344 90.38C8.344 89.6053 8.218 88.9427 7.966 88.392C7.714 87.832 7.35467 87.4073 6.888 87.118C6.43067 86.8193 5.88 86.67 5.236 86.67ZM15.4847 85.76C16.4273 85.76 17.1833 86.0027 17.7527 86.488C18.322 86.9733 18.6067 87.6313 18.6067 88.462C18.6067 89.2927 18.3173 89.9413 17.7387 90.408C17.1693 90.8653 16.4133 91.094 15.4707 91.094L15.3727 91.164H13.1047V95H11.9847V85.76H15.4847ZM15.4707 90.114C16.1333 90.114 16.6233 89.9787 16.9407 89.708C17.2673 89.428 17.4307 89.0127 17.4307 88.462C17.4307 87.9113 17.2673 87.5007 16.9407 87.23C16.6233 86.95 16.1333 86.81 15.4707 86.81H13.1047V90.114H15.4707ZM16.1147 90.338L19.1667 95H17.8367L15.1767 90.954L16.1147 90.338ZM42.1322 95H40.9422L39.9622 92.438H35.7762L34.7962 95H33.6202L37.2182 85.76H38.5482L42.1322 95ZM36.1822 91.388H39.5562L37.8622 86.838L36.1822 91.388ZM51.2624 85.76V95H49.8764L46.0124 88.812L45.0324 87.076H45.0184L45.0744 88.476V95H44.0104V85.76H45.3964L49.2464 91.92L50.2404 93.698H50.2544L50.1984 92.284V85.76H51.2624ZM57.2597 85.62C58.0717 85.62 58.7717 85.788 59.3597 86.124C59.9477 86.4507 60.4377 86.936 60.8297 87.58L59.8917 88.308C59.5464 87.7107 59.1544 87.2907 58.7157 87.048C58.2864 86.796 57.7637 86.67 57.1477 86.67C56.653 86.67 56.2424 86.74 55.9157 86.88C55.5984 87.02 55.365 87.2067 55.2157 87.44C55.0664 87.664 54.9917 87.9207 54.9917 88.21C54.9917 88.5367 55.0944 88.826 55.2997 89.078C55.505 89.3207 55.9157 89.512 56.5317 89.652L58.5337 90.1C59.4204 90.296 60.0364 90.5947 60.3817 90.996C60.7364 91.388 60.9137 91.878 60.9137 92.466C60.9137 92.9887 60.7644 93.4553 60.4657 93.866C60.1764 94.2673 59.7657 94.58 59.2337 94.804C58.7017 95.028 58.0764 95.14 57.3577 95.14C56.6857 95.14 56.093 95.0513 55.5797 94.874C55.0757 94.6873 54.6417 94.44 54.2777 94.132C53.9137 93.824 53.615 93.4787 53.3817 93.096L54.3617 92.298C54.539 92.6527 54.7677 92.9653 55.0477 93.236C55.3277 93.5067 55.6637 93.7167 56.0557 93.866C56.457 94.0153 56.9144 94.09 57.4277 94.09C57.9037 94.09 58.3144 94.034 58.6597 93.922C59.0144 93.8007 59.285 93.628 59.4717 93.404C59.6584 93.1707 59.7517 92.8907 59.7517 92.564C59.7517 92.2653 59.6537 91.9993 59.4577 91.766C59.2617 91.5233 58.893 91.3413 58.3517 91.22L56.1817 90.73C55.6124 90.5993 55.1504 90.422 54.7957 90.198C54.4504 89.9647 54.1984 89.694 54.0397 89.386C53.8904 89.0687 53.8157 88.728 53.8157 88.364C53.8157 87.8693 53.951 87.4167 54.2217 87.006C54.5017 86.586 54.8984 86.25 55.4117 85.998C55.9344 85.746 56.5504 85.62 57.2597 85.62ZM64.9004 95L62.1704 85.76H63.3324L65.6144 93.978L67.7844 85.76H69.0584L71.2284 94.006L73.5104 85.76H74.6164L71.9004 95H70.5144L68.8764 89.008L68.4004 86.922H68.3864L67.9104 89.008L66.2864 95H64.9004ZM76.6315 95V85.76H83.1135V86.81H77.7515V89.792H81.9235V90.842H77.7515V93.95H83.3235V95H76.6315ZM89.0593 85.76C90.0019 85.76 90.7579 86.0027 91.3273 86.488C91.8966 86.9733 92.1813 87.6313 92.1813 88.462C92.1813 89.2927 91.8919 89.9413 91.3133 90.408C90.7439 90.8653 89.9879 91.094 89.0453 91.094L88.9473 91.164H86.6793V95H85.5593V85.76H89.0593ZM89.0453 90.114C89.7079 90.114 90.1979 89.9787 90.5153 89.708C90.8419 89.428 91.0053 89.0127 91.0053 88.462C91.0053 87.9113 90.8419 87.5007 90.5153 87.23C90.1979 86.95 89.7079 86.81 89.0453 86.81H86.6793V90.114H89.0453ZM89.6893 90.338L92.7413 95H91.4113L88.7513 90.954L89.6893 90.338ZM97.8378 85.62C98.6498 85.62 99.3498 85.788 99.9378 86.124C100.526 86.4507 101.016 86.936 101.408 87.58L100.47 88.308C100.124 87.7107 99.7325 87.2907 99.2938 87.048C98.8645 86.796 98.3418 86.67 97.7258 86.67C97.2311 86.67 96.8205 86.74 96.4938 86.88C96.1765 87.02 95.9431 87.2067 95.7938 87.44C95.6445 87.664 95.5698 87.9207 95.5698 88.21C95.5698 88.5367 95.6725 88.826 95.8778 89.078C96.0831 89.3207 96.4938 89.512 97.1098 89.652L99.1118 90.1C99.9985 90.296 100.614 90.5947 100.96 90.996C101.314 91.388 101.492 91.878 101.492 92.466C101.492 92.9887 101.342 93.4553 101.044 93.866C100.754 94.2673 100.344 94.58 99.8118 94.804C99.2798 95.028 98.6545 95.14 97.9358 95.14C97.2638 95.14 96.6711 95.0513 96.1578 94.874C95.6538 94.6873 95.2198 94.44 94.8558 94.132C94.4918 93.824 94.1931 93.4787 93.9598 93.096L94.9398 92.298C95.1171 92.6527 95.3458 92.9653 95.6258 93.236C95.9058 93.5067 96.2418 93.7167 96.6338 93.866C97.0351 94.0153 97.4925 94.09 98.0058 94.09C98.4818 94.09 98.8925 94.034 99.2378 93.922C99.5925 93.8007 99.8631 93.628 100.05 93.404C100.236 93.1707 100.33 92.8907 100.33 92.564C100.33 92.2653 100.232 91.9993 100.036 91.766C99.8398 91.5233 99.4711 91.3413 98.9298 91.22L96.7598 90.73C96.1905 90.5993 95.7285 90.422 95.3738 90.198C95.0285 89.9647 94.7765 89.694 94.6178 89.386C94.4685 89.0687 94.3938 88.728 94.3938 88.364C94.3938 87.8693 94.5291 87.4167 94.7998 87.006C95.0798 86.586 95.4765 86.25 95.9898 85.998C96.5125 85.746 97.1285 85.62 97.8378 85.62ZM123.985 85.76V86.81H120.765V95H119.645V86.81H116.425V85.76H123.985ZM129.348 85.62C130.225 85.62 130.981 85.816 131.616 86.208C132.26 86.5907 132.755 87.1367 133.1 87.846C133.455 88.5553 133.632 89.4 133.632 90.38C133.632 91.36 133.455 92.2047 133.1 92.914C132.755 93.6233 132.26 94.174 131.616 94.566C130.981 94.9487 130.225 95.14 129.348 95.14C128.471 95.14 127.71 94.9487 127.066 94.566C126.431 94.174 125.937 93.6233 125.582 92.914C125.237 92.2047 125.064 91.36 125.064 90.38C125.064 89.4 125.237 88.5553 125.582 87.846C125.937 87.1367 126.431 86.5907 127.066 86.208C127.71 85.816 128.471 85.62 129.348 85.62ZM129.348 86.67C128.713 86.67 128.163 86.8193 127.696 87.118C127.229 87.4073 126.87 87.832 126.618 88.392C126.366 88.9427 126.24 89.6053 126.24 90.38C126.24 91.1547 126.366 91.822 126.618 92.382C126.87 92.9327 127.229 93.3573 127.696 93.656C128.163 93.9453 128.713 94.09 129.348 94.09C129.992 94.09 130.543 93.9453 131 93.656C131.467 93.3573 131.826 92.9327 132.078 92.382C132.33 91.822 132.456 91.1547 132.456 90.38C132.456 89.6053 132.33 88.9427 132.078 88.392C131.826 87.832 131.467 87.4073 131 87.118C130.543 86.8193 129.992 86.67 129.348 86.67ZM153.112 85.76C154.559 85.76 155.693 86.1613 156.514 86.964C157.345 87.7573 157.76 88.896 157.76 90.38C157.76 91.864 157.345 93.0073 156.514 93.81C155.693 94.6033 154.559 95 153.112 95H150.13V85.76H153.112ZM153.224 93.95C154.279 93.95 155.1 93.6373 155.688 93.012C156.286 92.3773 156.584 91.5 156.584 90.38C156.584 89.26 156.286 88.3873 155.688 87.762C155.1 87.1273 154.279 86.81 153.224 86.81H151.25V93.95H153.224ZM160.22 95V85.76H166.702V86.81H161.34V89.792H165.512V90.842H161.34V93.95H166.912V95H160.22ZM169.148 95V85.76H175.63V86.81H170.268V89.792H174.44V90.842H170.268V93.95H175.84V95H169.148ZM181.338 85.76C181.963 85.76 182.504 85.8767 182.962 86.11C183.428 86.334 183.792 86.656 184.054 87.076C184.315 87.496 184.446 87.9953 184.446 88.574C184.446 89.1527 184.315 89.652 184.054 90.072C183.792 90.492 183.428 90.8187 182.962 91.052C182.504 91.276 181.963 91.388 181.338 91.388H179.196V95H178.076V85.76H181.338ZM181.17 90.338C181.898 90.338 182.43 90.1887 182.766 89.89C183.102 89.582 183.27 89.1433 183.27 88.574C183.27 87.9953 183.102 87.5567 182.766 87.258C182.43 86.9593 181.898 86.81 181.17 86.81H179.196V90.338H181.17ZM186.621 95V85.76H193.103V86.81H187.741V89.792H191.913V90.842H187.741V93.95H193.313V95H186.621ZM199.048 85.76C199.991 85.76 200.747 86.0027 201.316 86.488C201.886 86.9733 202.17 87.6313 202.17 88.462C202.17 89.2927 201.881 89.9413 201.302 90.408C200.733 90.8653 199.977 91.094 199.034 91.094L198.936 91.164H196.668V95H195.548V85.76H199.048ZM199.034 90.114C199.697 90.114 200.187 89.9787 200.504 89.708C200.831 89.428 200.994 89.0127 200.994 88.462C200.994 87.9113 200.831 87.5007 200.504 87.23C200.187 86.95 199.697 86.81 199.034 86.81H196.668V90.114H199.034ZM199.678 90.338L202.73 95H201.4L198.74 90.954L199.678 90.338ZM224.856 97.73C224.38 97.73 223.932 97.6413 223.512 97.464C223.092 97.2867 222.747 96.9833 222.476 96.554C222.215 96.1247 222.084 95.5367 222.084 94.79C222.084 94.706 222.084 94.6173 222.084 94.524C222.094 94.4213 222.103 94.3233 222.112 94.23L223.106 94.258C223.097 94.3513 223.088 94.44 223.078 94.524C223.078 94.5987 223.078 94.6733 223.078 94.748C223.078 95.28 223.162 95.6767 223.33 95.938C223.498 96.1993 223.718 96.372 223.988 96.456C224.268 96.5493 224.567 96.596 224.884 96.596C225.23 96.596 225.547 96.5493 225.836 96.456C226.126 96.3627 226.359 96.2367 226.536 96.078L226.9 97.114C226.676 97.31 226.364 97.4593 225.962 97.562C225.57 97.674 225.202 97.73 224.856 97.73ZM222.616 85.62C223.494 85.62 224.25 85.816 224.884 86.208C225.528 86.5907 226.023 87.1367 226.368 87.846C226.723 88.5553 226.9 89.4 226.9 90.38C226.9 91.36 226.723 92.2047 226.368 92.914C226.023 93.6233 225.528 94.174 224.884 94.566C224.25 94.9487 223.494 95.14 222.616 95.14C221.739 95.14 220.978 94.9487 220.334 94.566C219.7 94.174 219.205 93.6233 218.85 92.914C218.505 92.2047 218.332 91.36 218.332 90.38C218.332 89.4 218.505 88.5553 218.85 87.846C219.205 87.1367 219.7 86.5907 220.334 86.208C220.978 85.816 221.739 85.62 222.616 85.62ZM222.616 86.67C221.982 86.67 221.431 86.8193 220.964 87.118C220.498 87.4073 220.138 87.832 219.886 88.392C219.634 88.9427 219.508 89.6053 219.508 90.38C219.508 91.1547 219.634 91.822 219.886 92.382C220.138 92.9327 220.498 93.3573 220.964 93.656C221.431 93.9453 221.982 94.09 222.616 94.09C223.26 94.09 223.811 93.9453 224.268 93.656C224.735 93.3573 225.094 92.9327 225.346 92.382C225.598 91.822 225.724 91.1547 225.724 90.38C225.724 89.6053 225.598 88.9427 225.346 88.392C225.094 87.832 224.735 87.4073 224.268 87.118C223.811 86.8193 223.26 86.67 222.616 86.67ZM236.435 85.76V91.556C236.435 92.7413 236.122 93.6373 235.497 94.244C234.872 94.8413 233.976 95.14 232.809 95.14C231.652 95.14 230.756 94.8413 230.121 94.244C229.496 93.6373 229.183 92.7413 229.183 91.556V85.76H230.303V91.276C230.303 92.2373 230.504 92.9467 230.905 93.404C231.316 93.8613 231.95 94.09 232.809 94.09C233.668 94.09 234.298 93.8613 234.699 93.404C235.11 92.9467 235.315 92.2373 235.315 91.276V85.76H236.435ZM239.277 95V85.76H245.759V86.81H240.397V89.792H244.569V90.842H240.397V93.95H245.969V95H239.277ZM251.173 85.62C251.985 85.62 252.685 85.788 253.273 86.124C253.861 86.4507 254.351 86.936 254.743 87.58L253.805 88.308C253.46 87.7107 253.068 87.2907 252.629 87.048C252.2 86.796 251.677 86.67 251.061 86.67C250.566 86.67 250.156 86.74 249.829 86.88C249.512 87.02 249.278 87.2067 249.129 87.44C248.98 87.664 248.905 87.9207 248.905 88.21C248.905 88.5367 249.008 88.826 249.213 89.078C249.418 89.3207 249.829 89.512 250.445 89.652L252.447 90.1C253.334 90.296 253.95 90.5947 254.295 90.996C254.65 91.388 254.827 91.878 254.827 92.466C254.827 92.9887 254.678 93.4553 254.379 93.866C254.09 94.2673 253.679 94.58 253.147 94.804C252.615 95.028 251.99 95.14 251.271 95.14C250.599 95.14 250.006 95.0513 249.493 94.874C248.989 94.6873 248.555 94.44 248.191 94.132C247.827 93.824 247.528 93.4787 247.295 93.096L248.275 92.298C248.452 92.6527 248.681 92.9653 248.961 93.236C249.241 93.5067 249.577 93.7167 249.969 93.866C250.37 94.0153 250.828 94.09 251.341 94.09C251.817 94.09 252.228 94.034 252.573 93.922C252.928 93.8007 253.198 93.628 253.385 93.404C253.572 93.1707 253.665 92.8907 253.665 92.564C253.665 92.2653 253.567 91.9993 253.371 91.766C253.175 91.5233 252.806 91.3413 252.265 91.22L250.095 90.73C249.526 90.5993 249.064 90.422 248.709 90.198C248.364 89.9647 248.112 89.694 247.953 89.386C247.804 89.0687 247.729 88.728 247.729 88.364C247.729 87.8693 247.864 87.4167 248.135 87.006C248.415 86.586 248.812 86.25 249.325 85.998C249.848 85.746 250.464 85.62 251.173 85.62ZM263.246 85.76V86.81H260.026V95H258.906V86.81H255.686V85.76H263.246ZM266.319 85.76V95H265.199V85.76H266.319ZM273.066 85.62C273.943 85.62 274.699 85.816 275.334 86.208C275.978 86.5907 276.472 87.1367 276.818 87.846C277.172 88.5553 277.35 89.4 277.35 90.38C277.35 91.36 277.172 92.2047 276.818 92.914C276.472 93.6233 275.978 94.174 275.334 94.566C274.699 94.9487 273.943 95.14 273.066 95.14C272.188 95.14 271.428 94.9487 270.784 94.566C270.149 94.174 269.654 93.6233 269.3 92.914C268.954 92.2047 268.782 91.36 268.782 90.38C268.782 89.4 268.954 88.5553 269.3 87.846C269.654 87.1367 270.149 86.5907 270.784 86.208C271.428 85.816 272.188 85.62 273.066 85.62ZM273.066 86.67C272.431 86.67 271.88 86.8193 271.414 87.118C270.947 87.4073 270.588 87.832 270.336 88.392C270.084 88.9427 269.958 89.6053 269.958 90.38C269.958 91.1547 270.084 91.822 270.336 92.382C270.588 92.9327 270.947 93.3573 271.414 93.656C271.88 93.9453 272.431 94.09 273.066 94.09C273.71 94.09 274.26 93.9453 274.718 93.656C275.184 93.3573 275.544 92.9327 275.796 92.382C276.048 91.822 276.174 91.1547 276.174 90.38C276.174 89.6053 276.048 88.9427 275.796 88.392C275.544 87.832 275.184 87.4073 274.718 87.118C274.26 86.8193 273.71 86.67 273.066 86.67ZM287.066 85.76V95H285.68L281.816 88.812L280.836 87.076H280.822L280.878 88.476V95H279.814V85.76H281.2L285.05 91.92L286.044 93.698H286.058L286.002 92.284V85.76H287.066ZM293.064 85.62C293.876 85.62 294.576 85.788 295.164 86.124C295.752 86.4507 296.242 86.936 296.634 87.58L295.696 88.308C295.35 87.7107 294.958 87.2907 294.52 87.048C294.09 86.796 293.568 86.67 292.952 86.67C292.457 86.67 292.046 86.74 291.72 86.88C291.402 87.02 291.169 87.2067 291.02 87.44C290.87 87.664 290.796 87.9207 290.796 88.21C290.796 88.5367 290.898 88.826 291.104 89.078C291.309 89.3207 291.72 89.512 292.336 89.652L294.338 90.1C295.224 90.296 295.84 90.5947 296.186 90.996C296.54 91.388 296.718 91.878 296.718 92.466C296.718 92.9887 296.568 93.4553 296.27 93.866C295.98 94.2673 295.57 94.58 295.038 94.804C294.506 95.028 293.88 95.14 293.162 95.14C292.49 95.14 291.897 95.0513 291.384 94.874C290.88 94.6873 290.446 94.44 290.082 94.132C289.718 93.824 289.419 93.4787 289.186 93.096L290.166 92.298C290.343 92.6527 290.572 92.9653 290.852 93.236C291.132 93.5067 291.468 93.7167 291.86 93.866C292.261 94.0153 292.718 94.09 293.232 94.09C293.708 94.09 294.118 94.034 294.464 93.922C294.818 93.8007 295.089 93.628 295.276 93.404C295.462 93.1707 295.556 92.8907 295.556 92.564C295.556 92.2653 295.458 91.9993 295.262 91.766C295.066 91.5233 294.697 91.3413 294.156 91.22L291.986 90.73C291.416 90.5993 290.954 90.422 290.6 90.198C290.254 89.9647 290.002 89.694 289.844 89.386C289.694 89.0687 289.62 88.728 289.62 88.364C289.62 87.8693 289.755 87.4167 290.026 87.006C290.306 86.586 290.702 86.25 291.216 85.998C291.738 85.746 292.354 85.62 293.064 85.62ZM299.414 93.32C299.638 93.32 299.825 93.3807 299.974 93.502C300.133 93.614 300.254 93.7727 300.338 93.978C300.422 94.174 300.464 94.4073 300.464 94.678C300.464 94.986 300.408 95.2893 300.296 95.588C300.194 95.8867 300.03 96.162 299.806 96.414C299.582 96.666 299.293 96.876 298.938 97.044L298.35 96.498C298.602 96.414 298.822 96.2973 299.008 96.148C299.204 95.9987 299.363 95.8307 299.484 95.644C299.606 95.4573 299.685 95.266 299.722 95.07L299.666 95.042C299.629 95.07 299.582 95.0933 299.526 95.112C299.47 95.1307 299.386 95.14 299.274 95.14C299.162 95.14 299.046 95.1073 298.924 95.042C298.812 94.9767 298.714 94.8833 298.63 94.762C298.546 94.6313 298.504 94.4633 298.504 94.258C298.504 94.09 298.546 93.936 298.63 93.796C298.714 93.6467 298.822 93.53 298.952 93.446C299.092 93.362 299.246 93.32 299.414 93.32ZM320.541 85.62C321.418 85.62 322.174 85.816 322.809 86.208C323.453 86.5907 323.947 87.1367 324.293 87.846C324.647 88.5553 324.825 89.4 324.825 90.38C324.825 91.36 324.647 92.2047 324.293 92.914C323.947 93.6233 323.453 94.174 322.809 94.566C322.174 94.9487 321.418 95.14 320.541 95.14C319.663 95.14 318.903 94.9487 318.259 94.566C317.624 94.174 317.129 93.6233 316.775 92.914C316.429 92.2047 316.257 91.36 316.257 90.38C316.257 89.4 316.429 88.5553 316.775 87.846C317.129 87.1367 317.624 86.5907 318.259 86.208C318.903 85.816 319.663 85.62 320.541 85.62ZM320.541 86.67C319.906 86.67 319.355 86.8193 318.889 87.118C318.422 87.4073 318.063 87.832 317.811 88.392C317.559 88.9427 317.433 89.6053 317.433 90.38C317.433 91.1547 317.559 91.822 317.811 92.382C318.063 92.9327 318.422 93.3573 318.889 93.656C319.355 93.9453 319.906 94.09 320.541 94.09C321.185 94.09 321.735 93.9453 322.193 93.656C322.659 93.3573 323.019 92.9327 323.271 92.382C323.523 91.822 323.649 91.1547 323.649 90.38C323.649 89.6053 323.523 88.9427 323.271 88.392C323.019 87.832 322.659 87.4073 322.193 87.118C321.735 86.8193 321.185 86.67 320.541 86.67ZM334.359 85.76V91.556C334.359 92.7413 334.047 93.6373 333.421 94.244C332.796 94.8413 331.9 95.14 330.733 95.14C329.576 95.14 328.68 94.8413 328.045 94.244C327.42 93.6373 327.107 92.7413 327.107 91.556V85.76H328.227V91.276C328.227 92.2373 328.428 92.9467 328.829 93.404C329.24 93.8613 329.875 94.09 330.733 94.09C331.592 94.09 332.222 93.8613 332.623 93.404C333.034 92.9467 333.239 92.2373 333.239 91.276V85.76H334.359ZM340.701 85.76C341.644 85.76 342.4 86.0027 342.969 86.488C343.539 86.9733 343.823 87.6313 343.823 88.462C343.823 89.2927 343.534 89.9413 342.955 90.408C342.386 90.8653 341.63 91.094 340.687 91.094L340.589 91.164H338.321V95H337.201V85.76H340.701ZM340.687 90.114C341.35 90.114 341.84 89.9787 342.157 89.708C342.484 89.428 342.647 89.0127 342.647 88.462C342.647 87.9113 342.484 87.5007 342.157 87.23C341.84 86.95 341.35 86.81 340.687 86.81H338.321V90.114H340.687ZM341.331 90.338L344.383 95H343.053L340.393 90.954L341.331 90.338ZM8.96 109.634C8.764 110.157 8.484 110.609 8.12 110.992C7.756 111.365 7.32667 111.65 6.832 111.846C6.34667 112.042 5.81467 112.14 5.236 112.14C4.35867 112.14 3.598 111.949 2.954 111.566C2.31933 111.174 1.82467 110.623 1.47 109.914C1.12467 109.205 0.952 108.36 0.952 107.38C0.952 106.4 1.12467 105.555 1.47 104.846C1.82467 104.137 2.31933 103.591 2.954 103.208C3.598 102.816 4.34933 102.62 5.208 102.62C5.80533 102.62 6.33733 102.704 6.804 102.872C7.27067 103.031 7.66733 103.273 7.994 103.6C8.33 103.917 8.596 104.309 8.792 104.776L7.686 105.294C7.48067 104.762 7.182 104.361 6.79 104.09C6.40733 103.81 5.908 103.67 5.292 103.67C4.66667 103.67 4.116 103.819 3.64 104.118C3.164 104.407 2.79067 104.827 2.52 105.378C2.25867 105.929 2.128 106.596 2.128 107.38C2.128 108.155 2.254 108.822 2.506 109.382C2.758 109.933 3.11733 110.357 3.584 110.656C4.05067 110.945 4.60133 111.09 5.236 111.09C5.852 111.09 6.38867 110.936 6.846 110.628C7.30333 110.311 7.63467 109.839 7.84 109.214L8.96 109.634ZM14.6097 102.76C15.5523 102.76 16.3083 103.003 16.8777 103.488C17.447 103.973 17.7317 104.631 17.7317 105.462C17.7317 106.293 17.4423 106.941 16.8637 107.408C16.2943 107.865 15.5383 108.094 14.5957 108.094L14.4977 108.164H12.2297V112H11.1097V102.76H14.6097ZM14.5957 107.114C15.2583 107.114 15.7483 106.979 16.0657 106.708C16.3923 106.428 16.5557 106.013 16.5557 105.462C16.5557 104.911 16.3923 104.501 16.0657 104.23C15.7483 103.95 15.2583 103.81 14.5957 103.81H12.2297V107.114H14.5957ZM15.2397 107.338L18.2917 112H16.9617L14.3017 107.954L15.2397 107.338ZM20.4202 112V102.76H26.9022V103.81H21.5402V106.792H25.7122V107.842H21.5402V110.95H27.1122V112H20.4202ZM36.7119 112H35.5219L34.5419 109.438H30.3559L29.3759 112H28.1999L31.7979 102.76H33.1279L36.7119 112ZM30.7619 108.388H34.1359L32.4419 103.838L30.7619 108.388ZM43.8283 102.76V103.81H40.6083V112H39.4883V103.81H36.2683V102.76H43.8283ZM46.9015 102.76V112H45.7815V102.76H46.9015ZM57.0921 102.76L53.5921 112H52.3181L48.8041 102.76H50.0081L52.3601 109.144L52.9481 110.978L53.5361 109.158L55.8881 102.76H57.0921ZM59.0022 112V102.76H65.4842V103.81H60.1222V106.792H64.2942V107.842H60.1222V110.95H65.6942V112H59.0022ZM78.5571 110.95H83.8491V112H77.4371V102.76H78.5571V110.95ZM93.1683 112H91.9783L90.9983 109.438H86.8123L85.8323 112H84.6563L88.2543 102.76H89.5843L93.1683 112ZM87.2183 108.388H90.5923L88.8983 103.838L87.2183 108.388ZM95.0465 112V102.76H98.3365C99.4285 102.76 100.227 102.989 100.731 103.446C101.235 103.903 101.487 104.524 101.487 105.308C101.487 105.775 101.351 106.199 101.081 106.582C100.81 106.955 100.427 107.193 99.9325 107.296V107.31C100.483 107.413 100.917 107.665 101.235 108.066C101.561 108.458 101.725 108.906 101.725 109.41C101.725 110.194 101.431 110.824 100.843 111.3C100.255 111.767 99.4145 112 98.3225 112H95.0465ZM96.1665 110.95H98.5885C99.2512 110.95 99.7412 110.815 100.059 110.544C100.385 110.273 100.549 109.895 100.549 109.41C100.549 108.915 100.385 108.537 100.059 108.276C99.7412 108.005 99.2512 107.87 98.5885 107.87H96.1665V110.95ZM96.1665 106.82H98.3505C99.6572 106.82 100.311 106.316 100.311 105.308C100.311 104.309 99.6572 103.81 98.3505 103.81H96.1665V106.82ZM114.82 102.76V112H113.7V102.76H114.82ZM120.811 102.62C121.623 102.62 122.323 102.788 122.911 103.124C123.499 103.451 123.989 103.936 124.381 104.58L123.443 105.308C123.097 104.711 122.705 104.291 122.267 104.048C121.837 103.796 121.315 103.67 120.699 103.67C120.204 103.67 119.793 103.74 119.467 103.88C119.149 104.02 118.916 104.207 118.767 104.44C118.617 104.664 118.543 104.921 118.543 105.21C118.543 105.537 118.645 105.826 118.851 106.078C119.056 106.321 119.467 106.512 120.083 106.652L122.085 107.1C122.971 107.296 123.587 107.595 123.933 107.996C124.287 108.388 124.465 108.878 124.465 109.466C124.465 109.989 124.315 110.455 124.017 110.866C123.727 111.267 123.317 111.58 122.785 111.804C122.253 112.028 121.627 112.14 120.909 112.14C120.237 112.14 119.644 112.051 119.131 111.874C118.627 111.687 118.193 111.44 117.829 111.132C117.465 110.824 117.166 110.479 116.933 110.096L117.913 109.298C118.09 109.653 118.319 109.965 118.599 110.236C118.879 110.507 119.215 110.717 119.607 110.866C120.008 111.015 120.465 111.09 120.979 111.09C121.455 111.09 121.865 111.034 122.211 110.922C122.565 110.801 122.836 110.628 123.023 110.404C123.209 110.171 123.303 109.891 123.303 109.564C123.303 109.265 123.205 108.999 123.009 108.766C122.813 108.523 122.444 108.341 121.903 108.22L119.733 107.73C119.163 107.599 118.701 107.422 118.347 107.198C118.001 106.965 117.749 106.694 117.591 106.386C117.441 106.069 117.367 105.728 117.367 105.364C117.367 104.869 117.502 104.417 117.773 104.006C118.053 103.586 118.449 103.25 118.963 102.998C119.485 102.746 120.101 102.62 120.811 102.62ZM137.699 112L134.969 102.76H136.131L138.413 110.978L140.583 102.76H141.857L144.027 111.006L146.309 102.76H147.415L144.699 112H143.313L141.675 106.008L141.199 103.922H141.185L140.709 106.008L139.085 112H137.699ZM156.682 102.76V112H155.562V102.76H156.682ZM150.55 102.76V112H149.43V102.76H150.55ZM156.08 106.792V107.842H150.018V106.792H156.08ZM159.711 112V102.76H166.193V103.81H160.831V106.792H165.003V107.842H160.831V110.95H166.403V112H159.711ZM172.139 102.76C173.082 102.76 173.838 103.003 174.407 103.488C174.976 103.973 175.261 104.631 175.261 105.462C175.261 106.293 174.972 106.941 174.393 107.408C173.824 107.865 173.068 108.094 172.125 108.094L172.027 108.164H169.759V112H168.639V102.76H172.139ZM172.125 107.114C172.788 107.114 173.278 106.979 173.595 106.708C173.922 106.428 174.085 106.013 174.085 105.462C174.085 104.911 173.922 104.501 173.595 104.23C173.278 103.95 172.788 103.81 172.125 103.81H169.759V107.114H172.125ZM172.769 107.338L175.821 112H174.491L171.831 107.954L172.769 107.338ZM177.95 112V102.76H184.432V103.81H179.07V106.792H183.242V107.842H179.07V110.95H184.642V112H177.95ZM202.498 102.76V103.81H199.278V112H198.158V103.81H194.938V102.76H202.498ZM211.703 102.76V112H210.583V102.76H211.703ZM205.571 102.76V112H204.451V102.76H205.571ZM211.101 106.792V107.842H205.039V106.792H211.101ZM222.096 112H220.906L219.926 109.438H215.74L214.76 112H213.584L217.182 102.76H218.512L222.096 112ZM216.146 108.388H219.52L217.826 103.838L216.146 108.388ZM229.212 102.76V103.81H225.992V112H224.872V103.81H221.652V102.76H229.212ZM243.258 102.62C244.07 102.62 244.77 102.788 245.358 103.124C245.946 103.451 246.436 103.936 246.828 104.58L245.89 105.308C245.545 104.711 245.153 104.291 244.714 104.048C244.285 103.796 243.762 103.67 243.146 103.67C242.651 103.67 242.241 103.74 241.914 103.88C241.597 104.02 241.363 104.207 241.214 104.44C241.065 104.664 240.99 104.921 240.99 105.21C240.99 105.537 241.093 105.826 241.298 106.078C241.503 106.321 241.914 106.512 242.53 106.652L244.532 107.1C245.419 107.296 246.035 107.595 246.38 107.996C246.735 108.388 246.912 108.878 246.912 109.466C246.912 109.989 246.763 110.455 246.464 110.866C246.175 111.267 245.764 111.58 245.232 111.804C244.7 112.028 244.075 112.14 243.356 112.14C242.684 112.14 242.091 112.051 241.578 111.874C241.074 111.687 240.64 111.44 240.276 111.132C239.912 110.824 239.613 110.479 239.38 110.096L240.36 109.298C240.537 109.653 240.766 109.965 241.046 110.236C241.326 110.507 241.662 110.717 242.054 110.866C242.455 111.015 242.913 111.09 243.426 111.09C243.902 111.09 244.313 111.034 244.658 110.922C245.013 110.801 245.283 110.628 245.47 110.404C245.657 110.171 245.75 109.891 245.75 109.564C245.75 109.265 245.652 108.999 245.456 108.766C245.26 108.523 244.891 108.341 244.35 108.22L242.18 107.73C241.611 107.599 241.149 107.422 240.794 107.198C240.449 106.965 240.197 106.694 240.038 106.386C239.889 106.069 239.814 105.728 239.814 105.364C239.814 104.869 239.949 104.417 240.22 104.006C240.5 103.586 240.897 103.25 241.41 102.998C241.933 102.746 242.549 102.62 243.258 102.62ZM252.983 102.62C253.86 102.62 254.616 102.816 255.251 103.208C255.895 103.591 256.389 104.137 256.735 104.846C257.089 105.555 257.267 106.4 257.267 107.38C257.267 108.36 257.089 109.205 256.735 109.914C256.389 110.623 255.895 111.174 255.251 111.566C254.616 111.949 253.86 112.14 252.983 112.14C252.105 112.14 251.345 111.949 250.701 111.566C250.066 111.174 249.571 110.623 249.217 109.914C248.871 109.205 248.699 108.36 248.699 107.38C248.699 106.4 248.871 105.555 249.217 104.846C249.571 104.137 250.066 103.591 250.701 103.208C251.345 102.816 252.105 102.62 252.983 102.62ZM252.983 103.67C252.348 103.67 251.797 103.819 251.331 104.118C250.864 104.407 250.505 104.832 250.253 105.392C250.001 105.943 249.875 106.605 249.875 107.38C249.875 108.155 250.001 108.822 250.253 109.382C250.505 109.933 250.864 110.357 251.331 110.656C251.797 110.945 252.348 111.09 252.983 111.09C253.627 111.09 254.177 110.945 254.635 110.656C255.101 110.357 255.461 109.933 255.713 109.382C255.965 108.822 256.091 108.155 256.091 107.38C256.091 106.605 255.965 105.943 255.713 105.392C255.461 104.832 255.101 104.407 254.635 104.118C254.177 103.819 253.627 103.67 252.983 103.67ZM268.663 102.76V112H267.599V106.19L267.725 103.754H267.711L264.673 112H263.721L260.683 103.754H260.669L260.795 106.19V112H259.731V102.76H261.453L263.483 108.374L264.183 110.684H264.211L264.925 108.388L266.941 102.76H268.663ZM271.681 112V102.76H278.163V103.81H272.801V106.792H276.973V107.842H272.801V110.95H278.373V112H271.681ZM287.104 102.76V103.81H283.884V112H282.764V103.81H279.544V102.76H287.104ZM296.31 102.76V112H295.19V102.76H296.31ZM290.178 102.76V112H289.058V102.76H290.178ZM295.708 106.792V107.842H289.646V106.792H295.708ZM300.459 102.76V112H299.339V102.76H300.459ZM310.733 102.76V112H309.347L305.483 105.812L304.503 104.076H304.489L304.545 105.476V112H303.481V102.76H304.867L308.717 108.92L309.711 110.698H309.725L309.669 109.284V102.76H310.733ZM317.487 112.14C316.609 112.14 315.849 111.949 315.205 111.566C314.57 111.174 314.075 110.623 313.721 109.914C313.375 109.205 313.203 108.36 313.203 107.38C313.203 106.4 313.385 105.555 313.749 104.846C314.122 104.137 314.64 103.591 315.303 103.208C315.965 102.816 316.726 102.62 317.585 102.62C318.499 102.62 319.241 102.793 319.811 103.138C320.389 103.483 320.856 104.015 321.211 104.734L320.189 105.294C319.983 104.762 319.657 104.361 319.209 104.09C318.77 103.81 318.229 103.67 317.585 103.67C316.959 103.67 316.404 103.819 315.919 104.118C315.443 104.407 315.065 104.832 314.785 105.392C314.514 105.943 314.379 106.605 314.379 107.38C314.379 108.155 314.495 108.822 314.729 109.382C314.971 109.933 315.326 110.357 315.793 110.656C316.269 110.945 316.847 111.09 317.529 111.09C317.911 111.09 318.266 111.043 318.593 110.95C318.929 110.847 319.218 110.698 319.461 110.502C319.713 110.306 319.909 110.059 320.049 109.76C320.189 109.461 320.259 109.111 320.259 108.71V108.388H317.319V107.338H321.281V112H320.399L320.343 110.278L320.581 110.32C320.338 110.899 319.955 111.347 319.433 111.664C318.91 111.981 318.261 112.14 317.487 112.14ZM334.521 102.76V112H333.401V102.76H334.521ZM340.511 102.62C341.323 102.62 342.023 102.788 342.611 103.124C343.199 103.451 343.689 103.936 344.081 104.58L343.143 105.308C342.798 104.711 342.406 104.291 341.967 104.048C341.538 103.796 341.015 103.67 340.399 103.67C339.905 103.67 339.494 103.74 339.167 103.88C338.85 104.02 338.617 104.207 338.467 104.44C338.318 104.664 338.243 104.921 338.243 105.21C338.243 105.537 338.346 105.826 338.551 106.078C338.757 106.321 339.167 106.512 339.783 106.652L341.785 107.1C342.672 107.296 343.288 107.595 343.633 107.996C343.988 108.388 344.165 108.878 344.165 109.466C344.165 109.989 344.016 110.455 343.717 110.866C343.428 111.267 343.017 111.58 342.485 111.804C341.953 112.028 341.328 112.14 340.609 112.14C339.937 112.14 339.345 112.051 338.831 111.874C338.327 111.687 337.893 111.44 337.529 111.132C337.165 110.824 336.867 110.479 336.633 110.096L337.613 109.298C337.791 109.653 338.019 109.965 338.299 110.236C338.579 110.507 338.915 110.717 339.307 110.866C339.709 111.015 340.166 111.09 340.679 111.09C341.155 111.09 341.566 111.034 341.911 110.922C342.266 110.801 342.537 110.628 342.723 110.404C342.91 110.171 343.003 109.891 343.003 109.564C343.003 109.265 342.905 108.999 342.709 108.766C342.513 108.523 342.145 108.341 341.603 108.22L339.433 107.73C338.864 107.599 338.402 107.422 338.047 107.198C337.702 106.965 337.45 106.694 337.291 106.386C337.142 106.069 337.067 105.728 337.067 105.364C337.067 104.869 337.203 104.417 337.473 104.006C337.753 103.586 338.15 103.25 338.663 102.998C339.186 102.746 339.802 102.62 340.511 102.62ZM3.234 129L0.504 119.76H1.666L3.948 127.978L6.118 119.76H7.392L9.562 128.006L11.844 119.76H12.95L10.234 129H8.848L7.21 123.008L6.734 120.922H6.72L6.244 123.008L4.62 129H3.234ZM21.7686 129H20.5786L19.5986 126.438H15.4126L14.4326 129H13.2566L16.8546 119.76H18.1846L21.7686 129ZM15.8186 125.388H19.1926L17.4986 120.838L15.8186 125.388ZM24.7668 119.76V129H23.6468V119.76H24.7668ZM34.2853 119.76V120.81H31.0653V129H29.9453V120.81H26.7253V119.76H34.2853ZM37.3586 119.76V129H36.2386V119.76H37.3586ZM47.6331 119.76V129H46.2471L42.3831 122.812L41.4031 121.076H41.3891L41.4451 122.476V129H40.3811V119.76H41.7671L45.6171 125.92L46.6111 127.698H46.6251L46.5691 126.284V119.76H47.6331ZM54.3864 129.14C53.5091 129.14 52.7484 128.949 52.1044 128.566C51.4697 128.174 50.9751 127.623 50.6204 126.914C50.2751 126.205 50.1024 125.36 50.1024 124.38C50.1024 123.4 50.2844 122.555 50.6484 121.846C51.0217 121.137 51.5397 120.591 52.2024 120.208C52.8651 119.816 53.6257 119.62 54.4844 119.62C55.3991 119.62 56.1411 119.793 56.7104 120.138C57.2891 120.483 57.7557 121.015 58.1104 121.734L57.0884 122.294C56.8831 121.762 56.5564 121.361 56.1084 121.09C55.6697 120.81 55.1284 120.67 54.4844 120.67C53.8591 120.67 53.3037 120.819 52.8184 121.118C52.3424 121.407 51.9644 121.832 51.6844 122.392C51.4137 122.943 51.2784 123.605 51.2784 124.38C51.2784 125.155 51.3951 125.822 51.6284 126.382C51.8711 126.933 52.2257 127.357 52.6924 127.656C53.1684 127.945 53.7471 128.09 54.4284 128.09C54.8111 128.09 55.1657 128.043 55.4924 127.95C55.8284 127.847 56.1177 127.698 56.3604 127.502C56.6124 127.306 56.8084 127.059 56.9484 126.76C57.0884 126.461 57.1584 126.111 57.1584 125.71V125.388H54.2184V124.338H58.1804V129H57.2984L57.2424 127.278L57.4804 127.32C57.2377 127.899 56.8551 128.347 56.3324 128.664C55.8097 128.981 55.1611 129.14 54.3864 129.14ZM130.951 119.76V120.81H127.731V129H126.611V120.81H123.391V119.76H130.951ZM136.314 119.62C137.191 119.62 137.947 119.816 138.582 120.208C139.226 120.591 139.721 121.137 140.066 121.846C140.421 122.555 140.598 123.4 140.598 124.38C140.598 125.36 140.421 126.205 140.066 126.914C139.721 127.623 139.226 128.174 138.582 128.566C137.947 128.949 137.191 129.14 136.314 129.14C135.437 129.14 134.676 128.949 134.032 128.566C133.397 128.174 132.903 127.623 132.548 126.914C132.203 126.205 132.03 125.36 132.03 124.38C132.03 123.4 132.203 122.555 132.548 121.846C132.903 121.137 133.397 120.591 134.032 120.208C134.676 119.816 135.437 119.62 136.314 119.62ZM136.314 120.67C135.679 120.67 135.129 120.819 134.662 121.118C134.195 121.407 133.836 121.832 133.584 122.392C133.332 122.943 133.206 123.605 133.206 124.38C133.206 125.155 133.332 125.822 133.584 126.382C133.836 126.933 134.195 127.357 134.662 127.656C135.129 127.945 135.679 128.09 136.314 128.09C136.958 128.09 137.509 127.945 137.966 127.656C138.433 127.357 138.792 126.933 139.044 126.382C139.296 125.822 139.422 125.155 139.422 124.38C139.422 123.605 139.296 122.943 139.044 122.392C138.792 121.832 138.433 121.407 137.966 121.118C137.509 120.819 136.958 120.67 136.314 120.67ZM207.108 129V119.76H210.398C211.49 119.76 212.288 119.989 212.792 120.446C213.296 120.903 213.548 121.524 213.548 122.308C213.548 122.775 213.412 123.199 213.142 123.582C212.871 123.955 212.488 124.193 211.994 124.296V124.31C212.544 124.413 212.978 124.665 213.296 125.066C213.622 125.458 213.786 125.906 213.786 126.41C213.786 127.194 213.492 127.824 212.904 128.3C212.316 128.767 211.476 129 210.384 129H207.108ZM208.228 127.95H210.65C211.312 127.95 211.802 127.815 212.12 127.544C212.446 127.273 212.61 126.895 212.61 126.41C212.61 125.915 212.446 125.537 212.12 125.276C211.802 125.005 211.312 124.87 210.65 124.87H208.228V127.95ZM208.228 123.82H210.412C211.718 123.82 212.372 123.316 212.372 122.308C212.372 121.309 211.718 120.81 210.412 120.81H208.228V123.82ZM216.254 129V119.76H222.736V120.81H217.374V123.792H221.546V124.842H217.374V127.95H222.946V129H216.254ZM296.465 119.76L292.433 123.89L292.265 124.072L289.787 126.606V125.094L294.995 119.76H296.465ZM290.347 119.76V129H289.227V119.76H290.347ZM292.545 123.176L296.507 129H295.163L291.621 123.806L292.545 123.176ZM305.666 119.76V129H304.28L300.416 122.812L299.436 121.076H299.422L299.478 122.476V129H298.414V119.76H299.8L303.65 125.92L304.644 127.698H304.658L304.602 126.284V119.76H305.666ZM312.42 119.62C313.297 119.62 314.053 119.816 314.688 120.208C315.332 120.591 315.826 121.137 316.172 121.846C316.526 122.555 316.704 123.4 316.704 124.38C316.704 125.36 316.526 126.205 316.172 126.914C315.826 127.623 315.332 128.174 314.688 128.566C314.053 128.949 313.297 129.14 312.42 129.14C311.542 129.14 310.782 128.949 310.138 128.566C309.503 128.174 309.008 127.623 308.654 126.914C308.308 126.205 308.136 125.36 308.136 124.38C308.136 123.4 308.308 122.555 308.654 121.846C309.008 121.137 309.503 120.591 310.138 120.208C310.782 119.816 311.542 119.62 312.42 119.62ZM312.42 120.67C311.785 120.67 311.234 120.819 310.768 121.118C310.301 121.407 309.942 121.832 309.69 122.392C309.438 122.943 309.312 123.605 309.312 124.38C309.312 125.155 309.438 125.822 309.69 126.382C309.942 126.933 310.301 127.357 310.768 127.656C311.234 127.945 311.785 128.09 312.42 128.09C313.064 128.09 313.614 127.945 314.072 127.656C314.538 127.357 314.898 126.933 315.15 126.382C315.402 125.822 315.528 125.155 315.528 124.38C315.528 123.605 315.402 122.943 315.15 122.392C314.898 121.832 314.538 121.407 314.072 121.118C313.614 120.819 313.064 120.67 312.42 120.67ZM320.781 129L318.051 119.76H319.213L321.495 127.978L323.665 119.76H324.939L327.109 128.006L329.391 119.76H330.497L327.781 129H326.395L324.757 123.008L324.281 120.922H324.267L323.791 123.008L322.167 129H320.781ZM339.764 119.76V129H338.378L334.514 122.812L333.534 121.076H333.52L333.576 122.476V129H332.512V119.76H333.898L337.748 125.92L338.742 127.698H338.756L338.7 126.284V119.76H339.764ZM343.143 127.32C343.414 127.32 343.633 127.404 343.801 127.572C343.969 127.74 344.053 127.959 344.053 128.23C344.053 128.501 343.969 128.72 343.801 128.888C343.633 129.056 343.414 129.14 343.143 129.14C342.873 129.14 342.653 129.056 342.485 128.888C342.317 128.72 342.233 128.501 342.233 128.23C342.233 127.959 342.317 127.74 342.485 127.572C342.653 127.404 342.873 127.32 343.143 127.32Z" fill="#E6E4D6"/>
</svg>
