<svg width="19" height="16" viewBox="0 0 19 16" fill="none" xmlns="http://www.w3.org/2000/svg">
<path fill-rule="evenodd" clip-rule="evenodd" d="M1.39543 2.10619C1.53219 1.66848 1.9433 1.34704 2.42358 1.34704H16.4236C16.9039 1.34704 17.315 1.66848 17.4517 2.10619L9.42358 7.7259L1.39543 2.10619ZM8.66576e-05 2.41163C-1.8373e-05 2.41818 -2.78585e-05 2.42473 5.78148e-05 2.43128V12.9235C5.78148e-05 14.258 1.0891 15.347 2.42358 15.347H16.4236C17.7581 15.347 18.8471 14.258 18.8471 12.9235V2.431V2.42352M8.66576e-05 2.41163C0.00653406 1.08258 1.09307 0 2.42358 0H16.4236C17.7542 0 18.8408 1.08276 18.8471 2.41195M1.3471 3.71663L9.03734 9.0998C9.26925 9.26214 9.57791 9.26214 9.80982 9.0998L17.5001 3.71663V12.9235C17.5001 13.514 17.0141 14 16.4236 14H2.42358C1.83305 14 1.3471 13.514 1.3471 12.9235V3.71663Z" fill="#E6E4D6" fill-opacity="0.5"/>
</svg>
